<?xml version="1.0" encoding="UTF-8"?>
<!DOCTYPE svg  PUBLIC '-//W3C//DTD SVG 1.1//EN'  'http://www.w3.org/Graphics/SVG/1.1/DTD/svg11.dtd'>
<svg version="1.1" xmlns="http://www.w3.org/2000/svg">
<defs>
<font id="SummerFont-Bold" horiz-adv-x="582">
<font-face font-family="Summer Font" font-weight="700" ascent="1638" bbox="-58.1429 -520 1134.53 1939.74" cap-height="1476" descent="-410" panose-1="2 11 6 6 3 5 4 2 2 4" underline-position="-205" underline-thickness="102" unicode-range="U+0020-2074" units-per-em="2048" x-height="842"/>
<missing-glyph/>
<glyph glyph-name="space" horiz-adv-x="300" unicode=" "/>
<glyph d="M142 871q-9 282 -12 364q-3 84 -26 323q0 31 23 45q20 13 52 13q37 0 56 -43q0 -40 -1 -194q-9 -154 -9 -292q0 -125 -6 -292q-2 -172 -2 -213l2 -92q11 -146 -23 -195q-65 -19 -70 76q-1 39 16 500zM111 114q17 18 62 18q46 0 66 -28q16 -24 16 -48q0 -75 -81 -74 q-92 2 -89 75q2 32 26 57z" glyph-name="exclam" horiz-adv-x="295" unicode="!"/>
<glyph d="M38 1370q-3 36 -3 50q-1 71 55 75q41 4 59 -32q11 -20 7 -80q-7 -112 -10 -138q-15 -110 -56 -107q-51 5 -48 183q0 16 -4 49zM208 1370q-3 36 -4 50q0 71 54 75q41 4 60 -32q11 -20 8 -80q-8 -112 -11 -137q-14 -111 -55 -108q-51 5 -49 183q0 16 -3 49z" glyph-name="quotedbl" horiz-adv-x="363" unicode='"'/>
<glyph d="M553 675q103 0 113 8q28 19 32 284q0 7 -17 9h-121q-39 0 -46 -10q-9 -10 -23 -129q-24 -148 -20 -157q7 -5 82 -5zM1043 640q-5 -50 -73 -50q-201 0 -200 3q-1 -2 -34 -282q-9 -81 -20 -234q-9 -125 -12 -138q-14 -40 -64 -29q-41 8 -46 47q-1 14 15 117q4 25 15 153 q12 129 19 176q25 160 13 186q-2 3 -104 3q-84 0 -88 -6l-22 -249q-37 -419 -78 -431q-66 -22 -76 53q-2 7 37 278q40 345 37 348q-16 10 -211 -14q-44 0 -72 22q-27 20 -20 45q16 34 120 34q171 -9 192 4q9 5 23 136q19 152 16 154q-6 6 -188 -6q-118 -7 -123 45 q-5 47 56 47q248 2 255 5q6 5 24 125q27 174 27 344q0 69 55 65q51 -5 50 -54q0 -23 -24 -241q-28 -231 -25 -234q1 -1 90 -1q92 0 101 8q5 5 37 236q33 241 33 245q16 40 59 41q52 0 51 -54q0 -9 -16 -86q-19 -88 -29 -147q-36 -228 -26 -242q11 -1 88 8q123 7 131 4 q46 -10 46 -46q0 -47 -110 -57q8 7 -64 9q-99 2 -104 -1q-13 -11 -28 -150q-15 -138 -6 -148q8 -8 185 10q92 0 88 -51z" glyph-name="numbersign" horiz-adv-x="1136" unicode="#"/>
<glyph d="M332 1436q2 -55 -8 -203q-1 -12 -6 -384q43 -71 60 -113q37 -79 78 -227q30 -120 30 -185q0 -119 -59 -249q-43 -93 -107 -119q0 -45 -2 -57q-14 -68 -63 -61q-44 8 -52 64v30q-8 -1 -46 3q-103 10 -103 66v36q-4 36 88 -5q34 -11 55 -11l1 3l8 188q4 353 7 592 q-15 33 -33 67q-103 199 -103 376q0 150 90 230q56 41 55 45q-7 81 33 116q34 19 59 -10q18 -21 14 -89q-1 -3 -1 -4q82 -17 106 -62q19 -32 -15 -52q-25 -15 -70 14q-7 6 -14 8q-3 -1 -2 -7zM323 596q-15 35 -17 -14q-2 -27 13 -419q0 -58 2 -52q4 -1 23 52q26 86 26 182 q0 74 -33 191q-5 34 -14 60zM217 1042q2 226 3 264q9 109 3 105q-8 0 -15 -17q-12 -28 -15 -138q0 -161 24 -214z" glyph-name="dollar" horiz-adv-x="540" unicode="$"/>
<glyph d="M807 1395q-31 -79 -63 -151q-21 -59 -358 -986l-66 -182l-18 -45q-16 -44 -20 -50q-26 -52 -74 -45q-44 8 -36 73q4 20 87 236q156 396 158 401q195 537 199 550q50 166 86 256q34 88 72 93q77 -12 33 -150zM866 515q1 59 -8 97q-15 65 -21 77q-19 34 -36 35h-2 q-55 6 -83 -248q-15 -115 -14 -187q1 -89 9 -135q2 -12 4 -30q6 -41 12 -58q8 -26 22 -27q21 -1 48 44q30 55 40 119q17 116 20 157l5 44q3 38 4 112zM973 558q7 -124 -8 -261q-18 -108 -26 -137q-19 -76 -47 -123q-24 -39 -49 -58q-47 -32 -98 -29h-4q-69 9 -106 66 q-18 27 -33 104q-8 40 -9 168q1 99 5 139q16 140 20 166q14 78 35 121q23 50 54 73q41 28 97 24h6q54 -7 87 -36q33 -31 50 -89q1 -3 4 -14q20 -73 22 -114zM255 1453q-58 3 -81 -251q-12 -114 -10 -188q3 -88 11 -134q2 -12 6 -30q5 -40 13 -57q8 -25 23 -26q20 -2 45 43 q30 56 38 122q15 114 18 156l4 44q2 39 2 113q0 59 -9 96q-17 65 -23 77q-20 34 -37 35v0zM430 1289q9 -124 -4 -260q-16 -110 -23 -138q-17 -76 -44 -122q-23 -42 -48 -61q-45 -33 -101 -31l-5 1q-63 8 -103 64q-18 26 -35 104q-9 38 -12 166q-1 99 2 139q13 142 18 167 q13 78 32 122q22 51 54 74q41 28 100 25l4 -1q51 -3 84 -33q35 -31 52 -89q1 -4 5 -14q22 -72 24 -113z" glyph-name="percent" horiz-adv-x="1034" unicode="%"/>
<glyph d="M373 1207q44 136 43 191q-2 113 -49 113q-30 0 -29 -80q-27 -265 -19 -394l7 16zM167 411q0 -91 12 -144q13 -52 37 -101q50 -92 152 -92q35 0 95 22q51 22 53 46q1 5 -47 62q-64 78 -108 190q-54 138 -88 368q-6 36 -12 38q-8 2 -58 -173q-36 -125 -36 -216zM789 -15 q-85 6 -190 85l-51 -34q-95 -52 -184 -54q-85 -1 -160 59t-107 136q-63 151 -13 389q21 105 94 238q60 120 64 143q9 74 -1 318v180q0 119 80 145q88 29 146 -37q69 -78 47 -236q-10 -64 -86 -233q-75 -163 -76 -170q-3 -23 11 -63q20 -63 30 -119q34 -213 86 -343 q79 -201 113 -196q36 4 40 184q1 15 7 16q-92 -14 -97 37q-6 46 67 50q64 3 122 9q29 3 63 11q35 6 51 6q80 4 64 -54q-7 -26 -55 -40q-11 -1 -78 -3q-45 -3 -44 -3q-3 -2 -13 -131q-7 -50 -35 -100q-20 -42 -20 -46q1 -8 40 -35q42 -30 67 -29q29 2 53 7q26 3 36 3 q50 -3 50 -40q0 -51 -121 -50z" glyph-name="ampersand" horiz-adv-x="913" unicode="&amp;"/>
<glyph d="M38 1370q-3 36 -4 50q0 71 54 75q41 4 60 -32q11 -20 8 -80q-8 -112 -11 -137q-14 -111 -55 -108q-51 5 -49 183q0 16 -3 49z" glyph-name="quotesingle" horiz-adv-x="193" unicode="'"/>
<glyph d="M90 1207q29 157 80 309q54 164 121 165q45 0 41 -49q-2 -33 -32 -87q-125 -221 -138 -597q-20 -573 108 -891q41 -101 69 -163q-1 -31 -28 -43q-30 -11 -55 5q-23 16 -52 83q-79 196 -117 490q-33 263 -27 440q7 216 30 338z" glyph-name="parenleft" horiz-adv-x="333" unicode="("/>
<glyph d="M273 869q6 -177 -28 -440q-38 -294 -117 -489q-28 -68 -51 -85q-28 -15 -55 -4q-32 14 -23 54q23 50 64 152q128 318 108 891q-14 376 -138 597q-31 54 -33 87q-4 49 42 49q67 -1 121 -165q51 -152 80 -309q22 -122 30 -338z" glyph-name="parenright" horiz-adv-x="333" unicode=")"/>
<glyph d="M627 1239q45 -67 -74 -68q-151 10 -151 17q-4 -9 54 -108q19 -33 37 -62q26 -82 -46 -75q-25 12 -49 59q-63 140 -68 151q-2 -13 -29 -111q-43 -109 -75 -109q-86 -5 -31 109q71 142 72 141q-3 4 -159 -5q-43 1 -55 19q-20 31 -6 54q20 28 89 20q137 -19 135 -23 q2 3 -10 27l-40 62q-66 89 -46 115q43 47 86 1q12 -16 26 -45q32 -100 42 -107q8 14 31 64q38 86 70 104q38 12 59 -20q7 -39 -13 -75q-75 -124 -83 -116q-3 -3 44 -6l67 -2q103 6 123 -11z" glyph-name="asterisk" horiz-adv-x="818" unicode="*"/>
<glyph d="M490 656q-32 -2 -95 -3q-23 0 -32 8q-2 13 0 199q-1 66 -13 73q-12 13 -25 -1q-26 -23 -20 -139q6 -124 -5 -140l-158 4q-67 4 -75 -13q-10 -12 4 -25q16 -24 94 -24q137 5 140 -6q5 0 1 -167q2 -40 11 -74q13 -49 36 -25q5 5 5 146q-9 116 1 127q7 5 177 3q101 2 68 39 q-14 24 -114 18z" glyph-name="plus" horiz-adv-x="693" unicode="+"/>
<glyph d="M53 50q-28 43 2 86q17 28 63 29q51 0 73 -43q12 -22 9 -92q-4 -67 -41 -135q-17 -35 -52 -68q-60 -57 -86 -15q-9 15 22 75q31 61 33 94q4 26 -23 69z" glyph-name="comma" horiz-adv-x="224" unicode=","/>
<glyph d="M320 571q-90 -4 -124 -4q-113 0 -140 26q-25 29 -8 51q18 23 119 21q169 -3 240 -1q115 4 145 -18q71 -70 -127 -72q-15 0 -105 -3z" glyph-name="hyphen" horiz-adv-x="634" unicode="-"/>
<glyph d="M45 121q18 19 65 19t70 -31q18 -24 18 -52q0 -80 -87 -79q-97 2 -94 81q2 35 28 62z" glyph-name="period" horiz-adv-x="212" unicode="."/>
<glyph d="M470 1503q-16 -116 -48 -250q-15 -66 -245 -997l-45 -185l-12 -45q-11 -45 -15 -52q-20 -50 -66 -49q-45 3 -44 68q1 21 59 239q111 403 113 409q132 541 135 556q31 167 56 257q24 86 57 96q62 19 55 -47z" glyph-name="slash" horiz-adv-x="476" unicode="/"/>
<glyph d="M164 840q-7 -142 2 -265q17 -246 36 -345q31 -166 75 -166q42 0 65 87q27 104 32 176q2 38 11 123q8 72 8 109q3 207 3 233q-2 147 -13 312q-13 182 -36 240q-12 35 -38 55q-22 17 -40 5q-61 -37 -77 -157q-24 -177 -21 -247q1 -8 -7 -160zM107 1288q12 62 49 116 q53 79 128 79q100 0 145 -94q48 -92 58 -228q2 -26 16 -160q9 -93 10 -140v-246q0 -87 -23 -241q-29 -201 -67 -285q-52 -117 -155 -106q-87 10 -131 96q-83 160 -83 537q0 87 5 220q5 140 5 155q1 96 43 297z" glyph-name="zero" horiz-adv-x="567" unicode="0"/>
<glyph d="M130 -16q-18 0 -39 10q-31 16 -23 40q8 27 48 31q9 1 25 1q16 -1 20 -1q57 1 58 2q6 7 6 468q0 514 14 748q7 49 6 58q-9 3 -23 -20q-70 -95 -100 -99q-77 -8 -51 61q13 30 84 108q80 89 118 90q57 4 70 -40q13 -40 -5 -264q-7 -83 -11 -520q-4 -282 -2 -350 q-7 -229 -4 -235q5 -4 28 -3q82 0 82 -42q0 -45 -68 -45z" glyph-name="one" horiz-adv-x="485" unicode="1"/>
<glyph d="M130 -15q-26 0 -48 13q-29 18 -26 44q3 33 107 239q78 172 149 454q46 183 46 417q0 135 -29 207q-22 55 -49 48q-52 -11 -61 -75q-12 -107 -56 -107q-51 0 -51 53q0 24 19 92q10 33 41 67q42 47 99 47q88 0 135 -70q37 -55 51 -251q11 -157 -34 -394q-44 -230 -111 -385 q-140 -298 -132 -311q3 -17 95 -5q143 7 147 6q46 -5 45 -45q0 -25 -34 -40q-18 -10 -303 -4z" glyph-name="two" horiz-adv-x="522" unicode="2"/>
<glyph d="M189 816q-8 9 33 54q37 46 96 189q45 108 10 255q-9 38 -30 64q-17 21 -35 20q-41 -3 -70 -74q-20 -56 -38 -79q-63 -49 -75 20q0 66 52 141q51 74 121 75q83 0 124 -49q35 -41 49 -162q17 -138 -18 -240q-3 -11 -54 -108q-42 -84 -41 -89q0 -2 24 -26q36 -37 52 -68 q36 -73 43 -191q6 -97 6 -189q1 -118 -29 -212q-22 -69 -72 -116q-54 -49 -112 -49q-72 0 -123 45q-44 36 -39 70q7 25 13 30q21 25 97 -47q28 -25 39 -25q25 -1 66 53q49 65 54 138q17 242 -5 360q-22 123 -72 157q-65 44 -66 53z" glyph-name="three" horiz-adv-x="497" unicode="3"/>
<glyph d="M348 350q-1 -18 -1 -132q0 -119 -4 -173q-3 -63 -49 -63q-52 0 -53 41q0 13 7 237q5 91 3 107q-22 2 -102 0q-74 0 -87 32q-8 22 16 209q25 394 32 478q1 68 13 331q1 67 53 64q52 -1 51 -52q-7 -83 -7 -137q0 -75 -8 -184q-34 -462 -42 -523q-5 -35 -13 -117 q-1 -20 2 -21q9 -4 50 -2q18 0 35 7q11 29 3 215q-1 102 1 148q1 19 13 32q20 21 44 15q36 -7 45 -35q2 -10 -2 -110q-5 -117 -6 -154q-9 -101 1 -110q23 0 41 2q27 4 49 -10q24 -12 24 -32q1 -41 -60 -42q-9 0 -32 1q-11 2 -12 1q-3 0 -5 -23z" glyph-name="four" horiz-adv-x="512" unicode="4"/>
<glyph d="M163 1128q-1 -273 4 -276q-3 2 62 6q90 7 132 -57q43 -65 53 -375q5 -161 -13 -243q-16 -74 -65 -131q-60 -70 -143 -70q-64 0 -106 42q-33 32 -31 59q4 47 54 36q12 0 55 -42q24 -22 38 -21q31 2 68 52q31 45 37 139q10 160 3 282q-7 128 -24 186q-13 44 -23 57 q-6 9 -15 8q-41 -4 -111 -9q-61 -5 -71 58q0 4 2 103q2 109 2 129q0 9 -3 100q-2 80 -1 125q2 44 1 102q0 49 1 53q5 27 40 38h217q82 0 83 -40q4 -39 -50 -43q-37 1 -110 8q-76 6 -78 4q-6 -6 -8 -280z" glyph-name="five" horiz-adv-x="473" unicode="5"/>
<glyph d="M180 196q15 -105 24 -123q16 -29 34 -23q55 18 62 135q11 229 5 336q-9 138 -17 183q-8 43 -34 67q-16 16 -56 6q-36 -8 -39 -58q-16 -263 21 -523zM226 -18q-84 6 -122 91q-24 55 -36 321q-14 285 -9 374q3 52 4 137q1 63 5 106q5 48 10 124q5 70 9 106q12 115 54 188 q32 55 106 49q66 -6 104 -52q44 -58 46 -140q1 -34 -17 -51q-29 -27 -61 -5q-14 7 -18 68q-4 53 -18 74q-18 27 -37 34q-11 3 -23 -11q-28 -33 -43 -162q-41 -364 -25 -381q13 10 31 11q70 12 120 -21t67 -85q4 -14 14 -89q5 -40 11 -178q2 -45 3 -212q0 -163 -57 -237 q-48 -62 -118 -59z" glyph-name="six" horiz-adv-x="455" unicode="6"/>
<glyph d="M318 1481q57 -10 51 -54q-1 -4 -6 -30q-5 -24 -6 -38q-1 -11 -7 -54q-5 -37 -8 -65q-12 -154 -73 -586q-68 -484 -81 -569q-16 -99 -56 -103q-50 -1 -57 31q-3 8 18 98q0 1 15 64q12 53 17 92q0 1 31 216q47 329 50 352q8 78 22 245q12 141 15 161q25 154 21 172 q0 1 -43 -1q-10 -1 -59 -5q-42 -4 -53 -4q-55 1 -55 37q0 22 32 38q65 31 232 3z" glyph-name="seven" horiz-adv-x="427" unicode="7"/>
<glyph d="M263 111q24 34 27 88q4 85 -51 466q-2 29 -8 39q-4 2 -11 -30q-13 -47 -26 -129q-21 -142 -24 -305q-2 -50 17 -99q16 -45 31 -50q28 -7 45 20zM220 1387q-33 -13 -36 -78q-4 -67 16 -187q13 -173 30 -203q3 34 12 127q26 137 27 179q5 92 -2 116q-10 36 -30 47 q-6 5 -17 -1zM337 27q-48 -47 -126 -45q-39 2 -82 42q-34 33 -46 63q-29 78 -24 168q14 261 86 489q7 24 18 46q14 39 15 45q0 4 -25 90q-78 290 -72 389q4 91 60 140q37 34 105 27q43 -5 71 -26q26 -19 37 -48q21 -56 18 -122q-7 -117 -56 -318q-37 -120 -35 -125 q1 -6 20 -68q93 -344 94 -590q0 -99 -58 -157z" glyph-name="eight" horiz-adv-x="449" unicode="8"/>
<glyph d="M223 879q18 -8 57 -16q18 -4 19 2q7 5 17 430q3 51 -25 93q-13 19 -38 19q-28 0 -45 -22q-22 -30 -33 -78q-19 -93 -19 -162q0 -149 7 -180q14 -63 60 -86zM340 16q-39 -34 -106 -34q-44 0 -110 47q-40 28 -42 53q-1 21 19 35q21 13 50 0q9 -4 25 -19q16 -13 26 -20 q28 -19 49 -13q54 18 54 97l12 476q0 20 -3 83q-4 50 -9 51q-97 19 -141 42q-50 27 -76 81q-34 68 -34 231q0 149 47 253q19 39 48 65q33 28 72 36q47 7 90 -9q44 -15 71 -68q25 -45 25 -296v-284l1 -73l-9 -538q6 -101 -11 -134q-17 -38 -48 -62z" glyph-name="nine" horiz-adv-x="482" unicode="9"/>
<glyph d="M66 755q18 18 64 18q48 0 71 -30q18 -25 18 -53q0 -81 -87 -80q-98 2 -95 81q2 36 29 64zM65 194q19 20 65 20q48 0 71 -31q18 -25 18 -53q0 -80 -87 -79q-98 2 -95 81q2 36 28 62z" glyph-name="colon" horiz-adv-x="253" unicode=":"/>
<glyph d="M74 116q-28 44 3 88q18 26 65 27q51 0 75 -42q14 -24 10 -93q-4 -67 -42 -135q-19 -38 -55 -70q-62 -56 -89 -14q-9 15 23 75q32 61 36 94q3 27 -26 70zM74 758q18 18 65 18q50 0 70 -30q18 -25 18 -53q0 -80 -87 -79q-100 2 -94 81q2 36 28 63z" glyph-name="semicolon" horiz-adv-x="265" unicode=";"/>
<glyph d="M332 1078q47 31 91 -5q20 -17 -10 -61q-29 -43 -93 -116q-165 -195 -157 -227q-1 0 156 -164q104 -122 110 -133q25 -64 -32 -74q-36 -5 -65 21q-4 4 -20 24q-21 24 -21 25l-62 77q-197 208 -185 236q-4 28 200 281z" glyph-name="less" horiz-adv-x="482" unicode="&lt;"/>
<glyph d="M374 727q-96 -2 -133 -2q-124 0 -151 27q-30 26 -9 51q20 20 126 18q186 -5 265 -2q127 4 156 -20q82 -68 -137 -69q-15 0 -117 -3zM341 624q96 3 133 3q124 0 152 -27q29 -26 8 -51q-20 -20 -126 -18q-185 5 -265 2q-127 -4 -156 20q-82 68 135 68q15 1 119 3z" glyph-name="equal" horiz-adv-x="715" unicode="="/>
<glyph d="M238 962q204 -253 200 -281q12 -28 -185 -236l-43 -50q-28 -35 -45 -58q-11 -14 -15 -18q-29 -26 -65 -21q-57 10 -32 74q6 11 110 133q157 164 156 164q8 32 -157 227q-64 73 -93 116q-30 44 -10 61q44 36 91 5z" glyph-name="greater" horiz-adv-x="482" unicode="&gt;"/>
<glyph d="M223 98q18 19 63 19q49 0 67 -28q18 -27 18 -53q0 -77 -84 -76q-97 2 -91 79q2 33 27 59zM295 927q99 199 104 270q9 141 -56 207q-37 47 -118 -5q-26 -16 -51 -63q-30 -57 -51 -60q-71 -15 -66 62q5 72 110 144q45 33 116 40q97 10 148 -48q78 -77 78 -261 q0 -97 -90 -286q-68 -143 -72 -225q-5 -90 -5 -186q0 -49 1 -112v-63q0 -55 -40 -75q-70 -35 -70 59v175q1 124 7 215q6 118 55 212z" glyph-name="question" horiz-adv-x="563" unicode="?"/>
<glyph d="M366 873q-17 -168 -13 -262q12 -289 96 -293q105 29 132 183q9 31 13 253q2 126 -19 253q-17 87 -30 115q-22 42 -64 40q-99 -4 -115 -289zM245 750q25 312 69 389q66 114 169 113q98 0 147 -89q70 -127 75 -507q1 -57 -7 -126q-6 -49 -2 -59q9 -34 39 -83q28 -43 29 -42 q31 12 48 344q21 408 -90 606q-93 163 -271 163q-123 0 -185 -118q-55 -107 -78 -242q-26 -157 -29 -335q-3 -125 27 -341q19 -130 51 -216q73 -194 198 -199q159 -6 299 127q37 38 47 46q86 46 68 -40q-9 -42 -81 -100q-67 -52 -135 -78q-119 -46 -202 -40 q-242 19 -315 309q-51 205 -52 549q0 402 97 584q103 197 296 183q181 -11 287 -119q107 -111 137 -230q25 -103 34 -248q7 -151 7 -292q0 -413 -164 -409q-53 10 -102 89q-17 29 -95 -76q-66 -56 -147 -36q-208 31 -169 523z" glyph-name="at" horiz-adv-x="986" unicode="@"/>
<glyph d="M410 1002q-45 337 -51 336q3 2 -26 -164q-3 -19 -24 -122q-22 -107 -35 -177q-13 -75 -30 -203q-14 -124 -19 -150q-9 -40 -7 -58q0 -4 12 -3q223 -7 223 2q3 199 -43 539zM602 44q0 -22 -8 -36q-17 -25 -49 -29q-74 -7 -68 39q27 170 -15 343q0 1 -83 15 q-92 17 -151 -11q-12 -6 -22 -58q-28 -129 -31 -202q-1 -18 -1 -42q1 -30 1 -34q-1 -49 -38 -49q-51 0 -72 35q-11 20 30 272q7 45 32 242q23 192 40 285q7 44 54 354q12 84 19 111q8 34 21 80q36 125 82 125q49 0 76 -76q39 -113 52 -194q4 -21 28 -153q18 -100 20 -126 q2 -22 12 -110q13 -114 21 -189q31 -296 50 -572v-20z" glyph-name="A" horiz-adv-x="656" unicode="A"/>
<glyph d="M335 124q79 100 87 218q10 150 -41 272q-44 107 -115 156q-24 15 -55 17q-14 -14 -12 -37q5 -42 -11 -391q-26 -279 -9 -286q85 -38 156 51zM191 866q3 -2 18 5q35 14 66 58q38 59 56 114q19 57 21 126q2 103 -46 167q-44 59 -103 59q-2 0 -4 -10q-5 -17 -5 -64 q-7 -453 -3 -455zM402 66q-46 -57 -95 -73l-31 -10q69 0 -143 -1q-45 4 -53 31q-6 25 16 508l-13 810q0 86 4 106q13 50 72 50q146 0 223 -93q78 -97 72 -236q-5 -121 -73 -235q-70 -91 -58 -91q-3 4 25 -17q53 -32 83 -78q40 -49 69 -168q32 -136 19 -244 q-20 -146 -117 -259z" glyph-name="B" horiz-adv-x="586" unicode="B"/>
<glyph d="M161 622q8 -145 10 -206q8 -197 60 -276q60 -91 150 -41q38 22 67 59q27 37 28 65q10 51 63 41q19 -4 39 -18q17 -26 5 -69q-11 -42 -43 -84q-84 -111 -221 -111q-133 0 -197 132q-59 119 -66 409q-2 91 1 216q3 148 3 153q0 293 73 466q29 65 99 104q88 50 185 10 q101 -42 128 -129q21 -70 -9 -99q-20 -20 -55 -4q-29 13 -28 38q2 44 -26 75q-33 34 -97 38q-82 4 -117 -95q-43 -122 -50 -207q-8 -92 -8 -320q0 -42 6 -147z" glyph-name="C" horiz-adv-x="608" unicode="C"/>
<glyph d="M184 1065q0 -33 7 -136q2 -97 4 -189q0 -48 -11 -387q-4 -258 7 -265q70 -36 135 32t105 201q60 193 43 492q-15 283 -90 440q-74 151 -181 151q-15 -1 -15 -4zM88 825q-2 149 -2 236q4 91 -6 243q-6 113 -5 142q0 51 125 44q114 -1 197 -80q56 -54 106 -189 q68 -184 68 -527q0 -172 -17 -277q-36 -230 -132 -352q-60 -78 -190 -82q-114 -4 -137 21q-18 11 -4 621q-1 22 -3 200z" glyph-name="D" horiz-adv-x="605" unicode="D"/>
<glyph d="M319 66q161 12 161 -49q7 -45 -254 -33q-105 -3 -121 10q-7 11 -8 128q-1 24 1 152q2 145 2 193q-3 701 -17 877q-11 140 70 144q116 5 154 0h31q30 0 47 -2q82 -6 64 -50q-13 -31 -166 -27q-96 4 -95 -9l7 -297q0 -95 1 -190q2 -58 117 -44q34 -3 54 -43q27 -54 -33 -51 q-77 4 -93 1q-29 -5 -31 -5q-1 -1 -1 -7q-15 -539 -15 -583q1 -104 12 -114q7 -6 113 -1z" glyph-name="E" horiz-adv-x="508" unicode="E"/>
<glyph d="M156 -18q-37 -4 -55 24q-5 8 -8 114q0 13 3 147q4 144 4 199q-3 701 -17 878q-11 140 70 144q116 5 156 0q5 -1 26 0q28 0 41 -1q73 -5 74 -47q3 -36 -155 -36q-102 -1 -101 -13l1 -289q3 -240 0 -241q16 0 115 7q58 4 62 -45q4 -51 -50 -48q-65 4 -82 1q-25 -3 -28 -6 q-3 -1 -3 -6q-15 -540 -15 -584q0 -23 2 -85q1 -59 1 -68q0 -38 -41 -45z" glyph-name="F" horiz-adv-x="495" unicode="F"/>
<glyph d="M628 374v-344q0 -48 -50 -48q-57 -6 -52 26q1 20 -7 16q-20 -13 -44 -23q-31 -12 -83 -14q-160 -4 -222 56q-66 60 -84 218q-32 351 -4 795q17 263 116 365q105 111 258 49q80 -33 99 -90q20 -72 -51 -59q-21 4 -43 30q-16 21 -37 33q-168 93 -224 -216q-14 -83 -14 -373 q-8 -205 -5 -302q3 -114 11 -195q10 -109 49 -172q24 -40 54 -48q13 -3 77 -3q41 0 80 19q42 20 54 50q17 38 9 180q-3 45 4 45q-16 0 -75 -7q-72 0 -72 51q0 30 76 48q43 8 99 8q81 0 81 -95z" glyph-name="G" horiz-adv-x="672" unicode="G"/>
<glyph d="M431 1487q37 1 38 -10q13 -8 9 -150q-3 -66 -3 -146q0 -202 14 -622q6 -197 6 -511q0 -24 -9 -40q-16 -26 -51 -26q-53 0 -53 60q10 715 0 747q0 1 -61 -2q-131 0 -134 -9q-3 -6 3 -143q8 -162 3 -243q-3 -48 -3 -363q0 -47 -45 -47q-67 -2 -67 51q-1 30 5 121 q-1 41 0 132q1 107 0 140q-9 829 1 1010q4 46 48 50q48 4 52 -42q2 -52 2 -130q-18 -439 -4 -450q10 -7 104 -9q92 -2 97 5q10 14 1 581q0 46 47 46z" glyph-name="H" horiz-adv-x="569" unicode="H"/>
<glyph d="M143 -18q-106 0 -107 39q-4 49 63 50q21 -1 48 0h-3q3 7 3 39q2 101 2 134q0 24 2 79l2 49q0 25 1 158q1 113 -3 205q-4 91 -6 205q-2 136 -2 140l2 203q1 42 0 66q14 67 -61 51q-33 -3 -44 24q-6 19 -2 35q8 25 152 26q18 0 59 1h46q62 0 62 -36q0 -43 -44 -46 q-21 -2 -36 0q-29 0 -28 3q-10 -12 -10 -180q0 -389 6 -467q4 -69 4 -597q-9 -81 4 -91q3 -2 49 -4q59 -4 58 -45q0 -41 -68 -41h-149z" glyph-name="I" horiz-adv-x="395" unicode="I"/>
<glyph d="M330 192q-22 -67 -69 -117q-88 -93 -149 -93q-70 0 -66 55q1 26 51 42q40 14 69 40q68 60 68 215q0 29 -1 112q0 85 -1 143q0 236 -6 322q-33 478 -42 484q-9 5 -81 -2q-26 0 -43 18q-11 14 -11 29q0 38 88 44q27 2 198 2q26 0 40 -14q27 -27 10 -56q-11 -25 -79 -23 q-26 10 -26 -2q0 -21 4 -61q0 -9 16 -236q1 -23 12 -124q10 -104 17 -202q4 -68 11 -364q4 -164 -10 -212z" glyph-name="J" horiz-adv-x="453" unicode="J"/>
<glyph d="M443 35q-79 154 -154 361q-68 235 -89 258q-8 13 -10 -3q1 -9 2 -19q2 -39 2 -58q-9 -281 -15 -358q-1 -23 -1 -67v-70q-1 -97 -49 -97q-55 0 -55 113q0 22 3 106q4 90 5 175q1 65 4 185q4 111 4 130q0 22 -8 376q-8 350 -8 364q0 39 46 54q48 16 71 -19q3 -6 3 -223 q-14 -332 -18 -332q5 0 82 171q29 56 65 132q38 77 51 103q82 169 125 170q56 0 56 -49q-2 -17 -30 -63q-31 -52 -37 -63q-8 -18 -38 -71q-31 -53 -37 -67q-179 -338 -169 -344q-1 -21 125 -371q42 -112 117 -264q66 -128 69 -147q8 -55 -43 -66q-40 -7 -69 53z" glyph-name="K" horiz-adv-x="605" unicode="K"/>
<glyph d="M195 1099q8 -201 10 -299q4 -180 -10 -428l-1 -289q-1 -12 101 -13q158 0 155 -36q-1 -42 -74 -47q-13 -1 -41 -1q-21 1 -26 0q-40 -5 -156 0q-81 5 -70 144q7 81 10 880q0 55 -3 198q-3 133 -3 147q4 105 9 113q18 28 54 24q41 -7 41 -45q0 -10 -1 -67q-1 -64 -2 -86 q0 -19 7 -195z" glyph-name="L" horiz-adv-x="495" unicode="L"/>
<glyph d="M668 1349q-8 -116 -8 -149q0 -41 3 -160q3 -154 4 -246q4 -318 4 -348v-174v-135q0 -119 -12 -134q-20 -25 -54 -21q-33 7 -45 37v143l4 639q-3 147 2 229q-3 57 3 112q3 34 -6 20q-4 -12 -48 -158q-35 -92 -65 -170q-46 -104 -87 -104q-48 0 -146 270q-49 200 -58 184 q-1 -15 -1 -353l5 -610l10 -170q0 -68 -57 -68q-44 0 -55 49q-5 24 -5 86l6 291l-8 390l6 484q0 9 -2 168q5 36 51 36q41 0 54 -27q1 -4 31 -93q34 -97 52 -144q77 -197 99 -262q14 -41 17 -49q4 -14 9 -1q4 8 50 120q69 189 77 215q9 30 32 116q20 73 26 91q16 35 60 34 q42 -1 54 -31q4 -12 -2 -107z" glyph-name="M" horiz-adv-x="728" unicode="M"/>
<glyph d="M488 330l-9 592l-5 297q-2 185 -2 210q1 58 52 58q58 0 58 -85q0 -58 -3 -742q0 -32 5 -206q1 -24 0 -81q-1 -65 -1 -85q0 -15 3 -76q2 -47 1 -71q-5 -85 -8 -97q-14 -62 -64 -62q-41 0 -80 135q-187 673 -201 743q-33 166 -51 254v-532q0 -160 2 -293q4 -272 -1 -277 q-14 -25 -50 -29q-38 -3 -51 23q-9 15 -9 89l3 685v251q2 316 2 359q0 99 57 100q50 1 85 -119q2 -9 55 -232q53 -225 62 -258q7 -27 34 -120q28 -101 45 -163q19 -68 43 -162q25 -96 27 -103q0 -1 1 -3z" glyph-name="N" horiz-adv-x="662" unicode="N"/>
<glyph d="M165 896q-6 -244 2 -347q13 -164 30 -250q30 -145 36 -163q24 -64 66 -66q53 -1 95 110q44 114 52 238q13 216 13 292q0 25 1 81q1 72 -6 208q-6 110 -25 181q-32 122 -44 147q-42 73 -88 75q-118 4 -132 -506zM543 360q-20 -135 -54 -218q-29 -71 -60 -103 q-58 -59 -132 -57q-86 3 -142 88q-27 42 -58 174q-16 68 -32 298q-11 177 -9 250q7 255 11 303q13 141 36 217q27 87 67 127q48 49 129 47q72 -1 118 -43q48 -45 76 -139q48 -166 54 -222q25 -224 19 -471q-17 -208 -23 -251z" glyph-name="O" horiz-adv-x="626" unicode="O"/>
<glyph d="M182 1116q-1 -213 -2 -237q10 5 21 10q29 16 54 35q74 63 83 174q8 96 -30 183q-26 62 -87 85q-27 10 -34 0q-5 -7 -5 -250zM188 188q5 -168 -2 -179q-20 -37 -68 -24q-38 10 -38 82l4 341l-1 401q0 163 -3 257q-2 54 -1 113q1 62 1 68q-2 46 -2 69q-4 61 2 123 q5 47 80 47q72 0 135 -36q49 -29 92 -88q52 -94 56 -178q5 -92 -24 -187q-17 -54 -67 -111q-45 -53 -82 -69q-85 -39 -85 -41q0 -19 3 -588z" glyph-name="P" horiz-adv-x="492" unicode="P"/>
<glyph d="M233 133q19 -51 64 -53q53 -1 95 110q47 120 54 225q13 217 13 292q0 25 1 81q0 73 -6 208q-6 110 -25 181q-33 122 -44 147q-42 73 -88 75q-118 4 -132 -506q-6 -244 2 -347q12 -164 30 -250q30 -145 36 -163zM490 -187q94 0 94 -43q0 -26 -33 -42q-25 -10 -58 -9 q-57 4 -85 25q-38 25 -59 74q-19 43 -21 111q-3 25 -1 41q3 11 -4 10q-19 -1 -24 -1q-88 3 -144 88q-27 42 -58 174q-16 67 -32 298q-11 178 -9 250q7 256 11 303q13 141 36 217q27 87 67 127q48 49 129 47q72 -1 118 -43q48 -45 76 -139q48 -167 54 -222q25 -224 18 -471 q-16 -208 -22 -251q-20 -134 -54 -218q-29 -71 -59 -101q-9 -9 -13 -18q-7 -5 5 -80q3 -36 13 -72q9 -33 23 -51q3 -4 32 -4z" glyph-name="Q" horiz-adv-x="638" unicode="Q"/>
<glyph d="M181 1382q-6 -7 -4 -253q0 -231 4 -233q0 -5 14 4q35 15 60 34q39 31 52 54q27 43 33 119q9 99 -31 189q-28 63 -92 87q-29 10 -36 -1zM321 465q5 -17 127 -399q10 -33 7 -48q-8 -36 -60 -36q-34 0 -58 60q-5 13 -24 82q-22 79 -33 113q-28 87 -50 185q-9 42 -39 180 q-25 121 -29 118q9 -12 32 -563q-1 -137 -8 -148q-20 -37 -68 -24q-38 10 -38 82l12 344l-6 405q0 84 -6 250q-2 54 -1 113q1 62 1 68q-2 46 -2 69q-4 61 2 123q5 47 80 47q72 0 135 -36q49 -29 92 -88q52 -94 56 -178q5 -92 -24 -187q-17 -54 -65 -108q-37 -43 -78 -67 q-42 -23 -40 -28q-3 -3 85 -329z" glyph-name="R" horiz-adv-x="502" unicode="R"/>
<glyph d="M462 349q0 -111 -56 -233q-24 -51 -76 -90q-51 -40 -104 -43q-36 -2 -73 1q-36 3 -64 20q-35 18 -35 43q0 43 55 43q15 0 32 -9q19 -9 26 -12q12 -3 41 4q33 7 50 24q38 38 48 67q41 115 41 202q0 65 -32 171q-27 93 -65 168q-40 81 -78 156q-96 186 -96 353 q0 141 80 221q29 30 82 44q45 14 74 7q77 -18 101 -61q16 -30 -17 -49q-25 -14 -65 13q-29 17 -37 21q-26 5 -70 -40q-32 -34 -32 -140q0 -165 85 -335q29 -57 56 -109q20 -35 27 -52q34 -72 74 -211q28 -112 28 -174z" glyph-name="S" horiz-adv-x="516" unicode="S"/>
<glyph d="M247 -16q-33 6 -31 62q1 42 3 65q2 99 2 134q0 23 2 78l2 49q0 26 1 159q1 113 -3 204t-6 205q-2 137 -2 140l2 203q0 118 -4 123q-1 2 -145 -6q-33 -3 -45 26q-5 16 -1 32q8 25 240 27q13 0 86 1q98 1 109 1q62 0 62 -36q0 -43 -42 -47q-21 -2 -126 0q-25 0 -26 -1 q-14 -9 -14 -175q0 -389 6 -468q9 -148 4 -575q-1 -25 3 -67q4 -55 4 -57q2 -55 -17 -69q-19 -15 -64 -8z" glyph-name="T" horiz-adv-x="537" unicode="T"/>
<glyph d="M565 322q3 -109 -35 -201q-31 -77 -66 -102q-51 -37 -138 -37q-83 0 -148 71q-51 57 -82 157q-28 93 -32 271v456q0 126 2 270q0 42 1 90q1 42 1 46q0 13 -2 47q-2 35 -2 47q0 21 16 36q19 19 43 16q51 -4 49 -52q5 -42 5 -110q-12 -555 -7 -649q13 -289 13 -292 q14 -121 26 -165q19 -73 52 -104q43 -43 78 -40q46 3 66 29q44 61 57 189q5 53 0 218l-1 118q-5 189 -3 274v230q-8 273 -9 295q-1 19 12 37q18 24 45 24q47 0 58 -47q5 -26 3 -173q-1 -68 -4 -315q2 -361 2 -379v-255z" glyph-name="U" horiz-adv-x="633" unicode="U"/>
<glyph d="M205 66q-17 26 -64 501q-21 139 -53 368q-26 186 -37 254q-13 76 -31 165q-14 73 -15 81q-1 23 19 38q28 19 56 8q40 -15 57 -74q5 -16 18 -129q2 -14 5 -52q4 -53 6 -84q12 -132 35 -292q70 -478 70 -504q2 -11 9 -5q2 3 9 47q8 40 15 89q24 147 39 281q29 250 50 480 q14 179 18 195q2 21 18 37q22 20 49 16q43 -8 53 -42q4 -21 -12 -117q-44 -253 -88 -668t-87 -624q-12 -53 -65 -53q-47 7 -74 84z" glyph-name="V" horiz-adv-x="539" unicode="V"/>
<glyph d="M80 121q7 115 5 149v160q-3 154 -4 246q-4 318 -4 347q-2 116 0 175v135q0 118 12 134q20 25 54 21q33 -7 45 -37v-143l-5 -639q2 -147 3 -233q4 -68 2 -106q2 -7 4 1q5 31 29 206q42 237 59 342q19 101 25 123q28 108 89 108q57 -6 96 -232q55 -352 90 -500 q11 -46 19 -47q8 9 -9 307l-5 611l-10 170q0 68 57 68q44 0 55 -49q5 -24 5 -86l-6 -291l8 -390l-6 -484q4 -148 2 -167q-5 -37 -51 -37q-41 0 -53 26q-25 54 -78 235q-12 41 -34 156q-23 83 -35 146q-33 405 -49 382q-27 -100 -66 -420q-23 -161 -65 -297 q-32 -103 -68 -194q-15 -35 -59 -34q-42 1 -54 31q-4 12 2 107z" glyph-name="W" horiz-adv-x="768" unicode="W"/>
<glyph d="M130 1087q-13 63 -59 252q-23 96 -21 106q14 59 78 37q36 -12 90 -337q37 -232 29 -239q4 1 30 217q10 58 52 303q15 62 62 62q38 0 49 -41q7 -26 -2 -49q-21 -53 -63 -267q-59 -307 -59 -318q3 -97 126 -699q10 -51 10 -83q0 -48 -48 -48q-35 0 -51 17q-29 31 -56 343 q-37 374 -47 365q-3 -7 -43 -328q-16 -92 -28 -188q-1 -115 -16 -149q-10 -27 -20 -39q-17 -23 -53 -22q-48 4 -43 45q6 47 26 119q6 20 17 96q15 93 26 149q13 65 24 145q12 93 13 99q30 171 30 189q0 3 -53 263z" glyph-name="X" horiz-adv-x="496" unicode="X"/>
<glyph d="M139 1052q-19 87 -68 265q-27 108 -23 128q12 59 78 37q38 -14 91 -339q19 -190 25 -192q5 -1 35 153q64 285 71 325q9 53 50 60q55 -3 39 -99q-2 -17 -30 -135q-30 -127 -40 -178q-9 -48 -40 -172q-30 -102 -33 -137q-10 -37 -5 -350q1 -43 5 -217q4 -166 4 -170 q0 -49 -48 -49q-61 0 -61 53v34q-1 37 -2 67q-1 106 0 188q3 188 -1 423q-7 129 -47 305z" glyph-name="Y" horiz-adv-x="494" unicode="Y"/>
<glyph d="M115 -17q-71 0 -71 47q0 19 47 188q10 37 93 416q90 414 107 523q56 237 43 237q-4 14 -150 10q-107 0 -110 31q-5 39 24 48q7 3 62 3l206 3q88 0 82 -57q-2 -19 -14 -68q-14 -57 -20 -89q-4 -26 -38 -202q-38 -196 -64 -338q-61 -338 -134 -565q-30 -90 -15 -102 q6 -5 135 2q138 0 149 -30q14 -41 -44 -55q-28 -5 -288 -2z" glyph-name="Z" horiz-adv-x="500" unicode="Z"/>
<glyph d="M213 1453q-42 -2 -41 -21q14 -258 9 -659q-4 -357 2 -519q-7 -220 -1 -233q16 -5 67 -7q140 0 144 -53q4 -38 -67 -43q-86 -4 -135 0q-93 9 -102 22q-15 5 -7 281q6 161 -1 284q1 134 1 450q8 327 0 491q-3 50 31 74q26 21 134 10q99 -8 118 -20q26 -16 11 -41 q-13 -22 -54 -21q-31 1 -109 5z" glyph-name="bracketleft" horiz-adv-x="389" unicode="["/>
<glyph d="M62 1550q32 -10 56 -96q25 -90 56 -257q3 -15 135 -556q2 -6 112 -409q59 -218 60 -239q1 -65 -44 -68q-46 -1 -68 49l-13 52l-12 45l-45 185q-230 931 -246 997l-31 133q-30 186 40 164z" glyph-name="backslash" horiz-adv-x="476" unicode="\"/>
<glyph d="M66 1448q-38 -1 -55 22q-14 24 10 39q23 13 120 21q107 11 135 -10q33 -24 30 -74q-8 -164 0 -491q0 -316 1 -450q-7 -123 -1 -284q9 -275 -7 -282q-9 -12 -102 -21q-49 -4 -135 0q-68 5 -67 43q4 53 145 53q75 -2 74 -2l-9 242q6 162 2 519q-5 401 9 659q1 19 -40 21 q-78 -4 -110 -5z" glyph-name="bracketright" horiz-adv-x="389" unicode="]"/>
<glyph d="M134 1305q192 188 218 184q32 15 193 -171l13 -12q0 1 59 -58l21 -21q15 -21 13 -45q-24 -64 -94 -25q-13 6 -87 103q-101 124 -112 123q-20 -2 -133 -132q-56 -58 -91 -86q-66 -28 -82 2q-20 30 -3 61z" glyph-name="asciicircum" horiz-adv-x="687" unicode="^"/>
<glyph d="M358 -91q-102 -5 -141 -5q-129 0 -160 32q-26 32 -7 56q19 27 133 25q194 -5 276 -1q131 5 164 -23q74 -78 -144 -80q-17 0 -121 -4z" glyph-name="underscore" horiz-adv-x="710" unicode="_"/>
<glyph d="M205 1387q90 -156 55 -181q-38 -25 -111 75q-16 21 -80 118q-34 56 -35 79q0 34 35 50q54 25 93 -47q7 -14 22 -47q13 -32 21 -47z" glyph-name="grave" horiz-adv-x="325" unicode="`"/>
<glyph d="M396 111q9 14 9 343q0 257 -42 301q-36 38 -86 37q-38 0 -69 -44q-35 -51 -44 -124q-11 -103 -2 -274q11 -201 47 -244q30 -38 104 -28q68 8 83 33zM501 65q22 -2 44 -23q11 -17 8 -29q-8 -30 -58 -31q-40 -1 -63 19q-16 17 -21 18q-2 0 -14 -7q-32 -17 -84 -22 q-131 -13 -186 64q-60 81 -66 250q-7 213 4 334q13 152 121 216q40 23 105 22q55 0 82 -19q16 -11 21 -21q4 -3 2 8q-1 3 -1 21q7 22 54 13q16 -2 40 -12q6 -103 7 -147q7 -183 6 -220q0 -21 -1 -135q-1 -109 -2 -156v-38t-1 -44q-1 -21 -1 -48v-9q0 -4 4 -4z" glyph-name="a" horiz-adv-x="579" unicode="a"/>
<glyph d="M354 117q39 37 46 233q6 168 -11 268q-13 75 -63 119q-34 32 -63 33q-67 3 -86 -26q-6 -10 -5 -302q0 -357 2 -363q7 -11 66 -6q75 6 114 44zM504 298q-6 -153 -70 -238q-49 -73 -221 -77q-31 -3 -75 1q-38 4 -55 32q-17 29 -21 157q-2 47 -1 149q1 121 0 159 q-7 654 2 806q3 50 48 54q56 7 57 -45q3 -59 3 -147q-21 -280 -5 -293q-1 1 50 6q75 6 126 -14q143 -62 158 -217q11 -120 4 -333z" glyph-name="b" horiz-adv-x="565" unicode="b"/>
<glyph d="M338 109q51 24 80 -22q22 -35 -9 -59q-69 -49 -157 -46q-81 3 -136 51q-82 68 -80 271q2 215 8 331q8 189 131 225q126 39 200 -13q36 -26 24 -59q-22 -58 -77 -15q-24 20 -78 18q-21 -2 -47 -21q-29 -23 -43 -59q-20 -50 -16 -306q4 -277 53 -306q43 -28 86 -17 q8 1 61 27z" glyph-name="c" horiz-adv-x="430" unicode="c"/>
<glyph d="M146 619q-13 -120 -9 -269q5 -197 44 -233q40 -38 113 -44q60 -5 67 7q22 37 4 365l-4 288q-20 29 -108 25q-26 -1 -58 -33q-41 -42 -49 -106zM100 62q-64 83 -69 236q-7 213 4 333q13 155 158 217q52 22 130 7q45 -11 44 -12q17 12 -3 306q0 88 3 147q1 52 56 45 q46 -4 49 -54q9 -152 1 -806q0 -38 1 -159q1 -102 -1 -149q-1 -22 0 -55v-42q-2 -42 -24 -63q-30 -29 -126 -30q-161 -4 -223 79z" glyph-name="d" horiz-adv-x="535" unicode="d"/>
<glyph d="M244 791q-21 -2 -47 -21q-29 -23 -43 -59q-13 -30 -16 -214q0 -3 -6 -3q141 -3 174 39q33 41 29 121q-3 72 -25 103q-25 36 -66 34zM338 109q51 24 80 -22q22 -35 -9 -59q-69 -49 -157 -46q-80 3 -135 50q-83 69 -81 272q2 217 8 331q8 189 130 225q113 35 183 -15 q34 -25 64 -87q22 -50 14 -144q-9 -100 -49 -142q-38 -40 -125 -55q-74 -11 -113 -7q-9 2 -11 -6q4 -276 54 -305q43 -28 86 -17q9 1 61 27z" glyph-name="e" horiz-adv-x="467" unicode="e"/>
<glyph d="M192 1338q108 13 168 -54q38 -40 56 -96q25 -77 -33 -74q-42 1 -62 47q-19 44 -34 58q-23 22 -59 25q-29 3 -36 -8q-31 -45 -29 -199q1 -143 15 -153q5 -4 0 -4q0 -1 58 8q29 5 55 7q86 8 77 -40q-9 -36 -64 -47q-122 -9 -125 -11q-6 -8 0 -112q6 -146 2 -226 q-6 -107 -9 -269q1 -131 1 -153q-1 -40 -39 -54q-58 -20 -62 31q-2 17 0 55q1 47 0 91q5 259 5 325q-1 3 -6 108q-6 115 -8 205q-9 300 13 402q6 33 18 70q24 52 98 68z" glyph-name="f" horiz-adv-x="388" unicode="f"/>
<glyph d="M358 74q13 7 32 29q9 10 9 196q0 215 -22 390q-5 35 -35 55q-26 16 -60 17q-62 3 -92 -77q-26 -65 -33 -251q-8 -213 34 -291q44 -79 101 -84q33 -4 66 16zM485 641q20 -381 -1 -650q-22 -289 -77 -339q-53 -48 -140 -48q-79 0 -145 48q-33 23 -13 54q25 40 36 35 q0 4 71 -36q18 -11 33 -16q40 -13 78 10q41 25 57 167q15 122 9 123q-10 1 -16 -2q-47 -24 -118 -11q-102 22 -159 126q-42 76 -44 293q-2 196 23 282q36 126 93 158q67 37 190 0q70 -20 94 -60q24 -39 29 -134z" glyph-name="g" horiz-adv-x="559" unicode="g"/>
<glyph d="M509 270q4 -196 4 -199q0 -45 -10 -63q-16 -26 -47 -26q-57 0 -57 66q-3 458 -6 567q-4 84 -55 125q-34 26 -72 28q-23 1 -51 -13q-29 -14 -35 -29q-12 -30 -10 -275q1 -96 4 -251q2 -124 2 -167q0 -51 -49 -51q-48 0 -59 42q-4 92 -6 151q-2 46 -1 149q1 120 0 158 q-7 654 2 806q2 49 48 55q56 7 57 -45q3 -59 3 -148q-11 -304 4 -311q1 -2 22 7q60 23 115 10q187 -43 191 -264q1 -100 6 -322z" glyph-name="h" horiz-adv-x="567" unicode="h"/>
<glyph d="M84 492q-3 346 3 352q33 42 76 -5q23 -28 22 -77q-1 -18 5 -116q6 -96 1 -192q-5 -108 -5 -258q-1 -116 0 -156q2 -37 -33 -54q-57 -23 -60 32q-6 65 -8 166q-2 47 -1 149q1 121 0 159zM75 1013q13 16 51 16q39 0 55 -24q12 -19 12 -38q0 -59 -66 -58q-35 0 -56 22 q-17 17 -16 37q1 26 20 45z" glyph-name="i" horiz-adv-x="250" unicode="i"/>
<glyph d="M132 1015q17 14 50 14q37 0 54 -23q14 -18 14 -38q0 -62 -67 -58q-34 0 -52 18q-20 20 -19 41q1 26 20 46zM238 846q1 -17 0 -55q-2 -47 -1 -91q28 -811 -6 -963q-24 -101 -104 -122q-72 -15 -125 26q-36 30 -53 57q-20 39 16 55q39 13 96 -49q33 -28 65 14q23 33 24 332 q0 81 -3 222q-3 116 -2 137q2 48 -4 224t-5 190q1 40 39 54q56 19 63 -31z" glyph-name="j" horiz-adv-x="319" unicode="j"/>
<glyph d="M428 -18q-42 0 -139 185q-21 41 -66 129q-34 67 -42 79q-4 7 -6.5 0t-2.5 -342q0 -51 -49 -51q-48 0 -60 38q-4 11 -2 58q2 62 1 104q-2 46 -1 148q1 121 0 159q-7 654 2 806q2 49 48 55q56 7 57 -46q3 -58 3 -147q0 -652 0.5 -653.5t92.5 157.5q103 173 111 183 q27 31 59 28q42 -6 36 -61q-4 -33 -117 -195q-107 -153 -104 -169q3 -21 119 -210q120 -194 121 -209q1 -46 -61 -46z" glyph-name="k" horiz-adv-x="464" unicode="k"/>
<glyph d="M339 133q51 -7 29 -58q-16 -35 -51 -63q-53 -41 -125 -26q-81 21 -104 122q-34 152 -6 963q1 42 -1 146q-1 93 0 109q4 54 63 32q38 -13 39 -53q0 -14 -5 -246q-6 -230 -4 -279q0 -21 -2 -137q-3 -141 -3 -222q-1 -301 25 -340q13 -20 20 -23q5 -1 28 11q9 5 34 32 q33 36 63 32z" glyph-name="l" horiz-adv-x="357" unicode="l"/>
<glyph d="M855 657q-1 -95 -4 -550q0 -11 -1 -45q0 -29 -1 -43q0 -30 -32 -28q-57 -6 -62 28q-4 22 -4 109q2 313 -1 366q6 65 3 185q4 51 -18 86q-20 23 -121 27q-69 0 -88 -44q-13 -23 -6 -185q-1 -9 0 -118q1 -117 1 -148q3 -121 0 -242q-3 -76 -24 -65q-66 4 -69 40v108 q-3 323 -5 362q-2 25 0 84q1 69 1 98q-2 36 -27 69q-26 31 -130 25q-48 -3 -73 -42q-27 -36 -20 -144q-3 -31 0 -139q-4 -76 4 -158q0 -110 -5 -251q1 -50 -28 -53q-60 0 -66 26q-6 25 -3 184q1 62 1 363q0 24 1 47v1q0 6 -2 122q-1 102 1 106q4 33 52 37q29 -3 29 -11 q0 -4 -1 -16v-18q-1 -6 -2 -8q20 15 60 30q32 13 62 13q100 13 154 -27q15 -12 27 -12q8 0 37 22q53 26 142 26q109 0 175 -67q36 -39 43 -150z" glyph-name="m" horiz-adv-x="937" unicode="m"/>
<glyph d="M56 715q-2 59 -4 101q2 41 18 51q25 15 48 5q16 -4 22 -14l7 -15l7.5 12.5t122.5 13.5q137 0 197 -64q23 -25 41 -161q12 -90 9 -523q0 -12 2 -43q2 -33 2 -44q0 -23 -17 -36q-17 -17 -40 -14q-49 4 -49 55q1 125 0 254q5 136 1 189q-4 59 -7 180q-7 72 -32 96 q-33 33 -100 28t-89 -32q-22 -30 -37 -177q-13 -139 9 -535q0 -19 -9 -35q-15 -25 -43 -25q-45 0 -55 45q-6 24 -3 161q1 63 1 365q-3 134 -2 162z" glyph-name="n" unicode="n"/>
<glyph d="M170 622q-16 -111 -15 -271q2 -200 38 -241q31 -34 70 -41q36 -8 62 16q58 51 49 355q-7 242 -35 288q-29 47 -65 46q-20 0 -53 -38q-42 -48 -51 -114zM97 66q-50 68 -52 267q-1 184 14 304q9 79 55 137t112 76q70 19 120 -5q31 -16 69 -60q61 -72 62 -310 q0 -238 -2 -273q-5 -97 -54 -159q-47 -61 -129 -61q-67 0 -96 9q-58 17 -99 75z" glyph-name="o" horiz-adv-x="521" unicode="o"/>
<glyph d="M335 136q42 79 37 294q-5 192 -31 256q-20 51 -37 70q-16 18 -45 18q-25 0 -66 -36q-6 -7 -14 -16q-11 -16 -11 -36q-11 -561 -2 -593q3 -14 14 -18q102 -34 155 61zM450 691q35 -99 28 -303q-7 -211 -54 -292q-70 -124 -188 -120q-30 1 -70 14q-30 6 -1 -187 q3 -168 3 -213q-5 -72 -66 -68q-39 3 -41 63q-1 9 -1 43q0 29 -2 45q-4 49 1 350q5 308 -1 595q0 8 1 85q-2 70 -1 128q0 27 46 32q20 1 39 -7q16 -5 11.5 -28t43.5 12q31 23 80 22q54 -1 89 -31q48 -41 83 -140z" glyph-name="p" horiz-adv-x="529" unicode="p"/>
<glyph d="M348 75q11 4 15 18q9 32 -2 593q-8 41 -37 64.5t-55 23.5q-28 0 -44 -18q-18 -19 -37 -70q-26 -64 -31 -256q-6 -215 37 -294q53 -95 154 -61zM162 831q33 30 89 31q47 1 84 -20q46 -25 46.5 -27t-0.5 22q4 26 37 34q39 -3 42 -20q8 -111 9 -148q1 -77 1 -85 q-6 -287 -1 -595q5 -301 1 -349q-1 -17 -2 -46q0 -34 -1 -43q-2 -60 -41 -63q-61 -4 -66 68q0 45 4 213q6 188 14 192l-15 -5q-41 -13 -71 -14q-118 -4 -188 120q-47 81 -54 292q-6 204 28 303q35 100 84 140z" glyph-name="q" horiz-adv-x="528" unicode="q"/>
<glyph d="M60 708q0 11 -2 70q-2 52 0 59q10 23 48 26q48 4 48 -29q-1 -21 -0.5 -22t23.5 20.5t87 28.5q122 13 190 -55q36 -37 -7 -60q-40 -22 -78 12q-29 26 -76 22q-62 -4 -99 -52q-23 -30 -36 -157q-13 -139 9 -535q0 -19 -9 -35q-15 -25 -43 -25q-45 0 -55 45q-6 24 -3 161 q1 63 1 365q-1 45 2 161z" glyph-name="r" horiz-adv-x="455" unicode="r"/>
<glyph d="M386 290q0 -112 -35 -189q-20 -42 -68 -78q-52 -38 -97 -40q-30 -2 -62 1q-31 2 -55 17q-31 16 -31 38q0 39 50 39q14 0 34 -12q6 -4 9 -4q79 -2 123 79q41 78 27 161q-11 70 -142 201q-70 70 -92 167q-24 111 54 189q25 26 70 38q39 12 64 6q68 -15 87 -53 q16 -26 -14 -44q-23 -14 -61 11q-23 14 -29 17q-19 4 -53 -32q-31 -32 -13 -115q7 -28 64 -122q12 -18 48 -54q43 -41 64 -70q58 -81 58 -151z" glyph-name="s" horiz-adv-x="410" unicode="s"/>
<glyph d="M338 112q45 -23 34 -57q-12 -31 -56 -54q-68 -37 -129 -2q-46 29 -64 109q-16 69 -13 415q17 324 2 324h-12q-43 -1 -58 4q-28 7 -27 35q4 25 26 34q10 5 63 6q8 0 8 -5q1 1 6 143q1 42 -1 146q-1 93 0 110q7 53 63 31q38 -13 39 -54q2 -22 -7 -201q-7 -170 -9 -168 q0 -1 87 7q63 0 54 -43q-7 -36 -56 -40q-77 1 -79 -1q-4 -5 -1 -82q-11 -599 12 -647q16 -60 46 -50q8 4 20 18q18 22 52 22z" glyph-name="t" horiz-adv-x="394" unicode="t"/>
<glyph d="M526 136q2 -118 -2 -125q-8 -23 -45 -28q-44 -10 -50 22q-1 7 -3.5 7t-11.5 -4q-27 -19 -109 -26q-136 0 -202 57q-42 32 -45 171q-3 87 -1 520q1 12 -1 44q-2 33 -2 44q0 20 16 35q19 17 40 14q50 -4 50 -61q3 -44 3 -90q-2 -301 -4 -349q4 -59 6 -180q2 -64 26 -88 q40 -39 107 -34q66 5 88 33q23 29 37 176q13 133 -8 535q-1 19 10 37q14 23 41 23q46 0 56 -44q5 -25 3 -162q-1 -63 -2 -364q4 -135 3 -163z" glyph-name="u" unicode="u"/>
<glyph d="M408 164q-52 -182 -150 -182q-76 0 -131 142q-41 107 -62 261q-38 278 -38 333q1 12 -1 44q-2 33 -2 44q0 20 16 35q17 15 38 15q50 -4 53 -54q1 -8 1 -40q0 -28 2 -48q4 -36 34 -317q15 -148 52 -241q24 -67 36 -66q24 1 49 103q10 41 57 337q25 156 19 262q-1 18 12 39 q16 26 43 26q46 0 56 -44q1 -7 -11 -144q-17 -182 -31 -261q-29 -188 -42 -244z" glyph-name="v" horiz-adv-x="517" unicode="v"/>
<glyph d="M854 813q1 -7 -12 -144q-16 -182 -30 -261q-6 -33 -43 -245q-52 -181 -149 -181q-76 0 -132 144q-28 73 -36.5 199t-22.5 0t-21 -160q-52 -183 -150 -183q-76 0 -131 142q-41 107 -62 261q-38 280 -38 333q1 12 -1 44q-2 33 -2 44q0 20 16 35q17 15 38 15q50 -4 53 -54 q1 -8 1 -40q0 -28 2 -48q4 -33 34 -317q15 -148 52 -241q24 -67 36 -66q24 1 49 103q10 43 57 337q25 156 19 262q-1 20 7 38q16 36 55 27q50 -10 50 -58q0 -60 3 -85q3 -33 33 -317q16 -147 53 -241q24 -67 36 -66q24 1 49 103q9 41 56 337q26 156 20 248q-1 36 11 52 q16 27 44 27q46 0 56 -44z" glyph-name="w" horiz-adv-x="879" unicode="w"/>
<glyph d="M535 66q19 -36 -11 -62q-45 -40 -79 7q-45 65 -105 164q-13 23 -48 99q-14 23 -20 13t-55 -107q-57 -120 -94 -176q-34 -48 -73 -9q-28 28 -17 62q9 32 100 195q83 154 83 159q0 23 -11 42q-172 293 -161 362q9 46 67 26q39 -13 63 -61q12 -21 70 -165q29 -95 34 -91 q-1 3 32 94q61 149 72 168q24 47 62 61q60 23 67 -25q12 -73 -159 -366q-21 -34 -20 -45q0 -5 94 -162q107 -180 109 -183z" glyph-name="x" horiz-adv-x="575" unicode="x"/>
<glyph d="M133 605q-16 40 -34 76q-19 33 -28 57q-47 105 -45 122q12 59 77 37q33 -11 77 -131q82 -234 86 -233q5 3 13 33q25 92 40 136q2 7 41 138q15 59 69 59q67 0 54 -77q-3 -20 -26 -74q-26 -62 -39 -102q-15 -51 -53 -149q-38 -97 -44 -116q-11 -36 -32 -154 q-21 -123 -25 -137q-29 -108 -67 -108q-39 0 -50 24q-5 17 8 64q49 164 46 311q-1 56 -68 224z" glyph-name="y" horiz-adv-x="517" unicode="y"/>
<glyph d="M108 -17q-84 0 -84 46q0 8 92 212q26 56 146 270q119 213 101 240q-74 6 -189 -1q-33 -3 -81 -1q-44 -3 -55 28q-6 44 27 54q20 7 81 7l236 4q98 0 91 -62q-7 -67 -65 -205q-13 -27 -197 -365q-78 -145 -71 -150q6 -5 162 19q158 0 170 -33q16 -45 -48 -60 q-30 -6 -316 -3z" glyph-name="z" horiz-adv-x="507" unicode="z"/>
<glyph d="M109 400q2 31 12 117q9 70 9 103q0 67 -42 90q-44 22 -44 45q0 18 39 44q41 29 41 116q-34 296 -28 371q11 134 37 177q41 74 116 74q27 0 60 -13q43 -16 43 -39q-1 -47 -63 -39l-40 4q-51 6 -41 -183q-3 -85 15 -242q20 -151 -15 -224q-6 -13 -29 -33q-13 -12 -14 -14 q2 -2 17 -16q24 -21 29 -31q17 -23 17 -77l-10 -201q-14 -143 -18 -241q-3 -69 25 -118q22 -38 42 -38q59 -1 73 -19q12 -12 12 -26q0 -40 -93 -40q-85 0 -126 73q-37 62 -37 178q9 128 13 202z" glyph-name="braceleft" horiz-adv-x="346" unicode="{"/>
<glyph d="M127 1195q0 -15 -2 -599q0 -6 8 -443q4 -235 1 -257q-12 -69 -58 -61q-34 11 -41 63v55l-1 49v198q1 1006 2 1074q2 169 11 266q5 75 64 36q21 -15 22 -107q2 -96 -6 -274z" glyph-name="bar" horiz-adv-x="171" unicode="|"/>
<glyph d="M250 198q0 -116 -37 -179q-42 -72 -126 -72q-93 0 -93 40q0 14 12 26q14 18 73 19q19 0 42 39q28 48 25 117q-5 98 -19 241l-9 201q0 54 17 77q5 10 29 31q15 12 16 15q-1 3 -13 15q-25 21 -30 33q-35 73 -14 225q17 156 15 241q10 189 -41 183l-40 -4q-62 -8 -63 39 q0 22 42 39q33 13 61 13q74 0 116 -72q26 -45 37 -179q6 -75 -28 -371q0 -87 40 -116q40 -26 40 -44q0 -23 -44 -45q-42 -23 -42 -90q0 -33 9 -103q10 -86 12 -117q4 -74 13 -202z" glyph-name="braceright" horiz-adv-x="346" unicode="}"/>
<glyph d="M472 734q-19 27 -4 54q15 34 63 25q43 -9 61 -52q9 -31 1 -87q-10 -59 -34 -80q-49 -50 -113 -50q-58 0 -110 32q-41 22 -82 65q-35 39 -54 57q-25 19 -39 12q-33 -13 -35 -46q-1 -13 6 -33q9 -25 9 -33q5 -48 -50 -56q-41 -4 -62 37q-15 25 -14 50q1 62 40 113 q49 62 138 58q57 -2 113 -58q15 -15 35 -40q17 -22 24 -29q48 -48 96 -40q29 4 28 75q0 8 -17 26z" glyph-name="asciitilde" horiz-adv-x="615" unicode="~"/>
<glyph glyph-name="uni00A0" horiz-adv-x="300" unicode=" "/>
<glyph d="M126 725q5 95 70 76q34 -49 23 -195l-2 -92q0 -41 2 -213q6 -167 6 -292q0 -138 9 -292q1 -154 1 -194q-19 -43 -56 -43q-32 0 -52 13q-23 14 -23 45q23 239 26 323q3 82 12 364q-17 461 -16 500zM85 1039q-3 73 89 75q81 1 81 -74q0 -24 -16 -48q-20 -28 -66 -28 q-45 0 -62 18q-24 25 -26 57z" glyph-name="exclamdown" horiz-adv-x="315" unicode="¡"/>
<glyph d="M414 149q-17 -14 -67 -27q-33 -8 -38 -12q-3 -1 9 -73q-1 -42 -37 -53q-52 -16 -56 36q6 88 9 87q-6 3 -32 7q-49 12 -82 41q-75 78 -75 272q-1 217 4 329q8 189 130 225q18 6 21 12q9 14 3 39q-2 57 11 71q30 39 66 6q16 -16 16 -47v-73l20 -2q49 -9 65 -21 q35 -24 22 -59q-21 -55 -76 -12q-24 19 -78 17q-21 -1 -47 -21q-29 -23 -43 -59q-20 -50 -16 -306q-2 -270 53 -307q43 -27 86 -16q9 1 61 27q51 24 80 -22q22 -35 -9 -59z" glyph-name="cent" horiz-adv-x="465" unicode="¢"/>
<glyph d="M489 57q12 -13 12 -29q0 -37 -131 -44q-43 -2 -241 -2q-26 0 -40 14q-12 12 -14 31q-1 16 4 27q14 27 32 53q31 45 42 124q14 105 16 192q8 282 1 285q0 -1 -44 -4q-48 1 -63 34q-2 22 12 35q25 10 53 11q19 1 29 1q9 2 9 13q3 107 -1 267q-5 194 4 233q25 106 61 140 q43 38 99 49q47 9 82 -4q39 -15 56 -38q21 -32 -11 -52q-25 -16 -89 1q-32 8 -49 -5q-29 -21 -38 -71q-9 -45 -9 -157q0 -30 1 -126q1 -98 1 -156q0 -23 -1 -74q0 -15 6 -14q162 12 184 -7q30 -24 -4 -53q-35 -23 -92 -21q-96 6 -100 2q-1 -1 5 -287q3 -213 -43 -304 q-15 -44 -10 -48q6 -4 230 2q27 0 41 -18z" glyph-name="sterling" horiz-adv-x="535" unicode="£"/>
<glyph d="M239 625q102 -71 185 -46q79 26 129 141q53 119 -96 208q-92 51 -162 14q-64 -34 -98 -118q-24 -106 42 -199zM605 603q1 -5 38 -23q61 -29 66 -54q9 -48 -60 -48q-53 0 -112 46q-7 9 -11 6q-77 -63 -169 -49q-98 16 -126 30q-2 0 -6 -5q-5 -5 -62 -71q-36 -37 -77 -3 q-34 29 -10 58q58 71 62 90q2 5 -25 57q-33 65 -29 117q-4 27 19 91q22 52 19 63q-1 10 -15 19q-27 22 -38 38q-37 56 -13 89q40 55 88 -2q71 -59 84.5 -49.5t42.5 22.5q97 40 200 9q7 -2 37 -18q14 -6 41 35q47 58 75 63q74 12 73 -53q0 -22 -50 -77q-40 -42 -41 -41 q0 -4 32 -49q52 -100 13 -201q-12 -26 -33 -63q-14 -25 -13 -27z" glyph-name="currency" horiz-adv-x="748" unicode="¤"/>
<glyph d="M427 735q48 -1 63 -33q16 -41 -40 -44q-138 -7 -140 -8q-6 -4 4 -232q0 -43 4 -217q4 -166 4 -170q0 -49 -47 -49q-61 0 -61 53q0 4 -1 34q-1 37 -1 67q-2 106 0 188q19 323 7 321q-8 2 -57 -2q-87 -3 -105 12q-30 25 4 54q32 26 90 25q56 -4 67 -3q-1 0 -1 16 q1 37 -4 47q-8 5 -55 -2q-83 -4 -101 11q-30 25 4 54q32 26 89 25q40 0 54 -2q6 2 -35 155q-29 97 -74 282q-26 108 -22 128q12 59 78 37q38 -14 91 -339q39 -187 39 -188q1 0 15 141q5 64 35 172q36 219 84 219q62 0 47 -97q-3 -17 -31 -135q-29 -127 -39 -178 q-9 -46 -53 -180q-3 -18 14 -14q56 1 76 0q46 -1 61 -33q16 -40 -40 -44q-105 4 -130 -10q-8 -5 -7 -26q-2 -44 4 -47q0 4 38 7q64 5 72 5z" glyph-name="yen" horiz-adv-x="533" unicode="¥"/>
<glyph d="M160 473q0 -6 -2 -249q0 -3 10 -184q4 -100 0 -110q-16 -36 -59 -33q-43 4 -54 35v24l-1 21v82q1 419 2 447q3 112 3 114q17 39 73 23q34 -7 36 -56q2 -40 -8 -114zM160 1385q0 -6 -2 -249q0 -2 10 -184q4 -100 0 -110q-16 -36 -59 -33q-43 4 -54 35v25l-1 20v82 q1 419 2 447q3 112 3 114q17 39 73 24q34 -8 36 -57q2 -40 -8 -114z" glyph-name="brokenbar" horiz-adv-x="211" unicode="¦"/>
<glyph d="M322 871q-22 20 -44 22q-52 6 -88 -43q-41 -59 -18 -119q16 -45 61 -72q34 -11 93 29q64 75 -4 183zM293 571q5 -10 36 -37q40 -35 67 -68q66 -85 66 -152q0 -123 -42 -204q-23 -46 -81 -86q-57 -38 -110 -41q-35 -2 -72 1q-97 9 -97 58q0 41 55 41q13 0 35 -12 q9 -5 13 -5q99 -3 152 89q49 81 33 172q-9 52 -163 193q-92 85 -114 173q-39 157 49 233q41 34 82 48q2 1 25 1q21 16 -16 59q-55 61 -105 195q-30 122 63 206q66 61 152 46q78 -16 101 -54q18 -30 -17 -49q-22 -14 -64 11q-27 17 -35 18q-28 7 -70 -34q-36 -34 -15 -125 q7 -30 76 -132q98 -147 109 -159q63 -80 72 -164q12 -111 -80 -181q-26 -19 -88 -38q-16 -5 -17 -3z" glyph-name="section" horiz-adv-x="524" unicode="§"/>
<glyph d="M14 1438q0 56 77 61q27 0 54 -32q29 -32 9 -65q-28 -42 -69 -38q-38 4 -54 22q-17 19 -17 52zM399 1424q0 -55 -75 -60q-26 -3 -56 32q-29 32 -9 64q29 43 71 38q36 -4 52 -22q17 -19 17 -52z" glyph-name="dieresis" horiz-adv-x="413" unicode="¨"/>
<glyph d="M800 693q-18 438 -105 594q-92 162 -269 162q-120 0 -183 -116q-54 -106 -76 -240q-25 -155 -29 -331q-2 -124 27 -338q18 -129 51 -214q72 -192 195 -197q157 -6 293 116q14 13 50 56q82 47 67 -40q-9 -41 -80 -99q-65 -51 -131 -78q-122 -46 -204 -39q-239 19 -311 304 q-51 205 -51 545q0 398 95 578q103 195 294 181q181 -11 282 -117q99 -102 135 -245q30 -120 35 -229q5 -79 8 -289q8 -407 -82 -539q-35 -51 -107 -74q-41 24 23 117q90 125 73 532zM305 497q8 -143 56 -199q59 -66 149 -28q88 37 90 86q17 66 98 21q41 -44 -37 -121 q-82 -82 -214 -82q-127 0 -191 98q-60 93 -60 572q0 216 71 342q28 51 98 81q84 34 176 6q98 -30 127 -96q21 -56 -7 -78q-23 -17 -54 -5q-30 10 -30 32q5 73 -118 78q-81 4 -114 -67q-41 -87 -49 -149q-8 -67 -4 -186q-3 -99 13 -305z" glyph-name="copyright" horiz-adv-x="945" unicode="©"/>
<glyph d="M308 929q7 10 7 245q0 184 -33 213q-28 27 -68 26q-29 0 -56 -32q-26 -32 -33 -85q-10 -73 -2 -196q9 -144 37 -174q24 -24 83 -18q56 6 65 21zM436 887q11 2 8 -14q-2 -15 -4 -24q-3 -20 -46 -20q-34 0 -53 15q-8 13 -14 12q-6 -3 -13 -6q-28 -12 -72 -15 q-108 -10 -155 47q-52 60 -56 184q-7 154 3 241q12 112 104 160q33 18 88 17q77 -1 98 -27q6 -4 5.5 0t-1.5 13q-5 22 26 25q51 -1 49 -18q-4 -75 -3 -111q6 -132 5 -159q-1 -15 -1 -97q-1 -80 -2 -113v-28q0 -21 -1 -31v-35q-2 -13 1 -15q20 -8 34 -1z" glyph-name="ordfeminine" horiz-adv-x="472" unicode="ª"/>
<glyph d="M332 1078q47 31 91 -5q20 -17 -10 -61q-29 -43 -93 -116q-165 -195 -159 -219q3 -12 158 -172q104 -122 110 -133q25 -64 -32 -74q-36 -5 -65 21q-4 4 -20 24q-21 24 -21 25l-62 77q-197 208 -185 236q-4 28 200 281zM603 1078q47 31 91 -5q20 -17 -10 -61 q-29 -43 -93 -116q-165 -195 -157 -227q-1 0 156 -164q104 -122 110 -133q25 -64 -32 -74q-36 -5 -65 21q-4 4 -20 24q-21 24 -21 25l-62 77q-197 208 -185 236q-4 28 200 281z" glyph-name="guillemotleft" horiz-adv-x="753" unicode="«"/>
<glyph d="M589 668q-15 2 -30 3q-4 0 -230 3q-1 0 -169 -12q-100 -6 -118 3q-28 18 -26 49q2 35 35 51h29l20 1h76q391 -1 417 -3l106 -2q35 -8 34 -58q-1 -11 -1 -28q0 -6 1 -200l1 -27l-2 -23l-7 -21q-27 -16 -56 -14q-26 -1 -54 17q-6 23 0 60q3 49 4 84q0 76 -3 106 q-1 7 -27 11z" glyph-name="logicalnot" horiz-adv-x="748" unicode="¬"/>
<glyph d="M300 571q-90 -4 -124 -4q-113 0 -140 26q-25 29 -8 51q18 23 119 21q169 -3 240 -1q115 4 145 -18q71 -70 -127 -72q-15 0 -105 -3z" glyph-name="uni00AD" horiz-adv-x="634" unicode="­"/>
<glyph d="M371 1214q-4 -4 -3 -194q-8 -178 -2 -182q19 -1 103 36q85 48 94 131q9 75 -35 143q-30 48 -105 65q-41 11 -52 1zM531 535q4 -13 136 -291q30 -70 -55 -70q-32 0 -59 46q-5 9 -27 62q-22 57 -33 82q-33 66 -56 137q-10 32 -46 146q-17 72 -21 65q-5 1 23 -404 q0 -104 -9 -114q-24 -26 -66 -18q-43 8 -43 66l13 253l-7 297q0 62 -6 183q-3 41 -1 84q1 45 1 49q-1 34 -3 50q-4 46 3 93q5 38 84 38q74 0 139 -25q53 -21 102 -67q58 -70 62 -135q6 -68 -26 -140q-42 -93 -160 -129q-34 -12 -41 -23q0 -1 96 -235zM221 1309l-6 -6 q-87 -125 -70 -531q18 -436 105 -592q92 -161 268 -161q120 0 181 116q55 105 77 239q25 155 29 330q2 123 -27 337q-18 129 -51 213q-71 192 -194 197q-157 6 -295 -126q-11 -9 -17 -16zM136 1350q21 30 68 68q64 51 131 78q120 45 202 39q240 -19 311 -305 q51 -202 51 -542q0 -397 -95 -576q-103 -195 -293 -181q-180 11 -283 118q-97 100 -133 244q-30 119 -35 227q-5 79 -8 289q-8 406 82 537q1 3 2 4z" glyph-name="registered" horiz-adv-x="943" unicode="®"/>
<glyph d="M338 1503q-102 -5 -141 -5q-129 0 -160 32q-26 32 -7 56q19 27 133 25q194 -5 276 -1q131 5 164 -23q74 -78 -144 -80q-17 0 -121 -4z" glyph-name="macron" horiz-adv-x="670" unicode="¯"/>
<glyph d="M209 1269q79 4 79 61q0 51 -21 75q-11 12 -49 15q-30 2 -57 -40q-26 -36 11 -76q30 -36 37 -35zM347 1462q46 -49 46 -140q0 -130 -185 -142q-51 -1 -123 77q-74 85 -23 161q69 100 162 91q91 -11 123 -47z" glyph-name="degree" horiz-adv-x="407" unicode="°"/>
<glyph d="M348 193q-85 -4 -117 -4q-107 0 -133 26q-25 27 -7 51q19 21 113 19q159 -3 226 -1q109 4 137 -18q71 -67 -120 -70q-14 0 -99 -3zM490 704q-32 -2 -78 -3q-23 0 -32 8q-2 13 0 191q-1 66 -13 73q-41 14 -54 0q-26 -23 -20 -139t-5 -132l-146 3q-67 4 -75 -13 q-10 -12 4 -57q16 -24 94 -24q125 6 128 -5q5 0 1 -143q2 -40 11 -74q25 -50 65 -26q5 5 5 146q-9 92 1 103q7 5 160 3q101 26 68 71q-14 24 -114 18z" glyph-name="plusminus" horiz-adv-x="693" unicode="±"/>
<glyph d="M110 631q-26 0 -48 13q-29 18 -26 44q5 51 141 242q106 150 106 296q0 95 -28 151q-23 43 -50 37q-52 -11 -61 -74q-11 -108 -55 -108q-51 0 -51 52q0 25 18 93q10 32 41 66q42 47 99 47q88 0 135 -70q52 -77 51 -197q-1 -124 -149 -376q-31 -50 -53 -84q-32 -51 -29 -53 q0 -1 77 4q111 7 117 6q49 -5 48 -45q-1 -25 -33 -40q-20 -10 -250 -4z" glyph-name="uni00B2" horiz-adv-x="428" unicode="²"/>
<glyph d="M186 1087q-12 29 18 71q23 29 68 146q15 36 -3 78q-12 33 -30 34q-63 3 -91 -66q-15 -37 -34 -50q-73 -41 -73 35q0 29 46 96q49 67 146 67q91 0 127 -77q31 -68 1 -151q-62 -141 -61 -163q4 -8 14 -16q44 -31 59 -64q40 -83 40 -157q0 -101 -46 -155q-64 -76 -162 -76 q-72 0 -123 45q-50 45 -39 71q15 36 64 21q18 -12 48 -33q35 -22 49 -22q35 -1 63 23q40 36 45 103q5 70 -26 136q-23 51 -48 61q-42 19 -52 43z" glyph-name="uni00B3" horiz-adv-x="447" unicode="³"/>
<glyph d="M121 1434q15 33 23 47q39 72 93 47q35 -16 35 -50q-1 -23 -35 -79q-64 -97 -80 -118q-73 -101 -110 -75q-37 24 54 181q7 15 20 47z" glyph-name="acute" horiz-adv-x="286" unicode="´"/>
<glyph d="M59 821q11 45 56 45q28 0 43 -25q9 -16 9 -35q-22 -394 -9 -535q15 -147 37 -176q22 -28 89 -33t101 28q24 24 25 88q3 121 7 180q4 54 2 134q-1 52 -1 320q5 48 53 52q21 7 40 -14q17 -13 17 -35q0 -11 -2 -44q-2 -32 -2 -44q3 -433 -9 -523q-18 -138 -54 -159 q-107 -120 -281 -44q-21 12 -20 14q-4 -6 -2 -259q0 -36 -54 -27q-39 5 -48 30q-1 6 -1 181q1 190 1 193q-1 22 2 162q0 302 -1 365q-3 137 2 161z" glyph-name="mu" unicode="µ"/>
<glyph d="M539 1497q0 -18 5 -498q5 -473 1 -586l-5 -124v-355q-1 -43 -30 -57q-57 -33 -60 32q-5 77 -8 192q-1 54 0 173v183q-13 1005 -16 1039q-1 23 -5 24q-8 0 -9 -2q-1 -12 -2 -33q4 -51 3 -73q-1 -27 -2 -80q0 -7 1 -78q1 -68 -1 -131q-4 -109 -4 -298l-23 -460l12 -399 q0 -80 -38 -92q-48 -15 -70 28q-6 10 -7 169q0 796 -2 811q2 -1 -4 -7q-73 -51 -156 41q-50 67 -67 127q-28 111 -24 216q4 97 57 203q43 69 94 103q62 42 136 42q21 0 104 7q59 4 92 -8q31 -13 28 -109z" glyph-name="paragraph" horiz-adv-x="603" unicode="¶"/>
<glyph d="M45 608q18 19 65 19t70 -31q18 -24 18 -52q0 -80 -87 -79q-97 2 -94 81q2 35 28 62z" glyph-name="periodcentered" horiz-adv-x="212" unicode="·"/>
<glyph d="M232 -203q21 -37 -3 -82q-26 -55 -92 -60q-128 -9 -113 59q6 30 84 23q36 -2 37 1q11 24 -6 34q-13 8 -37 16q-30 9 -42 18q-20 16 5 66q18 38 44 71q56 78 81 5q10 -30 -19 -66q-17 -19 -15 -24q2 -2 27 -15q34 -22 49 -46z" glyph-name="cedilla" horiz-adv-x="265" unicode="¸"/>
<glyph d="M128 668q-20 0 -39 10q-30 16 -24 40q10 27 49 31q9 1 26 1q15 -1 19 -1q23 -1 34 4q11 12 31 570q8 92 3 92q-5 1 -30 -50q-65 -95 -96 -98q-76 -8 -50 61q13 30 84 107q80 89 118 90q56 4 70 -39q13 -42 -5 -265q-14 -178 -13 -230q2 -199 1 -239q0 -1 12 1 q83 0 83 -42q0 -45 -68 -45z" glyph-name="uni00B9" horiz-adv-x="435" unicode="¹"/>
<glyph d="M176 1316q58 3 58 46q0 40 -16 58q-7 9 -35 11q-21 1 -41 -30q-20 -27 9 -58q22 -27 25 -27zM291 1470q38 -41 38 -115q0 -107 -153 -117q-44 -1 -104 63q-61 70 -19 133q58 83 136 75q75 -9 102 -39z" glyph-name="ordmasculine" horiz-adv-x="343" unicode="º"/>
<glyph d="M509 962q204 -253 200 -281q12 -28 -185 -236l-34 -47q-28 -33 -50 -56q-15 -19 -19 -23q-29 -26 -65 -21q-57 10 -32 74q6 11 110 133q157 164 156 164q8 32 -157 227q-64 73 -93 116q-30 44 -10 61q44 36 91 5zM238 962q204 -253 200 -281q12 -28 -185 -236l-47 -57 q-18 -27 -38 -50q-8 -14 -19 -20q-28 -25 -64 -20q-57 10 -32 74q6 11 110 133q157 164 156 164q8 32 -157 227q-64 73 -93 116q-30 44 -10 61q44 36 91 5z" glyph-name="guillemotright" horiz-adv-x="753" unicode="»"/>
<glyph d="M641 871q417 593 425 598q88 56 63 -42q-14 -53 -72 -132q-21 -30 -138 -203q-112 -168 -236 -333q-135 -183 -320 -443q-44 -60 -121 -171q-58 -80 -71 -98q-42 -59 -81 -65q-75 -11 -25 65q77 117 198 291q56 81 183 258q149 209 195 275zM142 668q-20 0 -39 10 q-30 16 -24 40q10 27 49 31q9 1 26 1q15 -1 19 -1q23 -1 34 4q11 12 31 570q8 92 3 92q-5 1 -30 -50q-65 -95 -96 -98q-76 -8 -50 61q13 30 84 107q80 89 118 90q56 4 70 -39q13 -42 -5 -265q-14 -178 -13 -230q2 -199 1 -239q0 -1 12 1q83 0 83 -42q0 -45 -68 -45z M1008 124q0 -25 -1 -142q-8 -36 -47 -36q-52 0 -53 41q8 234 -2 244q-17 5 -89 0q-75 0 -88 32q-8 23 74 499q12 62 54 58q55 -1 51 -52q-1 -14 -15 -62q-15 -50 -19 -78q-8 -57 -50 -297q-2 -14 0 -24q2 -3 48 0l41 2l8 178q1 62 51 54q36 -8 45 -37q1 -6 -2 -106 q-3 -86 -5 -85q4 -3 39 0q75 8 75 -36q0 -41 -69 -41q-12 0 -37 2q-13 2 -15 1q8 0 6 -115z" glyph-name="onequarter" horiz-adv-x="1175" unicode="¼"/>
<glyph d="M641 871q417 593 425 598q88 56 63 -42q-14 -53 -72 -132q-21 -30 -138 -203q-112 -168 -236 -333q-135 -183 -320 -443q-44 -60 -121 -171q-58 -80 -71 -98q-42 -59 -81 -65q-75 -11 -25 65q77 117 198 291q56 81 183 258q149 209 195 275zM176 668q-20 0 -39 10 q-30 16 -24 40q10 27 49 31q9 1 26 1q15 -1 19 -1q23 -1 34 4q11 12 31 570q8 92 3 92q-5 1 -30 -50q-65 -95 -96 -98q-76 -8 -50 61q13 30 84 107q80 89 118 90q56 4 70 -39q13 -42 -5 -265q-14 -178 -13 -230q2 -199 1 -239q0 -1 12 1q83 0 83 -42q0 -45 -68 -45zM801 -39 q-26 0 -48 13q-29 18 -26 44q5 51 141 242q106 150 106 296q0 95 -28 151q-23 43 -50 37q-52 -11 -61 -74q-11 -108 -55 -108q-51 0 -51 52q0 25 18 93q10 32 41 66q42 47 99 47q88 0 135 -70q52 -77 51 -197q-1 -124 -149 -376q-31 -50 -53 -84q-32 -51 -29 -53q0 -1 77 4 q111 7 117 6q49 -5 48 -45q-1 -25 -33 -40q-20 -10 -250 -4z" glyph-name="onehalf" horiz-adv-x="1175" unicode="½"/>
<glyph d="M257 1087q-12 29 18 71q23 29 68 146q15 36 -3 78q-12 33 -30 34q-63 3 -91 -66q-15 -37 -34 -50q-73 -41 -73 35q0 29 46 96q49 67 146 67q91 0 127 -77q31 -68 1 -151q-62 -141 -61 -163q4 -8 14 -16q44 -31 59 -64q40 -83 40 -157q0 -101 -46 -155q-64 -76 -162 -76 q-72 0 -123 45q-50 45 -39 71q15 36 64 21q18 -12 48 -33q35 -22 49 -22q35 -1 63 23q40 36 45 103q5 70 -26 136q-23 51 -48 61q-42 19 -52 43zM641 871q417 593 425 598q88 56 63 -42q-14 -53 -72 -132q-21 -30 -138 -203q-112 -168 -236 -333q-135 -183 -320 -443 q-44 -60 -121 -171q-58 -80 -71 -98q-42 -59 -81 -65q-75 -11 -25 65q77 117 198 291q56 81 183 258q149 209 195 275zM983 136q0 -25 -1 -142q-8 -36 -47 -36q-52 0 -53 41q8 234 -2 244q-17 5 -89 0q-75 0 -88 32q-8 23 74 499q12 62 54 58q55 -1 51 -52q-1 -14 -15 -62 q-15 -50 -19 -78q-8 -57 -50 -297q-2 -14 0 -24q2 -3 48 0l41 2l8 178q1 62 51 54q36 -8 45 -37q1 -6 -2 -106q-3 -86 -5 -85q4 -3 39 0q75 8 75 -36q0 -41 -69 -41q-12 0 -37 2q-13 2 -15 1q8 0 6 -115z" glyph-name="threequarters" horiz-adv-x="1175" unicode="¾"/>
<glyph d="M320 1183q-18 -19 -63 -19q-49 0 -67 28q-18 27 -18 53q0 77 84 76q97 -2 91 -79q-2 -33 -27 -59zM248 354q-99 -199 -104 -270q-9 -141 56 -207q37 -47 118 5q26 16 51 63q30 57 51 60q71 15 66 -62q-5 -72 -110 -144q-45 -33 -116 -40q-97 -10 -148 48q-78 77 -78 261 q0 97 90 286q68 143 72 225q5 90 5 186q0 49 -1 112v63q0 55 40 75q70 35 70 -59v-175q-1 -124 -7 -215q-6 -118 -55 -212z" glyph-name="questiondown" horiz-adv-x="523" unicode="¿"/>
<glyph d="M410 1002q-45 337 -51 336q3 2 -26 -164q-3 -19 -24 -122q-22 -107 -35 -177q-13 -75 -30 -203q-14 -124 -19 -150q-9 -40 -7 -58q0 -4 12 -3q223 -7 223 2q3 199 -43 539zM602 44q0 -22 -8 -36q-17 -25 -49 -29q-74 -7 -68 39q27 170 -15 343q0 1 -83 15 q-92 17 -151 -11q-12 -6 -22 -58q-28 -129 -31 -202q-1 -18 -1 -42q1 -30 1 -34q-1 -49 -38 -49q-51 0 -72 35q-11 20 30 272q7 45 32 242q23 192 40 285q7 44 54 354q12 84 19 111q8 34 21 80q36 125 82 125q49 0 76 -76q39 -113 52 -194q4 -21 28 -153q18 -100 20 -126 q2 -22 12 -110q13 -114 21 -189q31 -296 50 -572v-20zM394 1725q90 -156 55 -181q-38 -25 -111 75q-16 21 -80 118q-34 56 -35 79q0 34 35 50q54 25 93 -47q7 -14 22 -47q13 -32 21 -47z" glyph-name="Agrave" horiz-adv-x="656" unicode="À"/>
<glyph d="M410 1002q-45 337 -51 336q3 2 -26 -164q-3 -19 -24 -122q-22 -107 -35 -177q-13 -75 -30 -203q-14 -124 -19 -150q-9 -40 -7 -58q0 -4 12 -3q223 -7 223 2q3 199 -43 539zM602 44q0 -22 -8 -36q-17 -25 -49 -29q-74 -7 -68 39q27 170 -15 343q0 1 -83 15 q-92 17 -151 -11q-12 -6 -22 -58q-28 -129 -31 -202q-1 -18 -1 -42q1 -30 1 -34q-1 -49 -38 -49q-51 0 -72 35q-11 20 30 272q7 45 32 242q23 192 40 285q7 44 54 354q12 84 19 111q8 34 21 80q36 125 82 125q49 0 76 -76q39 -113 52 -194q4 -21 28 -153q18 -100 20 -126 q2 -22 12 -110q13 -114 21 -189q31 -296 50 -572v-20zM397 1795q15 33 23 47q39 72 93 47q35 -16 35 -50q-1 -23 -35 -79q-64 -97 -80 -118q-73 -101 -110 -75q-37 24 54 181q7 15 20 47z" glyph-name="Aacute" horiz-adv-x="656" unicode="Á"/>
<glyph d="M410 1002q-45 337 -51 336q3 2 -26 -164q-3 -19 -24 -122q-22 -107 -35 -177q-13 -75 -30 -203q-14 -124 -19 -150q-9 -40 -7 -58q0 -4 -8 -4q243 -6 243 3q3 199 -43 539zM602 44q0 -22 -8 -36q-17 -25 -49 -29q-74 -7 -68 39q27 170 -15 343q0 1 -83 15 q-92 17 -151 -11q-12 -6 -22 -58q-28 -129 -31 -202q-1 -18 -1 -42q1 -30 1 -34q-1 -49 -38 -49q-51 0 -72 35q-11 20 30 272q7 45 32 242q23 192 40 285q7 44 54 354q12 84 19 111q8 34 21 80q36 125 82 125q49 0 76 -76q39 -113 52 -194q4 -21 28 -153q18 -100 20 -126 q2 -22 12 -110q13 -114 21 -189q31 -296 50 -572v-20zM464 1563q-41 -7 -74 64q-18 47 -27 69q-6 25 -13 12q4 -8 -29 -67q-27 -49 -48 -66q-39 -36 -69 4q-8 14 10 52q6 11 15 27q87 159 103 171q13 10 29 10h1q27 0 42 -24q5 -10 8 -17q7 -13 16 -30q72 -140 74 -161 q5 -40 -38 -44z" glyph-name="Acircumflex" horiz-adv-x="656" unicode="Â"/>
<glyph d="M410 1002q-45 337 -51 336q3 2 -26 -164q-3 -19 -24 -122q-22 -107 -35 -177q-13 -75 -30 -203q-14 -124 -19 -150q-9 -40 -7 -58q0 -4 12 -3q223 -7 223 2q3 199 -43 539zM602 44q0 -22 -8 -36q-17 -25 -49 -29q-74 -7 -68 39q27 170 -15 343q0 1 -83 15 q-92 17 -151 -11q-12 -6 -22 -58q-28 -129 -31 -202q-1 -18 -1 -42q1 -30 1 -34q-1 -49 -38 -49q-51 0 -72 35q-11 20 30 272q7 45 32 242q23 192 40 285q7 44 54 354q12 84 19 111q8 34 21 80q36 125 82 125q49 0 76 -76q39 -113 52 -194q4 -21 28 -153q18 -100 20 -126 q2 -22 12 -110q13 -114 21 -189q31 -296 50 -572v-20zM446 1688q-15 19 -5 40q13 28 53 21q35 -8 46 -39q25 -69 -25 -119q-33 -33 -79 -33q-43 0 -82 22q-25 16 -53 45q-32 35 -34 36q-14 10 -19 9q-16 -7 -17 -26q-1 -8 4 -21q6 -17 6 -23q1 -37 -41 -44q-62 -5 -61 65 q1 43 29 77q34 45 100 43q44 -2 83 -44q9 -9 22 -25q11 -15 17 -21q27 -26 55 -22q10 1 10 44q0 4 -9 15z" glyph-name="Atilde" horiz-adv-x="656" unicode="Ã"/>
<glyph d="M410 1002q-45 337 -51 336q3 2 -26 -164q-3 -19 -24 -122q-22 -107 -35 -177q-13 -75 -30 -203q-14 -124 -19 -150q-9 -40 -7 -58q0 -4 12 -3q223 -7 223 2q3 199 -43 539zM602 44q0 -22 -8 -36q-17 -25 -49 -29q-74 -7 -68 39q27 170 -15 343q0 1 -83 15 q-92 17 -151 -11q-12 -6 -22 -58q-28 -129 -31 -202q-1 -18 -1 -42q1 -30 1 -34q-1 -49 -38 -49q-51 0 -72 35q-11 20 30 272q7 45 32 242q23 192 40 285q7 44 54 354q12 84 19 111q8 34 21 80q36 125 82 125q49 0 76 -76q39 -113 52 -194q4 -21 28 -153q18 -100 20 -126 q2 -22 12 -110q13 -114 21 -189q31 -296 50 -572v-20zM169 1640q0 56 77 61q27 0 54 -32q29 -32 9 -65q-28 -42 -69 -38q-38 4 -54 22q-17 19 -17 52zM554 1626q0 -55 -75 -60q-26 -3 -56 32q-29 32 -9 64q29 43 71 38q36 -4 52 -22q17 -19 17 -52z" glyph-name="Adieresis" horiz-adv-x="656" unicode="Ä"/>
<glyph d="M410 1002q-45 337 -51 336q3 2 -26 -164q-3 -19 -24 -122q-22 -107 -35 -177q-13 -75 -30 -203q-14 -124 -19 -150q-9 -40 -7 -58q0 -4 12 -3q223 -7 223 2q3 199 -43 539zM602 44q0 -22 -8 -36q-17 -25 -49 -29q-74 -7 -68 39q27 170 -15 343q0 1 -83 15 q-92 17 -151 -11q-12 -6 -22 -58q-28 -129 -31 -202q-1 -18 -1 -42q1 -30 1 -34q-1 -49 -38 -49q-51 0 -72 35q-11 20 30 272q7 45 32 242q23 192 40 285q7 44 54 354q12 84 19 111q8 34 21 80q36 125 82 125q49 0 76 -76q39 -113 52 -194q4 -21 28 -153q18 -100 20 -126 q2 -22 12 -110q13 -114 21 -189q31 -296 50 -572v-20zM334 1699q79 4 79 61q0 51 -21 75q-11 12 -49 15q-30 2 -57 -40q-26 -36 11 -76q30 -36 37 -35zM472 1892q46 -49 46 -140q0 -130 -185 -142q-51 -1 -123 77q-74 85 -23 161q69 100 162 91q91 -11 123 -47z" glyph-name="Aring" horiz-adv-x="656" unicode="Å"/>
<glyph d="M482 469q1 72 14 293q24 514 15 516q-6 3 -25 -74q-39 -132 -40 -136q-17 -41 -42 -126q-32 -109 -49 -159q-54 -164 -65 -234q-10 -47 -8 -65q0 -4 -6 -4q206 -17 206 -11zM721 75q159 3 159 -58q8 -45 -247 -21q-38 1 -75 1q-80 -18 -72 28q7 50 11 108q-1 27 1 137 q-2 59 -7 98q0 -2 -16 1q-11 2 -39 6q-33 5 -48 8q-83 15 -135 -10q-12 -6 -23 -57q-44 -206 -44 -208q-5 -125 -55 -125q-51 0 -72 36q-5 10 20 106q31 112 40 171q11 65 52 210q58 210 69 250q55 218 127 422q55 156 63 177q23 75 54 112q17 20 69 21q116 5 154 0h31 q30 0 47 -2q82 -6 64 -50q-13 -31 -166 -27q-96 4 -95 -7q6 -17 2 -100l2 -69q8 -48 5 -181q9 -190 7 -188q1 0 108 5q36 -3 55 -42q27 -55 -33 -52q-78 4 -93 1q-29 -5 -31 -5q-1 -1 -1 -7q-8 -266 -12 -439q4 -130 7 -203l2 -21q4 -26 43 -25q33 -1 72 -1z" glyph-name="AE" horiz-adv-x="908" unicode="Æ"/>
<glyph d="M161 622q8 -145 10 -206q8 -197 60 -276q60 -91 150 -41q38 22 67 59q27 37 28 65q10 51 63 41q19 -4 39 -18q17 -26 5 -69q-11 -42 -43 -84q-84 -111 -221 -111q-133 0 -197 132q-59 119 -66 409q-2 91 1 216q3 148 3 153q0 293 73 466q29 65 99 104q88 50 185 10 q101 -42 128 -129q21 -70 -9 -99q-20 -20 -55 -4q-29 13 -28 38q2 44 -26 75q-33 34 -97 38q-82 4 -117 -95q-43 -122 -50 -207q-8 -92 -8 -320q0 -42 6 -147zM404 -236q23 -38 -2 -84q-28 -56 -95 -62q-132 -9 -116 62q8 28 86 22q38 -2 39 1q12 25 -7 37q-12 8 -38 16 q-31 9 -44 20q-19 15 7 66q18 39 45 74q57 78 82 4q11 -30 -18 -67q-14 -18 -12 -24q3 -6 24 -18q34 -22 49 -47z" glyph-name="Ccedilla" horiz-adv-x="628" unicode="Ç"/>
<glyph d="M319 66q161 12 161 -49q7 -45 -254 -33q-105 -3 -121 10q-7 11 -8 128q-1 24 1 152q2 145 2 193q-3 701 -17 877q-11 140 70 144q116 5 154 0h31q30 0 47 -2q82 -6 64 -50q-13 -31 -166 -27q-96 4 -95 -9l7 -297q0 -95 1 -190q2 -58 117 -44q34 -3 54 -43q27 -54 -33 -51 q-77 4 -93 1q-29 -5 -31 -5q-1 -1 -1 -7q-15 -539 -15 -583q1 -104 12 -114q7 -6 113 -1zM319 1725q90 -156 55 -181q-38 -25 -111 75q-16 21 -80 118q-34 56 -35 79q0 34 35 50q54 25 93 -47q7 -14 22 -47q13 -32 21 -47z" glyph-name="Egrave" horiz-adv-x="508" unicode="È"/>
<glyph d="M319 66q161 12 161 -49q7 -45 -254 -33q-105 -3 -121 10q-7 11 -8 128q-1 24 1 152q2 145 2 193q-3 701 -17 877q-11 140 70 144q116 5 154 0h31q30 0 47 -2q82 -6 64 -50q-13 -31 -166 -27q-96 4 -95 -9l7 -297q0 -95 1 -190q2 -58 117 -44q34 -3 54 -43q27 -54 -33 -51 q-77 4 -93 1q-29 -5 -31 -5q-1 -1 -1 -7q-15 -539 -15 -583q1 -104 12 -114q7 -6 113 -1zM266 1786q15 33 23 47q39 72 93 47q35 -16 35 -50q-1 -23 -35 -79q-64 -97 -80 -118q-73 -101 -110 -75q-37 24 54 181q7 15 20 47z" glyph-name="Eacute" horiz-adv-x="508" unicode="É"/>
<glyph d="M319 66q161 12 161 -49q7 -45 -254 -33q-105 -3 -121 10q-7 11 -8 128q-1 24 1 152q2 145 2 193q-3 701 -17 877q-11 140 70 144q116 5 154 0h31q30 0 47 -2q82 -6 64 -50q-13 -31 -166 -27q-96 4 -95 -9l7 -297q0 -95 1 -190q2 -58 117 -44q34 -3 54 -43q27 -54 -33 -51 q-77 4 -93 1q-29 -5 -31 -5q-1 -1 -1 -7q-15 -539 -15 -583q1 -104 12 -114q7 -6 113 -1zM394 1552q-44 -8 -80 71q-21 54 -31.5 77.5t-11 22.5t-44.5 -83q-31 -56 -54 -75q-43 -41 -73 4q-9 12 11 57q6 11 18 32q100 182 117 195q8 8 14 9l6 1q40 0 56 -26q6 -10 10 -19 q8 -15 18 -34q83 -161 85 -185q5 -43 -41 -47z" glyph-name="Ecircumflex" horiz-adv-x="508" unicode="Ê"/>
<glyph d="M325 66q161 12 161 -49q7 -45 -254 -33q-105 -3 -121 10q-7 11 -8 128q-1 24 1 152q2 145 2 193q-3 701 -17 877q-11 140 70 144q116 5 154 0h31q30 0 47 -2q82 -6 64 -50q-13 -31 -166 -27q-96 4 -95 -9l7 -297q0 -95 1 -190q2 -58 117 -44q34 -3 54 -43q27 -54 -33 -51 q-77 4 -93 1q-29 -5 -31 -5q-1 -1 -1 -7q-15 -539 -15 -583q1 -104 12 -114q7 -6 113 -1zM74 1644q0 56 77 61q27 0 54 -32q29 -32 9 -65q-28 -42 -69 -38q-38 4 -54 22q-17 19 -17 52zM459 1630q0 -55 -75 -60q-26 -3 -56 32q-29 32 -9 64q29 43 71 38q36 -4 52 -22 q17 -19 17 -52z" glyph-name="Edieresis" horiz-adv-x="508" unicode="Ë"/>
<glyph d="M143 -18q-106 0 -107 39q-4 49 63 50q21 -1 48 0h-3q3 7 3 39q2 101 2 134q0 24 2 79l2 49q0 25 1 158q1 113 -3 205q-4 91 -6 205q-2 136 -2 140l2 203q1 42 0 66q14 67 -61 51q-33 -3 -44 24q-6 19 -2 35q8 25 152 26q18 0 59 1h46q62 0 62 -36q0 -43 -44 -46 q-21 -2 -36 0q-29 0 -28 3q-10 -12 -10 -180q0 -389 6 -467q4 -69 4 -597q-9 -81 4 -91q3 -2 49 -4q59 -4 58 -45q0 -41 -68 -41h-149zM221 1752q90 -156 55 -181q-38 -25 -111 75q-16 21 -80 118q-34 56 -35 79q0 34 35 50q54 25 93 -47q7 -14 22 -47q13 -32 21 -47z" glyph-name="Igrave" horiz-adv-x="395" unicode="Ì"/>
<glyph d="M143 -18q-106 0 -107 39q-4 49 63 50q21 -1 48 0h-3q3 7 3 39q2 101 2 134q0 24 2 79l2 49q0 25 1 158q1 113 -3 205q-4 91 -6 205q-2 136 -2 140l2 203q1 42 0 66q14 67 -61 51q-33 -3 -44 24q-6 19 -2 35q8 25 152 26q18 0 59 1h46q62 0 62 -36q0 -43 -44 -46 q-21 -2 -36 0q-29 0 -28 3q-10 -12 -10 -180q0 -389 6 -467q4 -69 4 -597q-9 -81 4 -91q3 -2 49 -4q59 -4 58 -45q0 -41 -68 -41h-149zM150 1795q15 33 23 47q39 72 93 47q35 -16 35 -50q-1 -23 -35 -79q-64 -97 -80 -118q-73 -101 -110 -75q-37 24 54 181q7 15 20 47z" glyph-name="Iacute" horiz-adv-x="395" unicode="Í"/>
<glyph d="M179 -18q-106 0 -107 39q-4 49 63 50q21 -1 48 0h-3q3 7 3 39q2 101 2 134q0 24 2 79l2 49q0 25 1 158q1 113 -3 205q-4 91 -6 205q-2 136 -2 140l2 203q1 42 0 66q14 67 -61 51q-33 -3 -44 24q-6 19 -2 35q8 25 152 26q18 0 59 1h46q62 0 62 -36q0 -43 -44 -46 q-21 -2 -36 0q-29 0 -28 3q-10 -12 -10 -180q0 -389 6 -467q4 -69 4 -597q-9 -81 4 -91q3 -2 49 -4q59 -4 58 -45q0 -41 -68 -41h-149zM335 1579q-44 -8 -80 71q-21 54 -31.5 77.5t-11 22.5t-44.5 -83q-31 -56 -54 -75q-43 -41 -73 4q-9 12 11 57q6 11 18 32 q100 182 117 195q8 8 14 9l6 1q40 0 56 -26q6 -10 10 -19q8 -15 18 -34q83 -161 85 -185q5 -43 -41 -47z" glyph-name="Icircumflex" horiz-adv-x="395" unicode="Î"/>
<glyph d="M172 -18q-106 0 -107 39q-4 49 63 50q21 -1 48 0h-3q3 7 3 39q2 101 2 134q0 24 2 79l2 49q0 25 1 158q1 113 -3 205q-4 91 -6 205q-2 136 -2 140l2 203q1 42 0 66q14 67 -61 51q-33 -3 -44 24q-6 19 -2 35q8 25 152 26q18 0 59 1h46q62 0 62 -36q0 -43 -44 -46 q-21 -2 -36 0q-29 0 -28 3q-10 -12 -10 -180q0 -389 6 -467q4 -69 4 -597q-9 -81 4 -91q3 -2 49 -4q59 -4 58 -45q0 -41 -68 -41h-149zM34 1648q0 56 77 61q27 0 54 -32q29 -32 9 -65q-28 -42 -69 -38q-38 4 -54 22q-17 19 -17 52zM419 1634q0 -55 -75 -60q-26 -3 -56 32 q-29 32 -9 64q29 43 71 38q36 -4 52 -22q17 -19 17 -52z" glyph-name="Idieresis" horiz-adv-x="395" unicode="Ï"/>
<glyph d="M478 321q59 193 43 492q-16 283 -91 440q-74 151 -186 150q-14 -1 -14 -4l6 -334q0 -295 -13 -287q0 -10 180 -11q32 -3 39 -37q5 -33 -27 -41q-29 -5 -73 -8q-89 10 -97 6q-4 -8 -11 -297q-8 -294 3 -302q70 -36 135 32t106 201zM562 1181q55 -152 55 -487 q0 -172 -16 -277q-37 -230 -132 -352q-61 -78 -191 -82q-113 -4 -141 26q-9 17 5 616q2 61 2 54l-19 -3q-61 -6 -72 16q-11 19 1 42q15 35 55 31q36 -1 33 -3q2 7 -5 299q0 91 -10 243q-7 84 -11 141q0 51 125 44q119 0 202 -79q52 -50 119 -229z" glyph-name="Eth" horiz-adv-x="651" unicode="Ð"/>
<glyph d="M488 330l-9 592l-5 297q-2 185 -2 210q1 58 52 58q58 0 58 -85q0 -58 -3 -742q0 -32 5 -206q1 -24 0 -81q-1 -65 -1 -85q0 -15 3 -76q2 -47 1 -71q-5 -85 -8 -97q-14 -62 -64 -62q-41 0 -80 135q-187 673 -201 743q-33 166 -51 254v-532q0 -160 2 -293q4 -272 -1 -277 q-14 -25 -50 -29q-38 -3 -51 23q-9 15 -9 89l3 685v251q2 316 2 359q0 99 57 100q50 1 85 -119q2 -9 55 -232q53 -225 62 -258q7 -27 34 -120q28 -101 45 -163q19 -68 43 -162q25 -96 27 -103q0 -1 1 -3zM435 1707q-15 19 -5 40q13 28 53 21q35 -8 46 -39q25 -69 -25 -119 q-33 -33 -79 -33q-43 0 -82 22q-25 16 -53 45q-32 35 -34 36q-14 10 -19 9q-16 -7 -17 -26q-1 -8 4 -21q6 -17 6 -23q1 -37 -41 -44q-62 -5 -61 65q1 43 29 77q34 45 100 43q44 -2 83 -44q9 -9 22 -25q11 -15 17 -21q27 -26 55 -22q10 1 10 44q0 4 -9 15z" glyph-name="Ntilde" horiz-adv-x="662" unicode="Ñ"/>
<glyph d="M165 896q-6 -244 2 -347q13 -164 30 -250q30 -145 36 -163q24 -64 66 -66q53 -1 95 110q44 114 52 238q13 216 13 292q0 25 1 81q1 72 -6 208q-6 110 -25 181q-32 122 -44 147q-42 73 -88 75q-118 4 -132 -506zM543 360q-20 -135 -54 -218q-29 -71 -60 -103 q-58 -59 -132 -57q-86 3 -142 88q-27 42 -58 174q-16 68 -32 298q-11 177 -9 250q7 255 11 303q13 141 36 217q27 87 67 127q48 49 129 47q72 -1 118 -43q48 -45 76 -139q48 -166 54 -222q25 -224 19 -471q-17 -208 -23 -251zM378 1725q90 -156 55 -181q-38 -25 -111 75 q-16 21 -80 118q-34 56 -35 79q0 34 35 50q54 25 93 -47q7 -14 22 -47q13 -32 21 -47z" glyph-name="Ograve" horiz-adv-x="626" unicode="Ò"/>
<glyph d="M165 896q-6 -244 2 -347q13 -164 30 -250q30 -145 36 -163q24 -64 66 -66q53 -1 95 110q44 114 52 238q13 216 13 292q0 25 1 81q1 72 -6 208q-6 110 -25 181q-32 122 -44 147q-42 73 -88 75q-118 4 -132 -506zM543 360q-20 -135 -54 -218q-29 -71 -60 -103 q-58 -59 -132 -57q-86 3 -142 88q-27 42 -58 174q-16 68 -32 298q-11 177 -9 250q7 255 11 303q13 141 36 217q27 87 67 127q48 49 129 47q72 -1 118 -43q48 -45 76 -139q48 -166 54 -222q25 -224 19 -471q-17 -208 -23 -251zM320 1791q15 33 23 47q39 72 93 47 q35 -16 35 -50q-1 -23 -35 -79q-64 -97 -80 -118q-73 -101 -110 -75q-37 24 54 181q7 15 20 47z" glyph-name="Oacute" horiz-adv-x="626" unicode="Ó"/>
<glyph d="M165 896q-6 -244 2 -347q13 -164 30 -250q30 -145 36 -163q24 -64 66 -66q53 -1 95 110q44 114 52 238q13 216 13 292q0 25 1 81q1 72 -6 208q-6 110 -25 181q-32 122 -44 147q-42 73 -88 75q-118 4 -132 -506zM543 360q-20 -135 -54 -218q-29 -71 -60 -103 q-58 -59 -132 -57q-86 3 -142 88q-27 42 -58 174q-16 68 -32 298q-11 177 -9 250q7 255 11 303q13 141 36 217q27 87 67 127q48 49 129 47q72 -1 118 -43q48 -45 76 -139q48 -166 54 -222q25 -224 19 -471q-17 -208 -23 -251zM446 1568q-44 -8 -80 71q-21 54 -31.5 77.5 t-11 22.5t-44.5 -83q-31 -56 -54 -75q-43 -41 -73 4q-9 12 11 57q6 11 18 32q100 182 117 195q8 8 14 9l6 1q40 0 56 -26q6 -10 10 -19q8 -15 18 -34q83 -161 85 -185q5 -43 -41 -47z" glyph-name="Ocircumflex" horiz-adv-x="626" unicode="Ô"/>
<glyph d="M165 896q-6 -244 2 -347q13 -164 30 -250q30 -145 36 -163q24 -64 66 -66q53 -1 95 110q44 114 52 238q13 216 13 292q0 25 1 81q1 72 -6 208q-6 110 -25 181q-32 122 -44 147q-42 73 -88 75q-118 4 -132 -506zM543 360q-20 -135 -54 -218q-29 -71 -60 -103 q-58 -59 -132 -57q-86 3 -142 88q-27 42 -58 174q-16 68 -32 298q-11 177 -9 250q7 255 11 303q13 141 36 217q27 87 67 127q48 49 129 47q72 -1 118 -43q48 -45 76 -139q48 -166 54 -222q25 -224 19 -471q-17 -208 -23 -251zM416 1703q-15 19 -5 40q13 28 53 21 q35 -8 46 -39q25 -69 -25 -119q-33 -33 -79 -33q-43 0 -82 22q-25 16 -53 45q-32 35 -34 36q-14 10 -19 9q-16 -7 -17 -26q-1 -8 4 -21q6 -17 6 -23q1 -37 -41 -44q-62 -5 -61 65q1 43 29 77q34 45 100 43q44 -2 83 -44q9 -9 22 -25q11 -15 17 -21q27 -26 55 -22q10 1 10 44 q0 4 -9 15z" glyph-name="Otilde" horiz-adv-x="626" unicode="Õ"/>
<glyph d="M165 896q-6 -244 2 -347q13 -164 30 -250q30 -145 36 -163q24 -64 66 -66q53 -1 95 110q44 114 52 238q13 216 13 292q0 25 1 81q1 72 -6 208q-6 110 -25 181q-32 122 -44 147q-42 73 -88 75q-118 4 -132 -506zM543 360q-20 -135 -54 -218q-29 -71 -60 -103 q-58 -59 -132 -57q-86 3 -142 88q-27 42 -58 174q-16 68 -32 298q-11 177 -9 250q7 255 11 303q13 141 36 217q27 87 67 127q48 49 129 47q72 -1 118 -43q48 -45 76 -139q48 -166 54 -222q25 -224 19 -471q-17 -208 -23 -251zM116 1640q0 56 77 61q27 0 54 -32q29 -32 9 -65 q-28 -42 -69 -38q-38 4 -54 22q-17 19 -17 52zM501 1626q0 -55 -75 -60q-26 -3 -56 32q-29 32 -9 64q29 43 71 38q36 -4 52 -22q17 -19 17 -52z" glyph-name="Odieresis" horiz-adv-x="626" unicode="Ö"/>
<glyph d="M620 400q-14 -113 -150 20q-142 145 -143 145q2 1 -81 -97q-130 -132 -151 -126q-72 3 -32 76q19 37 55 76q131 125 129 125q10 16 -106 123q-83 82 -75 122q8 43 46 52q40 12 113 -67l112 -119q0 -25 90 74q99 114 159 106q41 -4 52 -42q5 -24 -54 -84 q-156 -141 -161 -151q0 -8 19 -27q61 -60 93 -89q89 -78 85 -117z" glyph-name="multiply" horiz-adv-x="676" unicode="×"/>
<glyph d="M459 709q0 25 1 82q1 72 -6 208q-1 96 -17 40q-37 -183 -52 -247q-45 -196 -125 -461q-36 -124 -38 -146q-2 -20 7 -45q28 -68 72 -70q51 -2 93 110q44 113 52 237q13 217 13 292zM167 549q5 -219 -2 -224q5 -1 175 710q56 218 55 252q-1 21 -10 40q-42 73 -86 75 q-120 3 -134 -506q-6 -244 2 -347zM547 1082q25 -225 19 -471q-17 -209 -23 -251q-20 -135 -54 -219q-29 -71 -60 -102q-58 -59 -131 -57q-87 2 -112 43q-3 13 -6 12q-2 -9 -3 -24q-2 -24 -10 -56q-11 -44 -53 -30q-64 19 -19 164q18 54 16 76q-2 26 -14 76q-16 69 -32 298 q-11 178 -9 251q7 256 11 302q13 141 36 218q27 87 67 127q48 49 130 47q71 -2 117 -44q6 -6 16 -22q27 97 33 105q25 32 61 15q31 -13 21 -51q-2 -10 -19 -72q-18 -67 -24 -92q-9 -32 -6 -40q40 -126 48 -203z" glyph-name="Oslash" horiz-adv-x="626" unicode="Ø"/>
<glyph d="M565 322q3 -109 -35 -201q-31 -77 -66 -102q-51 -37 -138 -37q-83 0 -148 71q-51 57 -82 157q-28 93 -32 271v456q0 126 2 270q0 42 1 90q1 42 1 46q0 13 -2 47q-2 35 -2 47q0 21 16 36q19 19 43 16q51 -4 49 -52q5 -42 5 -110q-12 -555 -7 -649q13 -289 13 -292 q14 -121 26 -165q19 -73 52 -104q43 -43 78 -40q46 3 66 29q44 61 57 189q5 53 0 218l-1 118q-5 189 -3 274v230q-8 273 -9 295q-1 19 12 37q18 24 45 24q47 0 58 -47q5 -26 3 -173q-1 -68 -4 -315q2 -361 2 -379v-255zM334 1725q90 -156 55 -181q-38 -25 -111 75 q-16 21 -80 118q-34 56 -35 79q0 34 35 50q54 25 93 -47q7 -14 22 -47q13 -32 21 -47z" glyph-name="Ugrave" horiz-adv-x="633" unicode="Ù"/>
<glyph d="M565 322q3 -109 -35 -201q-31 -77 -66 -102q-51 -37 -138 -37q-83 0 -148 71q-51 57 -82 157q-28 93 -32 271v456q0 126 2 270q0 42 1 90q1 42 1 46q0 13 -2 47q-2 35 -2 47q0 21 16 36q19 19 43 16q51 -4 49 -52q5 -42 5 -110q-12 -555 -7 -649q13 -289 13 -292 q14 -121 26 -165q19 -73 52 -104q43 -43 78 -40q46 3 66 29q44 61 57 189q5 53 0 218l-1 118q-5 189 -3 274v230q-8 273 -9 295q-1 19 12 37q18 24 45 24q47 0 58 -47q5 -26 3 -173q-1 -68 -4 -315q2 -361 2 -379v-255zM313 1791q15 33 23 47q39 72 93 47q35 -16 35 -50 q-1 -23 -35 -79q-64 -97 -80 -118q-73 -101 -110 -75q-37 24 54 181q7 15 20 47z" glyph-name="Uacute" horiz-adv-x="633" unicode="Ú"/>
<glyph d="M565 322q3 -109 -35 -201q-31 -77 -66 -102q-51 -37 -138 -37q-83 0 -148 71q-51 57 -82 157q-28 93 -32 271v456q0 126 2 270q0 42 1 90q1 42 1 46q0 13 -2 47q-2 35 -2 47q0 21 16 36q19 19 43 16q51 -4 49 -52q5 -42 5 -110q-12 -555 -7 -649q13 -289 13 -292 q14 -121 26 -165q19 -73 52 -104q43 -43 78 -40q46 3 66 29q44 61 57 189q5 53 0 218l-1 118q-5 189 -3 274v230q-8 273 -9 295q-1 19 12 37q18 24 45 24q47 0 58 -47q5 -26 3 -173q-1 -68 -4 -315q2 -361 2 -379v-255zM443 1568q-44 -8 -80 71q-21 54 -31.5 77.5t-11 22.5 t-44.5 -83q-31 -56 -54 -75q-43 -41 -73 4q-9 12 11 57q6 11 18 32q100 182 117 195q8 8 14 9l6 1q40 0 56 -26q6 -10 10 -19q8 -15 18 -34q83 -161 85 -185q5 -43 -41 -47z" glyph-name="Ucircumflex" horiz-adv-x="633" unicode="Û"/>
<glyph d="M565 322q3 -109 -35 -201q-31 -77 -66 -102q-51 -37 -138 -37q-83 0 -148 71q-51 57 -82 157q-28 93 -32 271v456q0 126 2 270q0 42 1 90q1 42 1 46q0 13 -2 47q-2 35 -2 47q0 21 16 36q19 19 43 16q51 -4 49 -52q5 -42 5 -110q-12 -555 -7 -649q13 -289 13 -292 q14 -121 26 -165q19 -73 52 -104q43 -43 78 -40q46 3 66 29q44 61 57 189q5 53 0 218l-1 118q-5 189 -3 274v230q-8 273 -9 295q-1 19 12 37q18 24 45 24q47 0 58 -47q5 -26 3 -173q-1 -68 -4 -315q2 -361 2 -379v-255zM125 1660q0 56 77 61q27 0 54 -32q29 -32 9 -65 q-28 -42 -69 -38q-38 4 -54 22q-17 19 -17 52zM510 1646q0 -55 -75 -60q-26 -3 -56 32q-29 32 -9 64q29 43 71 38q36 -4 52 -22q17 -19 17 -52z" glyph-name="Udieresis" horiz-adv-x="633" unicode="Ü"/>
<glyph d="M167 919q-29 161 -96 398q-27 108 -23 128q12 59 78 37q38 -14 99 -373q13 -95 25 -168l38 170q55 274 57 310q6 60 52 65q56 1 40 -96q-2 -17 -30 -135q-30 -127 -40 -178q-9 -48 -40 -172q-29 -113 -33 -137q-9 -55 -5 -350q1 -43 5 -217q4 -166 4 -170q0 -49 -48 -49 q-61 0 -61 53v34q-1 37 -2 67q-1 106 0 188q3 188 -1 423q-7 128 -19 172zM238 1769q14 31 21 44q37 70 90 44q33 -15 33 -47q-1 -22 -33 -74q-59 -90 -74 -110q-69 -94 -105 -70q-37 23 49 170q8 14 19 43z" glyph-name="Yacute" horiz-adv-x="494" unicode="Ý"/>
<glyph d="M403 498q46 22 41 219q-4 180 -24 219q-22 45 -121 52q-106 16 -109 8q-6 -14 -6 -257q3 -261 6 -265q4 -4 76 -2q89 3 137 26zM529 881q19 -272 -14 -398q-16 -43 -54 -57q-46 -29 -137 -39q-113 -9 -126 -19q-13 -25 2 -242q11 -139 -70 -144q-45 -3 -42 36q2 51 2 61 l-1 289q-15 248 -11 428q2 98 10 299q7 177 7 195q0 23 -2 85q-1 59 -1 68q0 38 41 45q37 4 55 -24q5 -8 8 -113q-3 -233 -4 -250q3 -18 66 -25q99 -6 138 -15q124 -29 133 -180z" glyph-name="Thorn" horiz-adv-x="590" unicode="Þ"/>
<glyph d="M356 768q41 -55 71 -158q38 -134 24 -253q-30 -212 -75 -264q-65 -78 -105 -79q-77 0 -104 35q-29 36 -13 67q17 37 58 14l7 -5q24 -13 36 -13q15 0 34 16q43 52 59 220q25 274 -158 454q-84 82 6 205q39 63 59 121q22 67 22 144q-1 102 -48 165q-22 29 -67 29 q-31 0 -41 -22q-12 -28 -12 -111v-8q2 -205 1 -265q-6 -198 0 -378q5 -168 -11 -472q-2 -27 -2 -32v-52q1 -67 -1 -84q-6 -50 -49 -50q-17 0 -32 10q-32 23 -25 158q1 19 1 24q0 28 12 384l-8 768q0 124 50 186q43 51 112 51q89 0 146 -69q85 -103 78 -256q-5 -131 -89 -267 q-35 -56 -35 -79q0 -36 36 -67q39 -35 63 -67z" glyph-name="germandbls" horiz-adv-x="596" unicode="ß"/>
<glyph d="M396 111q9 14 9 343q0 257 -42 301q-36 38 -86 37q-38 0 -69 -44q-35 -51 -44 -124q-11 -103 -2 -274q11 -201 47 -244q30 -38 104 -28q68 8 83 33zM518 60q22 -1 32 -17q6 -18 3 -30q-8 -30 -58 -31q-40 -1 -63 19q-14 16 -20 16q-4 0 -15 -5q-32 -17 -84 -22 q-131 -13 -186 64q-60 81 -66 250q-7 213 4 334q13 152 121 216q40 23 105 22q67 -3 90 -15.5t23 -8.5q-2 33 46 27q27 -3 38 -14q9 -10 8 -146q7 -183 6 -220q0 -21 -1 -135q-1 -109 -2 -156v-38t-1 -44q-1 -21 -1 -48q0 -7 2 -14q6 -6 19 -4zM330 1121q75 -131 43 -153 q-35 -26 -97 62q-13 17 -66 97q-28 46 -29 66q0 29 31 43q49 24 83 -40q6 -11 18 -38q10 -27 17 -37z" glyph-name="agrave" horiz-adv-x="579" unicode="à"/>
<glyph d="M282 1114l19 38q34 62 83 40q30 -15 30 -44q-1 -19 -29 -65q-51 -78 -64 -95q-62 -87 -97 -61q-32 22 43 149q5 12 15 38zM396 111q9 14 9 343q0 257 -42 301q-36 38 -86 37q-38 0 -69 -44q-35 -51 -44 -124q-11 -103 -2 -274q11 -201 47 -244q30 -38 104 -28q68 8 83 33 zM500 59q36 4 45 -17q11 -17 8 -29q-8 -30 -58 -31q-40 -1 -63 19q-11 20 -21 18q-3 -2 -14 -7q-32 -17 -84 -22q-131 -13 -186 64q-60 81 -66 250q-7 213 4 334q13 152 121 216q40 23 105 22q48 3 80.5 -12.5t32.5 -11.5q-2 34 46 27q27 -3 38 -14q9 -10 8 -146 q7 -183 6 -220q0 -21 -1 -135q-1 -109 -2 -156v-38t-1 -44q-1 -21 -1 -48q1 -2 0 -5q-2 -14 3 -14z" glyph-name="aacute" horiz-adv-x="579" unicode="á"/>
<glyph d="M397 943q-43 -8 -76 65q-19 49 -39 95q-8 0 -34 -80q-28 -50 -48 -68q-42 -39 -71 4q-9 13 10 53q5 10 16 29q90 165 107 176q12 17 34 19l14 -4q8 -4 23 -30q6 -10 10 -18q6 -13 15 -30q75 -145 77 -167q5 -40 -38 -44zM396 111q9 14 9 343q0 257 -42 301q-36 38 -86 37 q-38 0 -69 -44q-35 -51 -44 -124q-11 -103 -2 -274q11 -201 47 -244q30 -38 104 -28q68 8 83 33zM500 59q36 4 45 -17q11 -17 8 -29q-8 -30 -58 -31q-40 -1 -63 19q-11 20 -21 18q-3 -2 -14 -7q-32 -17 -84 -22q-131 -13 -186 64q-60 81 -66 250q-7 213 4 334 q13 152 121 216q40 23 105 22q48 3 80.5 -12.5t32.5 -11.5q-2 34 46 27q27 -3 38 -14q9 -10 8 -146q7 -183 6 -220q0 -21 -1 -135q-1 -109 -2 -156v-38t-1 -44q-1 -21 -1 -48q1 -2 0 -5q-2 -14 3 -14z" glyph-name="acircumflex" horiz-adv-x="579" unicode="â"/>
<glyph d="M396 111q9 14 9 343q0 257 -42 301q-36 38 -86 37q-38 0 -69 -44q-35 -51 -44 -124q-11 -103 -2 -274q11 -201 47 -244q30 -38 104 -28q68 8 83 33zM501 65q22 -2 44 -23q11 -17 8 -29q-8 -30 -58 -31q-40 -1 -63 19q-16 17 -21 18q-2 0 -14 -7q-32 -17 -84 -22 q-131 -13 -186 64q-60 81 -66 250q-7 213 4 334q13 152 121 216q40 23 105 22q55 0 82 -19q16 -11 21 -21q4 -3 2 8q-1 3 -1 21q7 22 54 13q16 -2 40 -12q6 -103 7 -147q7 -183 6 -220q0 -21 -1 -135q-1 -109 -2 -156v-38t-1 -44q-1 -21 -1 -48v-9q0 -4 4 -4zM382 1063 q-15 19 -5 40q13 28 53 21q35 -8 46 -39q25 -69 -25 -119q-33 -33 -79 -33q-43 0 -82 22q-25 16 -53 45q-32 35 -34 36q-14 10 -19 9q-16 -7 -17 -26q-1 -8 4 -21q6 -17 6 -23q1 -37 -41 -44q-62 -5 -61 65q1 43 29 77q34 45 100 43q44 -2 83 -44q9 -9 22 -25q11 -15 17 -21 q27 -26 55 -22q10 1 10 44q0 4 -9 15z" glyph-name="atilde" horiz-adv-x="579" unicode="ã"/>
<glyph d="M396 111q9 14 9 343q0 257 -42 301q-36 38 -86 37q-38 0 -69 -44q-35 -51 -44 -124q-11 -103 -2 -274q11 -201 47 -244q30 -38 104 -28q68 8 83 33zM501 65q22 -2 44 -23q11 -17 8 -29q-8 -30 -58 -31q-40 -1 -63 19q-16 17 -21 18q-2 0 -14 -7q-32 -17 -84 -22 q-131 -13 -186 64q-60 81 -66 250q-7 213 4 334q13 152 121 216q40 23 105 22q55 0 82 -19q16 -11 21 -21q4 -3 2 8q-1 3 -1 21q7 22 54 13q16 -2 40 -12q6 -103 7 -147q7 -183 6 -220q0 -21 -1 -135q-1 -109 -2 -156v-38t-1 -44q-1 -21 -1 -48v-9q0 -4 4 -4zM111 1051 q0 56 77 61q27 0 54 -32q29 -32 9 -65q-28 -42 -69 -38q-38 4 -54 22q-17 19 -17 52zM496 1037q0 -55 -75 -60q-26 -3 -56 32q-29 32 -9 64q29 43 71 38q36 -4 52 -22q17 -19 17 -52z" glyph-name="adieresis" horiz-adv-x="579" unicode="ä"/>
<glyph d="M273 1013q50 2 50 38q0 35 -14 52q-6 6 -30 8q-16 1 -33 -26q-17 -23 7 -50q19 -22 20 -22zM379 1148q34 -36 34 -102q0 -98 -139 -107q-41 -1 -95 58q-55 63 -17 119q52 76 124 69q68 -9 93 -37zM396 111q9 14 9 343q0 257 -42 301q-36 38 -86 37q-38 0 -69 -44 q-35 -51 -44 -124q-11 -103 -2 -274q11 -201 47 -244q30 -38 104 -28q68 8 83 33zM500 59q36 4 45 -17q11 -17 8 -29q-8 -30 -58 -31q-40 -1 -63 19q-11 20 -21 18q-3 -2 -14 -7q-32 -17 -84 -22q-131 -13 -186 64q-60 81 -66 250q-7 213 4 334q13 152 121 216q40 23 105 22 q48 3 80.5 -12.5t32.5 -11.5q-2 34 46 27q27 -3 38 -14q9 -10 8 -146q7 -183 6 -220q0 -21 -1 -135q-1 -109 -2 -156v-38t-1 -44q-1 -21 -1 -48q1 -2 0 -5q-2 -14 3 -14z" glyph-name="aring" horiz-adv-x="579" unicode="å"/>
<glyph d="M358 109q51 24 80 -22q22 -35 -9 -59q-69 -49 -157 -46q-81 3 -136 51q-82 68 -80 271q2 215 8 331q8 189 131 225q126 39 200 -13q36 -26 24 -59q-22 -58 -77 -15q-24 20 -78 18q-21 -2 -47 -21q-29 -23 -43 -59q-20 -50 -16 -306q4 -277 53 -306q43 -28 86 -17 q8 1 61 27zM355 -237q21 -37 -3 -82q-26 -55 -92 -60q-128 -9 -113 59q6 30 84 23q36 -2 37 1q11 24 -6 34q-13 8 -37 16q-30 9 -42 18q-20 16 5 66q18 38 44 71q56 78 81 5q10 -30 -19 -66q-17 -19 -15 -24q2 -2 27 -15q34 -22 49 -46z" glyph-name="ccedilla" horiz-adv-x="430" unicode="ç"/>
<glyph d="M244 791q-21 -2 -47 -21q-29 -23 -43 -59q-13 -30 -16 -214q0 -3 5 -3q130 -3 163 39q33 41 29 121q-3 72 -25 103q-25 36 -66 34zM338 109q51 24 80 -22q22 -35 -9 -59q-69 -49 -157 -46q-80 3 -135 50q-83 69 -81 272q2 217 8 331q8 189 130 225q113 35 183 -15 q34 -25 64 -87q22 -50 14 -144q-9 -100 -49 -142q-38 -40 -125 -55q-74 -11 -115 -6q-13 -3 -7 -14q2 -269 52 -298q43 -28 86 -17q9 1 61 27zM276 1112q82 -139 50 -161q-36 -27 -105 66q-14 18 -72 104q-31 50 -32 70q0 33 33 47q50 23 87 -43q7 -13 20 -42q12 -28 19 -41 z" glyph-name="egrave" horiz-adv-x="467" unicode="è"/>
<glyph d="M244 791q-21 -2 -47 -21q-29 -23 -43 -59q-13 -30 -16 -214q0 -3 4 -3q131 -3 164 39q33 41 29 121q-3 72 -25 103q-25 36 -66 34zM338 109q51 24 80 -22q22 -35 -9 -59q-69 -49 -157 -46q-80 3 -135 50q-83 69 -81 272q2 217 8 331q8 189 130 225q113 35 183 -15 q34 -25 64 -87q22 -50 14 -144q-9 -100 -49 -142q-38 -40 -125 -55q-73 -11 -109 -11q-16 1 -15 -16q4 -262 54 -291q43 -28 86 -17q9 1 61 27zM237 1147q13 29 20 41q35 66 86 43q32 -14 32 -46q-1 -21 -31 -70q-56 -85 -70 -103q-64 -90 -100 -67q-35 23 45 161 q7 13 18 41z" glyph-name="eacute" horiz-adv-x="467" unicode="é"/>
<glyph d="M356 947q-41 -7 -74 64q-18 48 -38 92q-6 -2 -7.5 -12t-25.5 -65q-27 -50 -47 -67q-40 -39 -69 4q-10 11 8 52q6 10 16 28q88 161 104 173q15 12 19 11l7 1q31 -3 46 -27q5 -9 9 -17q7 -13 16 -30q73 -142 75 -163q5 -40 -39 -44zM244 791q-21 -2 -47 -21 q-29 -23 -43 -59q-13 -30 -16 -214q0 -3 4 -3q131 -3 164 39q33 41 29 121q-3 72 -25 103q-25 36 -66 34zM338 109q51 24 80 -22q22 -35 -9 -59q-69 -49 -157 -46q-80 3 -135 50q-83 69 -81 272q2 217 8 331q8 189 130 225q113 35 183 -15q34 -25 64 -87q22 -50 14 -144 q-9 -100 -49 -142q-38 -40 -125 -55q-73 -11 -109 -11q-16 1 -15 -16q4 -262 54 -291q43 -28 86 -17q9 1 61 27z" glyph-name="ecircumflex" horiz-adv-x="467" unicode="ê"/>
<glyph d="M61 1047q0 56 77 61q27 0 54 -32q29 -32 9 -65q-28 -42 -69 -38q-38 4 -54 22q-17 19 -17 52zM446 1033q0 -55 -75 -60q-26 -3 -56 32q-29 32 -9 64q29 43 71 38q36 -4 52 -22q17 -19 17 -52zM244 791q-21 -2 -47 -21q-29 -23 -43 -59q-13 -30 -16 -214q0 -3 4 -3 q131 -3 164 39q33 41 29 121q-3 72 -25 103q-25 36 -66 34zM338 109q51 24 80 -22q22 -35 -9 -59q-69 -49 -157 -46q-80 3 -135 50q-83 69 -81 272q2 217 8 331q8 189 130 225q113 35 183 -15q34 -25 64 -87q22 -50 14 -144q-9 -100 -49 -142q-38 -40 -125 -55 q-73 -11 -109 -11q-16 1 -15 -16q4 -262 54 -291q43 -28 86 -17q9 1 61 27z" glyph-name="edieresis" horiz-adv-x="470" unicode="ë"/>
<glyph d="M122 492q-3 346 3 352q33 42 76 -5q23 -28 22 -77q-1 -18 5 -116q6 -96 1 -192q-5 -108 -5 -258q-1 -116 0 -156q2 -37 -33 -54q-57 -23 -60 32q-6 65 -8 166q-2 47 -1 149q1 121 0 159zM208 1082q78 -135 47 -157q-38 -25 -102 65q-14 17 -69 101q-29 49 -30 69 q0 30 32 45q50 23 86 -42q5 -12 18 -40q11 -28 18 -41z" glyph-name="igrave" horiz-adv-x="336" unicode="ì"/>
<glyph d="M125 492q-3 346 3 352q33 42 76 -5q23 -28 22 -77q-1 -18 5 -116q6 -96 1 -192q-5 -108 -5 -258q-1 -116 0 -156q2 -37 -33 -54q-57 -23 -60 32q-6 65 -8 166q-2 47 -1 149q1 121 0 159zM148 1151q13 29 20 41q35 67 85 42q32 -12 32 -45q0 -20 -30 -70q-56 -84 -70 -102 q-64 -90 -100 -67q-35 23 45 161q7 13 18 40z" glyph-name="iacute" horiz-adv-x="339" unicode="í"/>
<glyph d="M160 492q-3 346 3 352q33 42 76 -5q23 -28 22 -77q-1 -18 5 -116q6 -96 1 -192q-5 -108 -5 -258q-1 -116 0 -156q2 -37 -33 -54q-57 -23 -60 32q-6 65 -8 166q-2 47 -1 149q1 121 0 159zM311 907q-40 -8 -72 61q-18 46 -26 64.5t-39 -49.5q-26 -48 -45 -64q-42 -41 -69 4 q-8 12 9 49q5 10 15 27q84 155 100 166q15 11 33 12l10 -2q17 -12 27 -25l8 -16q8 -15 15 -29q70 -135 72 -156q5 -39 -38 -42z" glyph-name="icircumflex" horiz-adv-x="406" unicode="î"/>
<glyph d="M186 492q-3 346 3 352q33 42 76 -5q23 -28 22 -77q-1 -18 5 -116q6 -96 1 -192q-5 -108 -5 -258q-1 -116 0 -156q2 -37 -33 -54q-57 -23 -60 32q-6 65 -8 166q-2 47 -1 149q1 121 0 159zM44 1016q0 56 77 61q27 0 54 -32q29 -32 9 -65q-28 -42 -69 -38q-38 4 -54 22 q-17 19 -17 52zM429 1002q0 -55 -75 -60q-26 -3 -56 32q-29 32 -9 64q29 43 71 38q36 -4 52 -22q17 -19 17 -52z" glyph-name="idieresis" horiz-adv-x="223" unicode="ï"/>
<glyph d="M270 196q37 261 21 523q-3 50 -39 58q-40 10 -56 -6q-26 -24 -34 -66q-8 -46 -17 -184q-6 -96 5 -311q7 -119 62 -137q17 -6 34 24q14 26 24 99zM391 664q2 -38 -9 -270q-12 -266 -36 -321q-38 -85 -122 -91q-70 -3 -118 59q-57 74 -57 237q1 169 2 212q7 137 12 178 q10 75 14 89q17 52 67 85q49 33 112 25l21 -5q7 3 -11 107q-19 112 -7 118q-2 -3 -95 -98q-27 -24 -63 -1q-31 21 -15 40q15 23 45 56q66 72 65 76q2 8 -122 142q-32 38 -18 71q27 61 94 0q18 -17 78 -98l36 -52q-3 1 17 21q47 53 75 42q25 -7 35 -36q9 -28 -15 -46 q-58 -49 -56 -65l20 -69q23 -78 31 -128t20 -278z" glyph-name="eth" horiz-adv-x="442" unicode="ð"/>
<glyph d="M56 715q-2 59 -4 101q2 41 18 51q25 15 48 5q16 -4 22 -14l7 -15l7.5 12.5t122.5 13.5q137 0 197 -64q23 -25 41 -161q12 -90 9 -523q0 -12 2 -43q2 -33 2 -44q0 -23 -17 -36q-17 -17 -40 -14q-49 4 -49 55q1 125 0 254q5 136 1 189q-4 59 -7 180q-7 72 -32 96 q-33 33 -100 28t-89 -32q-22 -30 -37 -177q-13 -139 9 -535q0 -19 -9 -35q-15 -25 -43 -25q-45 0 -55 45q-6 24 -3 161q1 63 1 365q-3 134 -2 162zM392 1085q-15 19 -5 40q13 28 53 21q35 -8 46 -39q25 -69 -25 -119q-33 -33 -79 -33q-43 0 -82 22q-25 16 -53 45 q-32 35 -34 36q-14 10 -19 9q-16 -7 -17 -26q-1 -8 4 -21q6 -17 6 -23q1 -37 -41 -44q-62 -5 -61 65q1 43 29 77q34 45 100 43q44 -2 83 -44q9 -9 22 -25q11 -15 17 -21q27 -26 55 -22q10 1 10 44q0 4 -9 15z" glyph-name="ntilde" unicode="ñ"/>
<glyph d="M170 622q-16 -111 -15 -271q2 -200 38 -241q31 -34 70 -41q36 -8 62 16q58 51 49 355q-7 242 -35 288q-29 47 -65 46q-20 0 -53 -38q-42 -48 -51 -114zM97 66q-50 68 -52 267q-1 184 14 304q9 79 55 137t112 76q70 19 120 -5q31 -16 69 -60q61 -72 62 -310 q0 -238 -2 -273q-5 -97 -54 -159q-47 -61 -129 -61q-67 0 -96 9q-58 17 -99 75zM288 1094q75 -129 43 -151q-35 -26 -97 62q-14 18 -66 97q-28 47 -29 66q0 29 31 44q49 22 83 -41q6 -11 18 -38q10 -26 17 -39z" glyph-name="ograve" horiz-adv-x="521" unicode="ò"/>
<glyph d="M170 622q-16 -111 -15 -271q2 -200 38 -241q31 -34 70 -41q36 -8 62 16q58 51 49 355q-7 242 -35 288q-29 47 -65 46q-20 0 -53 -38q-42 -48 -51 -114zM97 66q-50 68 -52 267q-1 184 14 304q9 79 55 137t112 76q70 19 120 -5q31 -16 69 -60q61 -72 62 -310 q0 -238 -2 -273q-5 -97 -54 -159q-47 -61 -129 -61q-67 0 -96 9q-58 17 -99 75zM252 1147q13 29 20 41q35 66 86 43q32 -14 32 -46q-1 -21 -31 -70q-56 -85 -70 -103q-64 -90 -99 -68q-37 25 45 162q6 13 17 41z" glyph-name="oacute" horiz-adv-x="521" unicode="ó"/>
<glyph d="M170 622q-16 -111 -15 -271q2 -200 38 -241q31 -34 70 -41q36 -8 62 16q58 51 49 355q-7 242 -35 288q-29 47 -65 46q-20 0 -53 -38q-42 -48 -51 -114zM97 66q-50 68 -52 267q-1 184 14 304q9 79 55 137t112 76q70 19 120 -5q31 -16 69 -60q61 -72 62 -310 q0 -238 -2 -273q-5 -97 -54 -159q-47 -61 -129 -61q-67 0 -96 9q-58 17 -99 75zM375 916q-40 -7 -72 62q-18 46 -25.5 60.5t-9 13.5t-32.5 -59q-26 -48 -46 -65q-42 -38 -69 4q-8 12 9 50q5 10 16 29q84 154 100 166q12 16 30 18h6q22 -9 35 -33q5 -9 8 -16q8 -15 16 -29 q71 -137 72 -158q5 -38 -38 -43z" glyph-name="ocircumflex" horiz-adv-x="521" unicode="ô"/>
<glyph d="M170 622q-16 -111 -15 -271q2 -200 38 -241q31 -34 70 -41q36 -8 62 16q58 51 49 355q-7 242 -35 288q-29 47 -65 46q-20 0 -53 -38q-42 -48 -51 -114zM97 66q-50 68 -52 267q-1 184 14 304q9 79 55 137t112 76q70 19 120 -5q31 -16 69 -60q61 -72 62 -310 q0 -238 -2 -273q-5 -97 -54 -159q-47 -61 -129 -61q-67 0 -96 9q-58 17 -99 75zM365 1085q-14 19 -4 38q10 28 52 21q34 -8 44 -38q24 -66 -24 -114q-32 -32 -76 -32q-42 0 -79 21q-24 16 -51 42q-34 37 -35 39q-10 6 -15 4q-14 -5 -15 -23q-1 -8 4 -20q6 -16 6 -22 q1 -36 -40 -43q-61 -5 -60 63q1 40 28 74q33 43 96 41q41 -2 82 -43q7 -8 20 -23q10 -14 16 -20q25 -24 51 -21q9 1 9 42q0 3 -9 14z" glyph-name="otilde" horiz-adv-x="534" unicode="õ"/>
<glyph d="M170 622q-16 -111 -15 -271q2 -200 38 -241q31 -34 70 -41q36 -8 62 16q58 51 49 355q-7 242 -35 288q-29 47 -65 46q-20 0 -53 -38q-42 -48 -51 -114zM97 66q-50 68 -52 267q-1 184 14 304q9 79 55 137t112 76q70 19 120 -5q31 -16 69 -60q61 -72 62 -310 q0 -238 -2 -273q-5 -97 -54 -159q-47 -61 -129 -61q-67 0 -96 9q-58 17 -99 75zM87 1047q0 56 77 61q27 0 54 -32q29 -32 9 -65q-28 -42 -69 -38q-38 4 -54 22q-17 19 -17 52zM472 1033q0 -55 -75 -60q-26 -3 -56 32q-29 32 -9 64q29 43 71 38q36 -4 52 -22q17 -19 17 -52z " glyph-name="odieresis" horiz-adv-x="521" unicode="ö"/>
<glyph d="M312 558q-85 -6 -120 -6q-115 0 -140 37q-20 32 -6 57q17 30 118 28q163 -6 233 -1q117 6 144 -28q59 -80 -127 -83q-14 0 -102 -4zM302 890q60 0 65 -66q0 -16 -27 -40q-42 -35 -82 -9q-37 25 -35 56q2 29 19 42q22 17 60 17zM287 337q-60 1 -65 66q-1 16 30 43 q39 32 79 5q39 -24 34 -53q-2 -30 -19 -42q-21 -19 -59 -19z" glyph-name="divide" horiz-adv-x="618" unicode="÷"/>
<glyph d="M328 85q58 52 49 355q0 13 -1 67q10 81 -40 -67q-131 -347 -125 -344q-2 -11 44 -19q53 -10 73 8zM173 622q-12 -80 -30 -266q-3 -157 0 -163q6 -23 18 34q10 38 99 282q76 207 71 230q-2 14 -18 24q-17 12 -36 12q-20 -1 -53 -38q-41 -48 -51 -115zM450 720 q0 -5 15 -100q15 -101 15 -145q0 -239 -2 -272q-5 -96 -53 -159q-48 -62 -130 -62q-26 1 -82 17q-28 9 -33 3q-3 -7 -8 -18q-18 -44 -57 -49q-58 -6 -43 48q4 5 17 38q9 10 4 38q-6 21 -15 50q-24 72 -29 224q-5 155 13 305q9 79 55 136q46 59 113 76q56 16 108 -5 q13 -4 34 -16l9 18q20 47 28 52q54 36 71 -27q9 -35 -11 -89q-19 -45 -19 -63z" glyph-name="oslash" horiz-adv-x="533" unicode="ø"/>
<glyph d="M320 1081q78 -135 47 -157q-38 -25 -102 65q-14 17 -69 101q-29 49 -30 69q0 30 32 45q50 23 86 -42q5 -12 18 -40q11 -28 18 -41zM526 136q2 -118 -2 -125q-8 -23 -45 -28q-44 -10 -51 25q0 4 -2.5 4.5t-11.5 -4.5q-27 -19 -109 -26q-136 0 -202 57q-42 32 -45 171 q-3 87 -1 520q1 12 -1 44q-2 33 -2 44q0 20 16 35q19 17 40 14q50 -4 50 -61q3 -44 3 -90q-2 -301 -4 -349q4 -59 6 -180q2 -64 26 -88q40 -39 107 -34q66 5 88 33q23 29 37 176q13 133 -8 535q-1 19 10 37q14 23 41 23q46 0 56 -44q5 -25 3 -162q-1 -63 -2 -364 q4 -135 3 -163z" glyph-name="ugrave" unicode="ù"/>
<glyph d="M280 1132q14 30 21 43q36 68 87 43q33 -15 33 -46q-1 -22 -31 -73q-59 -88 -73 -106q-69 -95 -103 -69q-36 22 48 166q6 13 18 42zM526 136q2 -118 -2 -125q-8 -23 -45 -28q-44 -10 -51 25q0 4 -2.5 4.5t-11.5 -4.5q-27 -19 -109 -26q-136 0 -202 57q-42 32 -45 171 q-3 87 -1 520q1 12 -1 44q-2 33 -2 44q0 20 16 35q19 17 40 14q50 -4 50 -61q3 -44 3 -90q-2 -301 -4 -349q4 -59 6 -180q2 -64 26 -88q40 -39 107 -34q66 5 88 33q23 29 37 176q13 133 -8 535q-1 19 10 37q14 23 41 23q46 0 56 -44q5 -25 3 -162q-1 -63 -2 -364 q4 -135 3 -163z" glyph-name="uacute" unicode="ú"/>
<glyph d="M526 136q2 -118 -2 -125q-8 -23 -45 -28q-44 -10 -50 22q-1 7 -3.5 7t-11.5 -4q-27 -19 -109 -26q-136 0 -202 57q-42 32 -45 171q-3 87 -1 520q1 12 -1 44q-2 33 -2 44q0 20 16 35q19 17 40 14q50 -4 50 -61q3 -44 3 -90q-2 -301 -4 -349q4 -59 6 -180q2 -64 26 -88 q40 -39 107 -34q66 5 88 33q23 29 37 176q13 133 -8 535q-1 19 10 37q14 23 41 23q46 0 56 -44q5 -25 3 -162q-1 -63 -2 -364q4 -135 3 -163zM421 959q-44 -8 -80 71q-21 54 -31.5 77.5t-11 22.5t-44.5 -83q-31 -56 -54 -75q-43 -41 -73 4q-9 12 11 57q6 11 18 32 q100 182 117 195q8 8 14 9l6 1q40 0 56 -26q6 -10 10 -19q8 -15 18 -34q83 -161 85 -185q5 -43 -41 -47z" glyph-name="ucircumflex" unicode="û"/>
<glyph d="M526 136q2 -118 -2 -125q-8 -23 -45 -28q-44 -10 -50 22q-1 7 -3.5 7t-11.5 -4q-27 -19 -109 -26q-136 0 -202 57q-42 32 -45 171q-3 87 -1 520q1 12 -1 44q-2 33 -2 44q0 20 16 35q19 17 40 14q50 -4 50 -61q3 -44 3 -90q-2 -301 -4 -349q4 -59 6 -180q2 -64 26 -88 q40 -39 107 -34q66 5 88 33q23 29 37 176q13 133 -8 535q-1 19 10 37q14 23 41 23q46 0 56 -44q5 -25 3 -162q-1 -63 -2 -364q4 -135 3 -163zM93 1044q0 56 77 61q27 0 54 -32q29 -32 9 -65q-28 -42 -69 -38q-38 4 -54 22q-17 19 -17 52zM478 1030q0 -55 -75 -60 q-26 -3 -56 32q-29 32 -9 64q29 43 71 38q36 -4 52 -22q17 -19 17 -52z" glyph-name="udieresis" unicode="ü"/>
<glyph d="M133 605q-16 40 -34 76q-19 33 -28 57q-47 105 -45 122q12 59 77 37q33 -11 77 -132q62 -177 89 -237q4 4 10 38q27 82 40 136q2 7 41 138q15 59 69 59q67 0 54 -77q-3 -20 -26 -74q-26 -62 -39 -102q-15 -51 -53 -149q-38 -97 -44 -116q-11 -36 -32 -154 q-21 -123 -25 -137q-29 -108 -67 -108q-39 0 -50 24q-5 17 8 64q49 164 46 311q-1 56 -68 224zM266 1190q15 31 22 44q37 68 89 44q33 -15 33 -47q-1 -22 -33 -74q-59 -90 -74 -109q-68 -95 -104 -70q-37 23 49 169q6 14 18 43z" glyph-name="yacute" horiz-adv-x="517" unicode="ý"/>
<glyph d="M403 498q46 22 41 219q13 175 -7 214q-22 45 -125 52q-119 14 -123 11q-5 -13 -5 -255q3 -261 6 -265q4 -4 76 -2q89 3 137 26zM546 876q10 -291 -4 -380q-16 -53 -85 -83q-43 -16 -134 -26q-124 -4 -127 -17q-12 -10 4 -244q11 -139 -70 -144q-45 -3 -42 36q2 51 2 61 l-1 289q-15 248 -11 428q2 98 10 299q7 177 7 195q0 23 -2 85q-1 59 -1 68q0 38 41 45q37 4 55 -24q5 -8 8 -113q-3 -246 -4 -262q3 -10 66 -13q99 -6 155 -20q124 -29 133 -180z" glyph-name="thorn" horiz-adv-x="590" unicode="þ"/>
<glyph d="M57 492q-3 346 3 352q33 42 76 -5q23 -28 22 -77q-1 -18 5 -116q6 -96 1 -192q-5 -108 -5 -258q-1 -116 0 -156q2 -37 -33 -54q-57 -23 -60 32q-6 65 -8 166q-2 47 -1 149q1 121 0 159z" glyph-name="dotlessi" horiz-adv-x="223" unicode="ı"/>
<glyph d="M315 1493q-44 -8 -80 71q-21 54 -31.5 77.5t-11 22.5t-44.5 -83q-31 -56 -54 -75q-43 -41 -73 4q-9 12 11 57q6 11 18 32q100 182 117 195q8 8 14 9l6 1q40 0 56 -26q6 -10 10 -19q8 -15 18 -34q83 -161 85 -185q5 -43 -41 -47z" glyph-name="circumflex" horiz-adv-x="373" unicode="ˆ"/>
<glyph d="M209 1593q79 4 79 61q0 51 -21 75q-11 12 -49 15q-30 2 -57 -40q-26 -36 11 -76q30 -36 37 -35zM347 1786q46 -49 46 -140q0 -130 -185 -142q-51 -1 -123 77q-74 85 -23 161q69 100 162 91q91 -11 123 -47z" glyph-name="ring" horiz-adv-x="407" unicode="˚"/>
<glyph d="M322 1496q-15 19 -5 40q13 28 53 21q35 -8 46 -39q25 -69 -25 -119q-33 -33 -79 -33q-43 0 -82 22q-25 16 -53 45q-32 35 -34 36q-14 10 -19 9q-16 -7 -17 -26q-1 -8 4 -21q6 -17 6 -23q1 -37 -41 -44q-62 -5 -61 65q1 43 29 77q34 45 100 43q44 -2 83 -44q9 -9 22 -25 q11 -15 17 -21q27 -26 55 -22q10 1 10 44q0 4 -9 15z" glyph-name="tilde" horiz-adv-x="453" unicode="˜"/>
<glyph d="M108 1393q13 29 20 41q35 66 87 42q31 -14 31 -45q0 -21 -31 -70q-54 -85 -69 -104q-68 -92 -103 -65q-33 21 47 160q7 13 18 41zM275 1393q13 29 20 41q35 66 87 42q31 -14 31 -45q0 -21 -31 -70q-54 -85 -69 -104q-68 -92 -103 -65q-33 21 47 160q7 13 18 41z" glyph-name="hungarumlaut" horiz-adv-x="427" unicode="˝"/>
<glyph d="M319 66q161 12 161 -49q7 -45 -254 -33q-105 -3 -121 10q-7 11 -8 128q-1 24 1 152q2 145 2 193q-3 701 -17 877q-11 140 70 144q116 5 154 0h31q30 0 47 -2q82 -6 64 -50q-13 -31 -166 -27q-96 4 -95 -9l7 -297q0 -95 1 -190q2 -58 117 -44q34 -3 54 -43q27 -54 -33 -51 q-77 4 -93 1q-29 -5 -31 -5q-1 -1 -1 -7q-15 -539 -15 -583q1 -104 12 -114q7 -6 113 -1zM300 1725q90 -156 55 -181q-38 -25 -111 75q-16 21 -80 118q-34 56 -35 79q0 34 35 50q54 25 93 -47q7 -14 22 -47q13 -32 21 -47z" glyph-name="uni0400" horiz-adv-x="508" unicode="Ѐ"/>
<glyph d="M319 66q161 12 161 -49q7 -45 -254 -33q-105 -3 -121 10q-7 11 -8 128q-1 24 1 152q2 145 2 193q-3 701 -17 877q-11 140 70 144q116 5 154 0h31q30 0 47 -2q82 -6 64 -50q-13 -31 -166 -27q-96 4 -95 -9l7 -297q0 -95 1 -190q2 -58 117 -44q34 -3 54 -43q27 -54 -33 -51 q-77 4 -93 1q-29 -5 -31 -5q-1 -1 -1 -7q-15 -539 -15 -583q1 -104 12 -114q7 -6 113 -1zM89 1630q0 56 77 61q27 0 54 -32q29 -32 9 -65q-28 -42 -69 -38q-38 4 -54 22q-17 19 -17 52zM474 1616q0 -55 -75 -60q-26 -3 -56 32q-29 32 -9 64q29 43 71 38q36 -4 52 -22 q17 -19 17 -52z" glyph-name="uni0401" horiz-adv-x="508" unicode="Ё"/>
<glyph d="M154 301q-1 -107 62 -187q46 -60 107 -30q46 22 81 19q56 -8 39 -54q-12 -28 -69 -49q-49 -18 -94 -18q-113 0 -170 108q-45 93 -48 167q-6 84 -6 161q-2 719 -2 745q3 114 74 225q84 131 230 69q51 -21 64 -70q10 -53 -36 -57q-29 -4 -93 47q-31 12 -66 -22 q-46 -54 -59 -113q-7 -29 -16 -140q-19 -230 6 -262q9 -13 47 -12q17 1 38 3q23 3 27 3q36 -1 56 -30q22 -36 -21 -51q-22 -9 -66 -9q-42 -1 -48 -2q-36 -6 -36 -19q0 -363 -1 -422z" glyph-name="uni0404" horiz-adv-x="478" unicode="Є"/>
<glyph d="M452 349q0 -111 -56 -233q-24 -51 -76 -90q-51 -40 -104 -43q-36 -2 -73 1q-36 3 -64 20q-35 18 -35 43q0 43 55 43q15 0 32 -9q19 -9 26 -12q12 -3 41 4q33 7 50 24q38 38 48 67q41 115 41 202q0 65 -32 171q-27 93 -65 168q-40 81 -78 156q-96 186 -96 353 q0 141 80 221q29 30 82 44q45 14 74 7q77 -18 101 -61q16 -30 -17 -49q-25 -14 -65 13q-29 17 -37 21q-26 5 -70 -40q-32 -34 -32 -140q0 -165 85 -335q29 -57 56 -109q20 -35 27 -52q34 -72 74 -211q28 -112 28 -174z" glyph-name="uni0405" horiz-adv-x="516" unicode="Ѕ"/>
<glyph d="M177 -18q-106 0 -107 39q-4 49 63 50q21 -1 48 0h-3q3 7 3 39q2 101 2 134q0 24 2 79l2 49q0 25 1 158q1 113 -3 205q-4 91 -6 205q-2 136 -2 140l2 203q1 42 0 66q14 67 -61 51q-33 -3 -44 24q-6 19 -2 35q8 25 152 26q18 0 59 1h46q62 0 62 -36q0 -43 -44 -46 q-21 -2 -36 0q-29 0 -28 3q-10 -12 -10 -180q0 -389 6 -467q4 -69 4 -597q-9 -81 4 -91q3 -2 49 -4q59 -4 58 -45q0 -41 -68 -41h-149zM34 1615q0 56 77 61q27 0 54 -32q29 -32 9 -65q-28 -42 -69 -38q-38 4 -54 22q-17 19 -17 52zM419 1601q0 -55 -75 -60q-26 -3 -56 32 q-29 32 -9 64q29 43 71 38q36 -4 52 -22q17 -19 17 -52z" glyph-name="uni0407" horiz-adv-x="395" unicode="Ї"/>
<glyph d="M330 192q-22 -67 -69 -117q-88 -93 -149 -93q-70 0 -66 55q1 26 51 42q40 14 69 40q68 60 68 215q0 29 -1 112q0 85 -1 143q0 236 -6 322q-33 478 -42 484q-9 5 -81 -2q-26 0 -43 18q-11 14 -11 29q0 38 88 44q27 2 198 2q26 0 40 -14q27 -27 10 -56q-11 -25 -79 -23 q-26 10 -26 -2q0 -21 4 -61q0 -9 16 -236q1 -23 12 -124q10 -104 17 -202q4 -68 11 -364q4 -164 -10 -212z" glyph-name="uni0408" horiz-adv-x="453" unicode="Ј"/>
<glyph d="M440 35q-77 151 -153 359q-115 356 -108 365q-3 -2 2 -56q1 -16 3 -62q2 -40 2 -58q-1 -293 -7 -370q-2 -21 -1 -65v-70q-2 -96 -49 -96q-55 0 -55 112q0 22 3 106q4 89 5 173q1 65 4 184q4 110 4 129q0 22 -8 373q-8 348 -8 361q0 39 45 54q49 16 71 -18q4 -7 4 -222 q-17 -320 -12 -326q5 -4 75 167q28 55 65 130q38 78 50 102q81 169 124 169q55 0 55 -48q-1 -17 -29 -63q-31 -52 -35 -63q-9 -17 -40 -70q-30 -53 -35 -67q-151 -330 -167 -351q-7 -30 123 -358q41 -112 115 -262q66 -128 68 -146q9 -55 -42 -66q-40 -7 -69 53zM303 1779 q15 33 23 47q39 72 93 47q35 -16 35 -50q-1 -23 -35 -79q-64 -97 -80 -118q-73 -101 -110 -75q-37 24 54 181q7 15 20 47z" glyph-name="uni040C" unicode="Ќ"/>
<glyph d="M476 1100q-16 -79 -50 -246q-14 -72 -200 -738q-38 -134 -79 -134q-50 0 -64 62q-3 12 -7 96q-2 23 0 70q3 61 3 76q0 20 -1 84q-1 57 0 80q5 165 5 205q-3 679 -3 736q0 85 58 85q51 0 51 -57q1 -26 -1 -209l-6 -295l-11 -599q3 11 4 14q2 8 26 103q24 93 43 161 q16 61 45 162q26 92 33 118q9 33 62 257q53 223 55 231q34 118 83 117q58 0 58 -99q0 -43 2 -357v-249l3 -680q0 -73 -9 -89q-14 -25 -51 -22q-34 4 -51 31q-3 6 0 272q2 133 2 291v523zM380 1725q90 -156 55 -181q-38 -25 -111 75q-16 21 -80 118q-34 56 -35 79q0 34 35 50 q54 25 93 -47q7 -14 22 -47q13 -32 21 -47z" glyph-name="uni040D" horiz-adv-x="659" unicode="Ѝ"/>
<glyph d="M157 944q0 22 -86 362q-27 109 -23 128q12 59 77 37q39 -12 87 -341q20 -130 41 -152q1 -3 22 136q67 276 67 304q7 54 46 58q62 0 47 -96q-3 -17 -30 -134q-30 -126 -40 -177q-9 -48 -40 -170q-29 -112 -33 -137q-8 -53 -43 -296q0 -42 -24 -234q-24 -196 -26 -208 q-20 -41 -58 -40q-45 -8 -49 38q0 18 5 43q5 52 17 108q12 73 26 198q22 138 45 370q-1 72 -28 203zM425 1735q-2 -17 -78 -115q-38 -48 -106 -48q-65 0 -140 104q-14 21 -19 32q-23 42 -13 56q34 38 72 -3q38 -44 51 -63q31 -47 57 -46q18 1 54 60q43 72 78 69 q49 -4 44 -46z" glyph-name="uni040E" horiz-adv-x="491" unicode="Ў"/>
<glyph d="M410 1002q-45 337 -51 336q3 2 -26 -164q-3 -19 -24 -122q-22 -107 -35 -177q-13 -75 -30 -203q-14 -124 -19 -150q-9 -40 -7 -58q0 -4 12 -3q223 -7 223 2q3 199 -43 539zM602 44q0 -22 -8 -36q-17 -25 -49 -29q-74 -7 -68 39q27 170 -15 343q0 1 -83 15 q-92 17 -151 -11q-12 -6 -22 -58q-28 -129 -31 -202q-1 -18 -1 -42q1 -30 1 -34q-1 -49 -38 -49q-51 0 -72 35q-11 20 30 272q7 45 32 242q23 192 40 285q7 44 54 354q12 84 19 111q8 34 21 80q36 125 82 125q49 0 76 -76q39 -113 52 -194q4 -21 28 -153q18 -100 20 -126 q2 -22 12 -110q13 -114 21 -189q31 -296 50 -572v-20z" glyph-name="uni0410" horiz-adv-x="656" unicode="А"/>
<glyph d="M406 340q2 277 -112 378q-33 29 -72 38q-21 6 -17 -86q-2 -97 -10 -296q-7 -176 -7 -194q0 -13 2 -123q1 -4 41 5q62 12 95 54q79 104 80 224zM414 724q113 -152 96 -379q-13 -173 -88 -260q-58 -69 -114 -89q-34 -13 -191 -13v2q-7 1 -22 22q-5 8 -8 113q0 14 3 145 q3 142 3 196q-4 800 -10 874q-11 139 70 143q113 5 157 0q3 -1 22 0q27 1 43 0q72 -6 73 -47q0 -36 -155 -37q-101 0 -100 -12l1 -287q11 -212 8 -225q0 -14 48 -27q88 -17 164 -119z" glyph-name="uni0411" horiz-adv-x="571" unicode="Б"/>
<glyph d="M335 124q79 100 87 218q10 150 -41 272q-44 107 -115 156q-24 15 -55 17q-14 -14 -12 -37q5 -42 -11 -391q-26 -279 -9 -286q85 -38 156 51zM191 866q3 -2 18 5q35 14 66 58q38 59 56 114q19 57 21 126q2 103 -46 167q-44 59 -103 59q-2 0 -4 -10q-5 -17 -5 -64 q-7 -453 -3 -455zM402 66q-46 -57 -95 -73l-31 -10q69 0 -143 -1q-45 4 -53 31q-6 25 16 508l-13 810q0 86 4 106q13 50 72 50q146 0 223 -93q78 -97 72 -236q-5 -121 -73 -235q-70 -91 -58 -91q-3 4 25 -17q53 -32 83 -78q40 -49 69 -168q32 -136 19 -244 q-20 -146 -117 -259z" glyph-name="uni0412" horiz-adv-x="586" unicode="В"/>
<glyph d="M151 -18q-37 -4 -56 24q-5 8 -8 113q0 13 3 145q3 142 3 196q-3 794 -10 874q-11 139 70 143q114 5 157 0q3 -1 24 0q27 0 41 -1q72 -5 73 -46q0 -36 -155 -37q-101 0 -100 -12l1 -287q15 -246 11 -425q-2 -97 -10 -296q-7 -176 -7 -194q0 -23 1 -85q1 -58 1 -67 q0 -38 -39 -45z" glyph-name="uni0413" horiz-adv-x="422" unicode="Г"/>
<glyph d="M444 93h48q15 -1 19 7q12 11 6 151q-2 112 -2 143q-1 85 3 442l1 119q2 165 0 219q-8 194 -14 208q-2 6 -16 7q-7 2 -17 2h-23q-12 1 -25 0q-18 -2 -22 -2q-14 -2 -22 -13q-9 -10 -13 -209q-1 -54 -6 -246l-13 -417q-6 -124 -38 -256q-37 -137 -41 -159q1 -8 83 -2 q80 6 92 6zM768 -125q12 -60 -40 -60q-31 0 -41 7q-20 11 -24 47q-3 26 -13 65q-10 40 -23 61q-7 11 -74 11h-17h-12q-11 0 -29 1q-15 1 -28 1q-11 1 -36 1q-26 0 -92 -2q-60 -1 -73 -1h-19h-12q-55 0 -62 -11q-13 -20 -23 -61q-10 -39 -13 -65q-4 -36 -24 -47 q-10 -7 -41 -7q-52 0 -26 99q14 48 14 49q26 84 63 107q9 8 24 13q15 4 25 4q-1 0 18 50t32 143q26 131 34 248l7 612q-1 283 23 306q30 34 123 34q151 -1 178 -29q42 -45 36 -305l-1 -255q0 -19 -1 -548q4 -180 0 -221q-1 -11 0 -17q0 -14 4 -15q28 -3 51 -18 q38 -25 64 -109q19 -52 28 -88z" glyph-name="uni0414" horiz-adv-x="800" unicode="Д"/>
<glyph d="M319 66q161 12 161 -49q7 -45 -254 -33q-105 -3 -121 10q-7 11 -8 128q-1 24 1 152q2 145 2 193q-3 701 -17 877q-11 140 70 144q116 5 154 0h31q30 0 47 -2q82 -6 64 -50q-13 -31 -166 -27q-96 4 -95 -9l7 -297q0 -95 1 -190q2 -58 117 -44q34 -3 54 -43q27 -54 -33 -51 q-77 4 -93 1q-29 -5 -31 -5q-1 -1 -1 -7q-15 -539 -15 -583q1 -104 12 -114q7 -6 113 -1z" glyph-name="uni0415" horiz-adv-x="508" unicode="Е"/>
<glyph d="M706 1287q-43 -121 -50 -206q-8 -91 -7 -317q0 -42 5 -146q8 -144 11 -205q7 -195 59 -276q19 -38 95 -88q33 -20 40 -32q13 -28 -46 -35q-56 -3 -110 30q-55 35 -88 102q-43 86 -57 360q-3 223 -10 255q4 -3 -32 -2q-36 0 -33 3q-4 -8 6 -507q0 -129 -1 -150 q-1 -32 -2 -35q-8 -30 -46 -30q-42 0 -48 56q0 7 1 62q1 86 1 170q0 20 2 69q2 44 1 69q5 292 4 292q0 1 -33 -1q-35 -1 -38 -4q-3 -5 -7 -247q-11 -277 -53 -360q-32 -67 -88 -103q-54 -32 -110 -29q-61 7 -45 35q4 11 39 32q76 49 95 88q52 80 60 276q2 61 10 205 q6 104 6 146q0 226 -7 317q-8 85 -51 206q-10 32 -32 62q-33 42 -64 40q-50 -1 -75 13q-29 18 -14 42q33 46 133 26q89 -20 132 -122q73 -171 73 -462q0 -108 1 -109q0 6 24 7q36 3 38 4q1 1 -6 251l2 180q0 31 -2 86q-2 50 -2 54q7 103 55 96q41 -4 46 -54q0 -2 -2 -46 q-6 -119 -6 -186q0 -378 -2 -377q2 -2 39 0t40 3q-3 -3 -3 91q0 290 72 462q43 102 133 122q101 20 131 -26q19 -24 -15 -42q-23 -14 -73 -13q-31 2 -63 -40q-23 -30 -33 -62z" glyph-name="uni0416" horiz-adv-x="886" unicode="Ж"/>
<glyph d="M169 827q0 27 10 40q59 71 95 185q42 127 11 257q-8 38 -28 62q-18 22 -36 21q-40 -2 -61 -53q-27 -67 -40 -75q-72 -41 -72 35q0 62 56 120q52 55 107 56q82 0 123 -49q34 -40 48 -161q15 -136 -17 -239q-14 -43 -61 -125q-40 -72 -40 -75q0 -1 26 -23q41 -34 56 -67 q36 -73 43 -190q6 -97 6 -188q1 -118 -29 -212q-22 -68 -72 -115q-53 -49 -112 -49q-77 0 -122 40q-49 43 -40 62q15 39 64 20q15 -8 46 -28q35 -20 50 -21q22 -1 58 52q46 64 51 138q18 241 -5 359q-22 122 -72 156q-78 54 -43 67z" glyph-name="uni0417" horiz-adv-x="441" unicode="З"/>
<glyph d="M476 1100q-16 -79 -50 -246q-14 -72 -200 -738q-38 -134 -79 -134q-50 0 -64 62q-3 12 -7 96q-2 23 0 70q3 61 3 76q0 20 -1 84q-1 57 0 80q5 165 5 205q-3 679 -3 736q0 85 58 85q51 0 51 -57q1 -26 -1 -209l-6 -295l-11 -599q3 11 4 14q2 8 26 103q24 93 43 161 q16 61 45 162q26 92 33 118q9 33 62 257q53 223 55 231q34 118 83 117q58 0 58 -99q0 -43 2 -357v-249l3 -680q0 -73 -9 -89q-14 -25 -51 -22q-34 4 -51 31q-3 6 0 272q2 133 2 291v523z" glyph-name="uni0418" horiz-adv-x="659" unicode="И"/>
<glyph d="M476 1115zM476 1115q-13 -62 -58 -269q-14 -72 -192 -730q-38 -134 -79 -134q-50 0 -64 62q-3 12 -7 96q-2 23 0 70q3 61 3 76q0 20 -1 84q-1 57 0 80q5 165 5 205q-3 679 -3 736q0 85 58 85q51 0 51 -57q1 -26 -1 -209l-6 -295l-8 -587q1 1 1 2q2 8 26 103q24 93 43 161 q16 61 45 162q26 92 33 118q9 33 62 257q53 223 55 231q34 118 83 117q58 0 58 -99q0 -43 2 -357v-249l3 -680q0 -73 -9 -89q-14 -25 -51 -22q-34 4 -51 31q-3 6 0 272q2 133 2 291v538zM336 1659q22 49 42 102q36 79 80 71q46 -4 41 -47q-2 -24 -85 -185q-10 -19 -18 -34 q-4 -9 -10 -19q-16 -26 -44 -28h-12q-4 -1 -20 12q-17 13 -117 195q-12 21 -18 32q-20 45 -11 57q30 45 73 4q23 -19 54 -75q31 -59 45 -85z" glyph-name="uni0419" horiz-adv-x="659" unicode="Й"/>
<glyph d="M440 35q-77 151 -153 359q-115 356 -108 365q-3 -2 2 -56q1 -16 3 -62q2 -40 2 -58q-1 -293 -7 -370q-2 -21 -1 -65v-70q-2 -96 -49 -96q-55 0 -55 112q0 22 3 106q4 89 5 173q1 65 4 184q4 110 4 129q0 22 -8 373q-8 348 -8 361q0 39 45 54q49 16 71 -18q4 -7 4 -222 q-17 -320 -12 -326q5 -4 75 167q28 55 65 130q38 78 50 102q81 169 124 169q55 0 55 -48q-1 -17 -29 -63q-31 -52 -35 -63q-9 -17 -40 -70q-30 -53 -35 -67q-151 -330 -167 -351q-7 -30 123 -358q41 -112 115 -262q66 -128 68 -146q9 -55 -42 -66q-40 -7 -69 53z" glyph-name="uni041A" unicode="К"/>
<glyph d="M196 1141q-4 172 45 237q61 82 186 96q169 18 220 -47q26 -34 26 -166q0 -22 7 -138q7 -125 9 -175q5 -217 5 -418q0 -125 -2 -268q0 -40 -1 -90q-1 -40 -1 -45q0 -12 2 -46q2 -35 2 -47q0 -21 -16 -36q-19 -19 -42 -16q-50 4 -55 46q-2 25 0 115q12 551 8 644 q-13 284 -14 288q-3 30 -3 89q1 76 0 98q-3 108 -18 122q-17 16 -130 0q-63 -9 -98 -55q-21 -29 -24 -76q-1 -14 -1 -43q0 -28 -2 -43q-5 -53 0 -216l1 -117q5 -188 3 -272q0 -29 -2 -142q-1 -102 -2 -175q-1 -86 -51 -154q-34 -46 -70 -65q-76 -43 -111 -43q-101 0 -56 58 q12 13 50 32q42 21 60 34q77 54 74 159q-1 68 3 245q-1 359 -1 377z" glyph-name="uni041B" horiz-adv-x="768" unicode="Л"/>
<glyph d="M688 1349q-8 -116 -8 -149q0 -41 3 -160q3 -154 4 -246q4 -318 4 -348v-174v-135q0 -119 -12 -134q-20 -25 -54 -21q-33 7 -45 37v143l4 639q-3 147 2 229q-3 57 3 112q3 34 -6 20q-4 -12 -48 -158q-35 -92 -65 -170q-46 -104 -87 -104q-48 0 -146 270q-49 200 -58 184 q-1 -15 -1 -353l5 -610l10 -170q0 -68 -57 -68q-44 0 -55 49q-5 24 -5 86l6 291l-8 390l6 484q0 9 -2 168q5 36 51 36q41 0 54 -27q1 -4 31 -93q34 -97 52 -144q77 -197 99 -262q14 -41 17 -49q4 -14 9 -1q4 8 50 120q69 189 77 215q9 30 32 116q20 73 26 91q16 35 60 34 q42 -1 54 -31q4 -12 -2 -107z" glyph-name="uni041C" horiz-adv-x="728" unicode="М"/>
<glyph d="M431 1487q37 1 38 -10q13 -8 9 -150q-3 -66 -3 -146q0 -202 14 -622q6 -197 6 -511q0 -24 -9 -40q-16 -26 -51 -26q-53 0 -53 60q10 715 0 747q0 1 -61 -2q-131 0 -134 -9q-3 -6 3 -143q8 -162 3 -243q-3 -48 -3 -363q0 -47 -45 -47q-67 -2 -67 51q-1 30 5 121 q-1 41 0 132q1 107 0 140q-9 829 1 1010q4 46 48 50q48 4 52 -42q2 -52 2 -130q-18 -439 -4 -450q10 -7 104 -9q92 -2 97 5q10 14 1 581q0 46 47 46z" glyph-name="uni041D" horiz-adv-x="569" unicode="Н"/>
<glyph d="M165 896q-6 -244 2 -347q13 -164 30 -250q30 -145 36 -163q24 -64 66 -66q53 -1 95 110q44 114 52 238q13 216 13 292q0 25 1 81q1 72 -6 208q-6 110 -25 181q-32 122 -44 147q-42 73 -88 75q-118 4 -132 -506zM543 360q-20 -135 -54 -218q-29 -71 -60 -103 q-58 -59 -132 -57q-86 3 -142 88q-27 42 -58 174q-16 68 -32 298q-11 177 -9 250q7 255 11 303q13 141 36 217q27 87 67 127q48 49 129 47q72 -1 118 -43q48 -45 76 -139q48 -166 54 -222q25 -224 19 -471q-17 -208 -23 -251z" glyph-name="uni041E" horiz-adv-x="626" unicode="О"/>
<glyph d="M79 1143q-5 225 36 279q40 54 196 54q160 0 216 -61q24 -25 30 -85q1 -15 3 -48q2 -29 4 -42q1 -6 8 -290q6 -217 6 -418q0 -125 -2 -268q-1 -40 -2 -90v-45q0 -12 2 -47q2 -34 2 -46q0 -21 -16 -36q-19 -19 -43 -16q-55 4 -51 58q-3 47 -3 103q12 551 7 644 q-2 41 -5 155q-2 102 -4 132q-4 63 -7 192q-2 88 -17 102q-23 23 -134 16q-93 -6 -99 -14q-20 -27 -22 -96q-1 -17 0 -58q0 -33 -1 -48q-5 -54 0 -217l1 -117q4 -188 3 -272q-1 -53 -1 -229q9 -270 10 -292q1 -19 -12 -37q-18 -24 -45 -24q-48 0 -58 47q-6 26 -3 172 q1 67 4 312q-2 359 -2 377z" glyph-name="uni041F" horiz-adv-x="652" unicode="П"/>
<glyph d="M182 1116q-1 -213 -2 -237q10 5 21 10q29 16 54 35q74 63 83 174q8 96 -30 183q-26 62 -87 85q-27 10 -34 0q-5 -7 -5 -250zM188 188q5 -168 -2 -179q-20 -37 -68 -24q-38 10 -38 82l4 341l-1 401q0 163 -3 257q-2 54 -1 113q1 62 1 68q-2 46 -2 69q-4 61 2 123 q5 47 80 47q72 0 135 -36q49 -29 92 -88q52 -94 56 -178q5 -92 -24 -187q-17 -54 -67 -111q-45 -53 -82 -69q-85 -39 -85 -41q0 -19 3 -588z" glyph-name="uni0420" horiz-adv-x="492" unicode="Р"/>
<glyph d="M161 622q8 -145 10 -206q8 -197 60 -276q60 -91 150 -41q38 22 67 59q27 37 28 65q10 51 63 41q19 -4 39 -18q17 -26 5 -69q-11 -42 -43 -84q-84 -111 -221 -111q-133 0 -197 132q-59 119 -66 409q-2 91 1 216q3 148 3 153q0 293 73 466q29 65 99 104q88 50 185 10 q101 -42 128 -129q21 -70 -9 -99q-20 -20 -55 -4q-29 13 -28 38q2 44 -26 75q-33 34 -97 38q-82 4 -117 -95q-43 -122 -50 -207q-8 -92 -8 -320q0 -42 6 -147z" glyph-name="uni0421" horiz-adv-x="608" unicode="С"/>
<glyph d="M237 -16q-33 6 -31 62q1 42 3 65q2 99 2 134q0 23 2 78l2 49q0 26 1 159q1 113 -3 204t-6 205q-2 137 -2 140l2 203q0 118 -4 123q-1 2 -145 -6q-33 -3 -45 26q-5 16 -1 32q8 25 240 27q13 0 86 1q98 1 109 1q62 0 62 -36q0 -43 -42 -47q-21 -2 -126 0q-25 0 -26 -1 q-14 -9 -14 -175q0 -389 6 -468q9 -148 4 -575q-1 -25 3 -67q4 -55 4 -57q2 -55 -17 -69q-19 -15 -64 -8z" glyph-name="uni0422" horiz-adv-x="537" unicode="Т"/>
<glyph d="M157 944q0 22 -86 362q-27 109 -23 128q12 59 77 37q39 -12 87 -341q20 -130 41 -152q1 -3 22 136q67 276 67 304q7 54 46 58q62 0 47 -96q-3 -17 -30 -134q-30 -126 -40 -177q-9 -48 -40 -170q-29 -112 -33 -137q-8 -53 -43 -296q0 -42 -24 -234q-24 -196 -26 -208 q-20 -41 -58 -40q-45 -8 -49 38q0 18 5 43q5 52 17 108q12 73 26 198q22 138 45 370q-1 72 -28 203z" glyph-name="uni0423" horiz-adv-x="491" unicode="У"/>
<glyph d="M769 754q1 194 -6 272q-5 73 -40 175q-26 81 -87 78q-44 -3 -82 -26q-34 -22 -38 -39q-20 -99 2 -462q6 -94 6 -291q0 -184 1 -193q4 -34 77 -73q69 -36 108 27q40 66 46 233q3 52 8 175q5 88 5 124zM227 222q39 -64 107 -28q72 39 80 78q5 23 3 115q1 56 1 132 q1 114 -3 207q-3 93 -4 208q-2 137 -2 143q3 120 -3 141q-4 15 -32 35q-34 23 -76 26q-60 3 -86 -78q-34 -102 -39 -175q-6 -78 -6 -272q0 -36 5 -124q6 -123 8 -175q6 -167 47 -233zM875 858q0 -3 3 -130q2 -105 1 -183q-6 -246 -57 -348q-55 -113 -171 -113q-55 0 -111 34 q-17 8 -20.5 -2.5t-3.5 -84.5q5 -68 -48 -68q-35 0 -45 25q-5 8 -8 34q-2 21 -1 70q1 39 -7 34q-5 -2 -14 -5q-64 -37 -115 -37q-115 0 -170 114q-54 105 -54 660q0 249 62 396q25 57 86 90q78 44 163 9q46 -22 46 -18q0 9 2 73q1 46 4 55q23 72 80 18q14 -13 14 -64l4 -83 q6 -2 8 2q15 11 44 17q98 16 150 0q67 -21 97 -100q61 -170 61 -395z" glyph-name="uni0424" horiz-adv-x="934" unicode="Ф"/>
<glyph d="M110 1087q-13 63 -59 252q-23 96 -21 106q14 59 78 37q36 -12 90 -337q37 -232 29 -239q4 1 30 217q10 58 52 303q15 62 62 62q38 0 49 -41q7 -26 -2 -49q-21 -53 -63 -267q-59 -307 -59 -318q3 -97 126 -699q10 -51 10 -83q0 -48 -48 -48q-35 0 -51 17q-29 31 -56 343 q-37 374 -47 365q-3 -7 -43 -328q-16 -92 -28 -188q-1 -115 -16 -149q-10 -27 -20 -39q-17 -23 -53 -22q-48 4 -43 45q6 47 26 119q6 20 17 96q15 93 26 149q13 65 24 145q12 93 13 99q30 171 30 189q0 3 -53 263z" glyph-name="uni0425" horiz-adv-x="496" unicode="Х"/>
<glyph d="M563 74q75 -39 69 -195q-2 -46 -6 -59q-12 -31 -49 -31q-59 0 -52 82q9 97 -22 130q-15 17 -31 9q-62 -27 -131 -27q-149 0 -202 69q-26 33 -44 167q-10 79 -16 292q-5 221 -5 420q0 125 2 269q0 40 1 90q1 40 1 45q0 13 -2 47q-2 35 -2 47q0 21 17 37q17 15 39 15 q54 -4 56 -40q-2 -33 1 -121q-12 -554 -8 -647q14 -290 14 -291q2 -19 4 -89q2 -64 7 -100q12 -81 29 -98q28 -28 115 -22q76 5 91 24q14 21 31 194q5 53 0 217v118q-5 188 -4 273q1 53 1 229q-9 272 -10 294q-1 20 13 37q18 24 45 24q47 0 58 -47q5 -26 3 -173 q-2 -67 -4 -314q1 -359 1 -377l1 -255q-2 -127 -19 -194q-11 -40 -11 -39q-1 1 19 -10z" glyph-name="uni0426" horiz-adv-x="692" unicode="Ц"/>
<glyph d="M448 159q1 -93 0 -115q2 -65 -40 -65q-42 -20 -58 18q-2 6 -5 32q-2 20 -2 68q2 105 2 134q0 23 2 78q2 49 2 77q-1 23 -1 187q1 158 0 184q-1 12 -1 39v40q-5 19 -55 -9q-22 -11 -46 -10q-120 0 -171 53q-33 22 -50 143q-10 70 -8 344q0 10 -1 38q-2 28 -2 37 q0 19 15 33q16 13 34 13q61 -4 60 -39q2 -26 4 -94q-1 -153 2 -199q3 -51 5 -145q2 -55 22 -74q28 -28 84 -23q56 4 73 26q23 30 29 99q-5 263 -3 258q-1 132 -1 138q-2 40 29 51q32 19 62 -8q16 -16 14 -169q-1 -54 -2 -207q3 -117 2 -140q0 -8 1 -47v-48q1 -22 4 -698z " glyph-name="uni0427" horiz-adv-x="524" unicode="Ч"/>
<glyph d="M963 1434q5 -25 3 -172q-1 -68 -4 -314q2 -359 2 -377v-254q5 -227 -35 -281q-40 -53 -197 -53t-202 48q-2 3 -5 -1q-31 -47 -184 -47q-160 0 -216 60q-16 17 -38 178q0 6 -8 289q-5 221 -5 420q0 125 2 268q0 41 1 90q1 41 1 46q0 13 -2 47q-2 35 -2 46q0 22 18 39 q17 16 40 13q52 -4 52 -34q2 -35 3 -127q-12 -553 -8 -646q2 -42 5 -156q3 -102 5 -132q4 -64 7 -193q2 -88 17 -102q24 -24 135 -16q92 6 98 13q20 28 23 97v58q0 34 1 48q2 27 2 91v41q-1 25 -1 40q0 27 -1 46v15q-5 210 -5 408q0 105 1 225q-1 38 -3 153q-3 105 -3 113 q-1 22 13 41q27 30 67 15q36 -10 38 -58q1 -17 0 -101q-3 -135 -6 -283q0 -49 -1 -87q2 -271 2 -354q6 -195 7 -210q4 -63 7 -193q2 -88 14 -100q26 -26 137 -18q93 6 99 14q20 27 23 96v58q-1 34 1 49q5 53 0 217l-1 118q-5 188 -3 273q1 53 1 229q-9 271 -10 293 q-1 19 12 37q18 24 45 24q47 0 58 -47z" glyph-name="uni0428" horiz-adv-x="1043" unicode="Ш"/>
<glyph d="M965 1433q5 -26 3 -173q-1 -68 -4 -314q1 -360 1 -378l1 -255q3 -134 -14 -230q-1 -3 21 -24q36 -34 38 -68q12 -149 -2 -167q-60 -38 -93 21q-1 60 -5 128q-3 19 -16 32q-11 11 14 5q-45 -32 -176 -32q-176 3 -199 38l-11 10q-28 -48 -182 -48q-173 -3 -218 63 q-30 52 -35 128q-1 54 -8 338q-6 222 -6 421q0 125 2 269q0 40 1 90q1 40 1 45q0 13 -2 47q-2 35 -2 47q0 21 16 37q19 18 42 15q53 -4 47 -62q-2 -82 2 -218q-6 -435 -1 -529q1 -42 4 -156q3 -103 5 -133q4 -63 7 -193q2 -88 17 -102q24 -24 135 -16q93 6 98 12 q21 29 24 98v58q-1 34 1 50q2 25 2 90v41q-1 25 -1 40q-1 27 -1 46v15q-5 210 -5 409q0 105 1 226q-1 40 -2 151q0 106 -1 112q-3 67 69 60q39 -4 45 -56q1 -12 1 -104q-3 -135 -6 -284q0 -49 -1 -87q2 -272 2 -355q6 -195 7 -211q4 -62 7 -193q2 -88 14 -100 q26 -26 138 -18q93 6 98 12q21 29 23 98q1 17 0 58q0 34 1 49q5 54 0 218v118q-5 189 -4 274q1 53 1 229q-8 272 -10 294q0 20 13 37q18 24 45 24q47 0 58 -47z" glyph-name="uni0429" horiz-adv-x="1097" unicode="Щ"/>
<glyph d="M515 338q2 279 -108 379q-32 30 -71 38q-20 6 -23 4q-5 -3 -5 -34q0 -11 1 -33q1 -21 1 -29q-37 -481 -12 -463q2 -133 9 -145q3 -5 40 6q56 12 88 55q80 103 80 222zM524 721q112 -152 95 -378q-13 -172 -88 -259q-57 -68 -113 -88q-34 -13 -191 -13v2q-8 1 -21 22 q-5 8 -8 112q-1 14 2 145q3 141 3 195q0 58 -4 456q-5 403 -5 414q0 50 -10 56q-22 13 -96 13q-94 -1 -94 33q0 29 24 40q22 12 79 12q1 0 35 2t57 1q91 -1 108 -38q6 -16 7 -72q0 -15 1 -285q-2 -234 5 -253q1 -1 60 -6q110 -28 154 -111z" glyph-name="uni042A" horiz-adv-x="660" unicode="Ъ"/>
<glyph d="M521 13q-5 8 -7 33q-3 21 -2 69q2 96 2 133q0 23 2 77q0 54 1 78q-1 60 1 129q1 112 -2 203q-4 90 -6 203q-2 135 -2 139l2 201q0 82 1 122q1 45 4 55q23 69 80 17q13 -13 13 -62q0 -8 -2 -73q-2 -66 -2 -114q0 -386 5 -464q2 -33 4 -592q-1 -66 1 -113q2 -66 -48 -66 q-35 0 -45 25zM397 340q2 279 -108 380q-33 31 -71 39q-21 5 -26 2q-3 -2 -4 -33q0 -11 2 -33q1 -21 1 -29q-11 -407 -12 -486q1 -112 9 -124q3 -5 40 5q57 12 89 55q80 104 80 224zM405 724q113 -152 96 -379q-12 -173 -88 -260q-57 -69 -114 -89q-33 -13 -191 -13v2 q-8 1 -21 22q-5 8 -8 113q-1 14 2 145q3 142 3 196q0 58 -5 458q-4 404 -4 416q0 13 -1 52v49q0 45 43 55q52 13 66 -37q1 -3 1 -72q1 -15 1 -287q-1 -234 3 -246q-6 0 52 -6q90 -17 165 -119z" glyph-name="uni042B" horiz-adv-x="690" unicode="Ы"/>
<glyph d="M397 340q2 279 -108 380q-33 31 -71 39q-21 5 -26 2q-3 -2 -4 -33q0 -11 2 -33q1 -21 1 -29q-11 -404 -12 -486q1 -112 9 -124q3 -5 40 5q57 12 89 55q80 104 80 224zM405 724q113 -152 96 -379q-12 -173 -88 -260q-57 -69 -114 -89q-33 -13 -191 -13v2q-8 1 -21 22 q-5 8 -8 113q-1 47 2 145q3 142 3 196q0 58 -5 458q-4 404 -4 416q0 13 -1 52v49q0 45 43 55q52 13 66 -37q1 -3 1 -72q1 -15 1 -287q-1 -227 0 -235q2 -9 54 -17q91 -17 166 -119z" glyph-name="uni042C" horiz-adv-x="542" unicode="Ь"/>
<glyph d="M323 723q0 13 -36 19q-6 1 -48 2q-44 0 -66 9q-43 15 -21 51q20 29 56 30q4 0 27 -3q21 -2 38 -3q38 -1 47 12q25 32 6 262q-9 111 -16 140q-13 59 -60 114q-23 39 -67 20q-48 -19 -69 -83q-131 -9 -61 112q21 31 67 52q146 62 230 -69q71 -111 74 -225q0 -26 -2 -745 q3 -87 -1 -128q-3 -109 -53 -200q-57 -108 -170 -108q-45 0 -94 18q-57 21 -69 49q-17 46 39 54q35 3 81 -19q61 -30 107 30q63 80 62 187q-1 59 -1 422z" glyph-name="uni042D" horiz-adv-x="478" unicode="Э"/>
<glyph d="M642 708q1 17 1 81q1 73 -5 207q-5 109 -23 178q-30 122 -41 147q-39 72 -80 74q-108 3 -121 -502q-6 -243 1 -345q11 -163 27 -248q28 -144 34 -162q22 -63 59 -65q47 -1 87 109q41 113 48 236q13 217 13 290zM729 1078q22 -222 16 -468q-16 -207 -22 -249 q-18 -133 -50 -217q-27 -70 -56 -101q-55 -60 -125 -58q-81 3 -133 88q-26 41 -54 172q-15 67 -29 296q-6 108 -7 137q-1 11 -10 11q-7 -2 -79 -1q-12 2 -1 -527v-112q5 -67 -47 -67q-36 0 -45 26q-5 6 -8 32q-2 21 -1 69q2 99 2 133q0 23 2 78q0 34 1 77q0 26 1 129 q1 112 -3 203q-3 90 -5 203q-2 136 -2 139l2 202q0 81 1 121q1 46 5 57q22 67 79 16q13 -13 13 -63q0 -7 -2 -73t-2 -113q1 -376 -3 -420q-2 -28 22 -29h76q2 3 3 20q6 253 10 301q12 139 34 217q25 85 61 123q47 50 123 49q68 -2 111 -44q45 -44 72 -137q44 -166 50 -220z " glyph-name="uni042E" horiz-adv-x="805" unicode="Ю"/>
<glyph d="M330 1388q6 -41 10 -269q4 -232 -3 -238q-15 -11 -89 48l-4 3q-75 61 -84 173q-7 100 33 191q28 65 95 89q14 5 26 5q8 0 16 -2zM426 1437q-5 54 -80 54q-69 0 -130 -35q-50 -29 -95 -91q-53 -95 -57 -182q-4 -93 25 -191q17 -54 66 -110q44 -49 81 -66q32 -14 37 -26 q1 -12 -39 -147q-32 -111 -48 -171q-40 -150 -113 -359q-10 -27 -12 -35q-17 -52 1 -75q15 -22 51 -22q32 0 56 62q6 13 25 82q22 81 32 112q29 89 50 186q34 154 35 156q7 38 16 70q7 34 13 29q5 6 -17 -244q-8 -154 -9 -197q-3 -69 -2 -74q0 -9 -1 -31q-2 -104 9 -123 q18 -28 50 -28q7 0 15 2q41 11 41 92l-12 340l6 402q0 106 4 190q1 32 2 57q3 61 1 139q-1 30 -1 41q1 41 2 68q4 63 -2 125z" glyph-name="uni042F" horiz-adv-x="506" unicode="Я"/>
<glyph d="M396 111q9 14 9 343q0 257 -42 301q-36 38 -86 37q-38 0 -69 -44q-35 -51 -44 -124q-11 -103 -2 -274q11 -201 47 -244q30 -38 104 -28q68 8 83 33zM501 65q22 -2 44 -23q11 -17 8 -29q-8 -30 -58 -31q-40 -1 -63 19q-16 17 -21 18q-2 0 -14 -7q-32 -17 -84 -22 q-131 -13 -186 64q-60 81 -66 250q-7 213 4 334q13 152 121 216q40 23 105 22q55 0 82 -19q16 -11 21 -21q4 -3 2 8q-1 3 -1 21q7 22 54 13q16 -2 40 -12q6 -103 7 -147q7 -183 6 -220q0 -21 -1 -135q-1 -109 -2 -156v-38t-1 -44q-1 -21 -1 -48v-9q0 -4 4 -4z" glyph-name="uni0430" horiz-adv-x="579" unicode="а"/>
<glyph d="M395 222q46 383 -84 495q-39 33 -87 33q-35 1 -48 -12q-21 -17 -13 -310q8 -292 27 -321q17 -24 53 -31q39 -6 74 17q68 46 78 129zM440 753q55 -59 69 -278q13 -174 -2 -274q-14 -97 -104 -169q-41 -31 -117 -47q-108 -20 -178 62q-49 56 -50 213q-4 552 8 614 q26 131 116 208q36 31 105 58q47 18 68 44q27 40 62 22q19 -10 21 -38q5 -58 -29 -80q-36 -15 -73 -26q-53 -19 -97 -62q-23 -24 -53 -96q-12 -25 -16 -63q-7 -17 76 -6q123 -3 194 -82z" glyph-name="uni0431" horiz-adv-x="576" unicode="б"/>
<glyph d="M314 95q61 48 68 106q16 157 -150 226q-20 10 -45 7q-11 -1 -10 -32q2 -11 -12 -195q-17 -141 -13 -139q94 -26 162 27zM168 512q22 -9 73 39q40 33 57 62q16 33 17 71q2 58 -38 91q-42 34 -101 34q-2 0 -3 -2q-3 -7 -3 -34q-4 -259 -2 -261zM380 25q-26 -19 -109 -38 q-28 -4 -100 -4q-101 0 -111 22q-6 16 14 300l-12 474q0 52 4 64q14 35 69 35q135 0 208 -56q77 -58 72 -145q-5 -73 -72 -144q-32 -19 -46 -33q-7 -7 12 -14q52 -20 84 -48q37 -31 65 -102q31 -81 18 -147q-26 -113 -96 -164z" glyph-name="uni0432" horiz-adv-x="523" unicode="в"/>
<glyph d="M125 -18q-37 -4 -55 24q-5 8 -8 113q0 13 3 111q3 108 2 163q-1 306 -4 342q-11 138 70 143q114 5 157 0q3 -1 24 -1q25 1 41 0q72 -5 73 -47q0 -36 -155 -36q-101 -1 -100 -13q-2 -238 -5 -326q-2 -41 2 -119q3 -67 -1 -99q-4 -39 -4 -210q0 -38 -40 -45z" glyph-name="uni0433" horiz-adv-x="442" unicode="г"/>
<glyph d="M355 90q13 -1 16 7q10 11 5 166q0 40 1 159q1 114 1 130q-7 196 -12 210q-2 6 -13 7q-6 2 -14 2h-20q-10 1 -15 0q-15 -2 -28 -2q-17 -6 -21 -18q-13 -79 -13 -342q-2 -109 -63 -320q1 -8 64 0q62 1 72 1h40zM524 -140q-25 0 -34 7q-9 6 -16 41q-4 23 -3 51q0 26 -3 32 q-6 11 -62 11h-265q-46 0 -52 -11q-13 -23 -18 -75q-3 -37 -20 -48q-8 -7 -34 -7q-43 0 -22 100q20 82 52 106q8 8 20 13q13 4 18 4q5 2 7 9q44 146 59 278q7 434 27 457q25 35 108 33q126 -1 149 -30q35 -45 30 -307q0 -377 -2 -405q-1 -11 0 -17q0 -14 3 -15q24 -3 43 -18 q14 -11 39 -70q10 -46 9 -77q5 -62 -33 -62z" glyph-name="uni0434" horiz-adv-x="578" unicode="д"/>
<glyph d="M244 791q-21 -2 -47 -21q-29 -23 -43 -59q-13 -30 -16 -214q0 -3 -6 -3q141 -3 174 39q33 41 29 121q-3 72 -25 103q-25 36 -66 34zM338 109q51 24 80 -22q22 -35 -9 -59q-69 -49 -157 -46q-80 3 -135 50q-83 69 -81 272q2 217 8 331q8 189 130 225q113 35 183 -15 q34 -25 64 -87q22 -50 14 -144q-9 -100 -49 -142q-38 -40 -125 -55q-74 -11 -113 -7q-9 2 -11 -6q4 -276 54 -305q43 -28 86 -17q9 1 61 27z" glyph-name="uni0435" horiz-adv-x="467" unicode="е"/>
<glyph d="M558 781q-33 -72 -39 -123q-7 -55 -6 -154q0 -8 13 -252q7 -116 48 -164q9 -15 58 -55q21 -19 14 -31q-8 -16 -49 -20q-51 -2 -80 22q-13 13 -46 61q-37 55 -48 236q-8 147 -8 148q-8 4 -20 6q-16 -2 -16 -6q-4 -2 8 -313q0 -95 -1 -108q-1 -46 -50 -46q-43 0 -48 39 q-1 5 0 40q1 67 1 119q1 13 2 42q1 27 1 43q4 176 2 182q-1 1 -19 1q-24 1 -30 -3q0 1 -2 -144q-8 -183 -44 -236q-59 -86 -134 -83q-44 0 -51 23q0 24 31 41q35 22 48 42q42 48 48 164q13 244 13 252q1 99 -6 154q-4 42 -35 110q-20 49 -75 79q-6 15 -5 25q3 17 31 23 q39 7 78 -21q30 -23 62 -76q47 -83 47 -247q-2 -25 1 -29q5 -1 16 -1q18 1 21 4q4 10 0 105l-2 112q0 19 -2 53q-1 30 -1 33q5 69 53 65q50 -4 48 -67q-3 -35 -3 -114q-17 -186 -10 -184q42 -10 43 -4t1 27q0 167 55 262q30 52 57 70q31 21 74 6q39 -21 1 -59 q-39 -38 -45 -49z" glyph-name="uni0436" horiz-adv-x="664" unicode="ж"/>
<glyph d="M198 431q-25 15 -24 34q3 8 38 49q13 15 40 77q13 33 19 64q2 21 0 28q-8 39 -23 66q-19 25 -38 27q-40 7 -58 -31q-31 -52 -44 -59q-73 -39 -69 35q2 64 65 113q47 36 106 34q81 -2 127 -76q61 -98 10 -218q-15 -34 -40 -74q-17 -23 -10 -40q6 -5 17 -15q46 -35 60 -67 q53 -122 8 -248q-23 -66 -79 -108q-57 -42 -116 -40q-75 3 -119 45q-46 44 -38 63q18 34 61 23q16 -8 48 -31q33 -21 48 -22q27 -2 67 46q52 63 49 133q-10 108 -67 160q-8 6 -38 32z" glyph-name="uni0437" horiz-adv-x="471" unicode="з"/>
<glyph d="M370 568q-34 -90 -69 -191q-7 -19 -45 -132q-28 -84 -43 -125q-49 -131 -97 -131q-43 0 -54 52q-1 12 -6 107q-2 23 0 81q3 75 3 87q3 455 3 469q0 46 4 59q9 28 43 28q48 0 49 -57q0 -26 -2 -209l-8 -287q-10 -99 -6 -110q3 2 7 21q11 40 26 72q8 22 40 123 q32 100 43 128q16 40 41 111q23 69 31 87q4 8 12 32q10 25 16 37q24 55 60 55q40 0 44 -44q1 -15 0 -58q0 -43 11 -353l-4 -327q0 -76 -6 -89q-11 -22 -41 -22t-46 29q-3 5 0 272q2 121 -3 213q-1 39 -3 72z" glyph-name="uni0438" horiz-adv-x="527" unicode="и"/>
<glyph d="M438 1065q-4 -16 -87 -116q-9 -9 -16 -19l-16 -16q-14 -14 -21 -16l-13 -2q-19 1 -32 11q-19 7 -119 118q-13 13 -18 21q-26 32 -9 46q27 24 64 3q24 -13 57 -47q42 -43 54.5 -34.5t27.5 28.5q5 7 8 14q37 50 77 46q49 -3 43 -37zM158 815q0 -26 -2 -209l-8 -287 q-5 -88 -6 -102q1 -11 7 10q11 43 26 75q8 22 40 123q32 100 43 128q16 40 41 111q23 69 31 87q4 8 12 32q10 25 16 37q24 55 60 55q40 0 44 -44q1 -15 0 -58q0 -43 11 -353l-4 -327q0 -76 -6 -89q-11 -22 -41 -22t-46 29q-3 5 0 272q2 121 -3 213q-1 40 -3 73q0 5 -2 6 q-2 0 -3 -5q-24 -77 -64 -193q-7 -19 -45 -132q-28 -84 -43 -125q-49 -131 -97 -131q-43 0 -54 52q-1 12 -6 107q-2 23 0 81q3 75 3 87q3 455 3 469q0 46 4 59q9 28 43 28q48 0 49 -57z" glyph-name="uni0439" horiz-adv-x="527" unicode="й"/>
<glyph d="M353 15q-6 7 -35 68q-36 77 -68 135q-18 32 -39 76q-30 59 -31 61q-16 41 -19 38t-2 -61q-8 -171 -7 -216q0 -8 1 -38q1 -24 1 -38q-2 -58 -45 -58q-55 0 -55 73q0 140 1 154q0 38 4 108q4 65 4 76q0 4 -4 217q-3 201 -3 210q0 40 42 48q34 5 48 -9q13 -13 13 -143 q-6 -216 -11 -216q6 0 17 26q5 9 23 40q17 31 29 50q24 37 53 85q24 39 37 59q10 14 25 39q14 22 21 30q25 39 62 39q55 0 55 -38q-7 -28 -44 -77q-8 -8 -35 -48q-29 -41 -35 -50q-122 -154 -120 -200q2 -36 102 -192q104 -164 124 -232q12 -43 -44 -49q-34 -4 -65 33z" glyph-name="uni043A" horiz-adv-x="494" unicode="к"/>
<glyph d="M136 812q38 52 117 61q161 16 193 -26q17 -22 17 -117q0 -105 1 -173q10 -375 9 -483v-50q0 -15 -16 -30q-16 -12 -33 -12q-40 3 -49 36q-4 17 -4 66q-2 506 -5 530q-2 21 -5 119q-2 58 -15 70q-3 3 -80 -3q-27 -2 -51 -34q-14 -20 -18 -130q-1 -20 2 -237q2 -224 1 -262 q-1 -96 -52 -124q-41 -24 -65 -24q-77 0 -42 45q6 7 27 21q10 6 16 13q26 26 24 88q-1 40 -7 500q-2 106 35 156z" glyph-name="uni043B" horiz-adv-x="528" unicode="л"/>
<glyph d="M578 752q-7 -112 -7 -144q0 -40 5 -243q4 -203 4 -231q0 -114 -9 -129q-52 -76 -81 13q-5 15 -6 224q-3 154 2 189q3 44 7 116q-8 15 -39 -166q-7 -26 -32 -146q-20 -95 -32 -127q-5 -12 -13 -37q-8 -24 -12 -34q-19 -47 -52 -47q-46 0 -139 414q-36 174 -37 144 q-1 -13 12 -297l6 -161q2 -25 -2 -72q-3 -33 -43 -33q-54 0 -54 130l-2 104l5 470q0 3 -2 162q6 35 48 35q36 0 48 -25q7 -17 59 -223q9 -36 35 -152q22 -94 32 -129q3 -12 34 -158q5 -31 -1 -41q11 32 64 256q8 35 25 123q16 81 25 115q8 29 28 112q16 72 21 88 q13 37 54 34q40 0 50 -31q4 -11 -1 -103z" glyph-name="uni043C" horiz-adv-x="637" unicode="м"/>
<glyph d="M404 885q50 0 49 -90q0 -17 3 -91q3 -79 3 -99q1 -99 6 -267q3 -96 3 -290q0 -30 -7 -39q-22 -27 -45 -27q-54 0 -54 59q7 364 -3 395q0 1 -61 -2q-125 0 -126 -2q-9 -20 -11 -159q-1 -45 1 -131q3 -95 3 -113q0 -47 -45 -47q-48 0 -46 20q-11 17 -15 151q-2 39 -1 66 q1 37 1 75q-5 438 1 540q1 46 45 50q50 7 54 -42q2 -51 2 -129q-15 -191 -1 -202q10 -7 103 -9q92 -2 97 5q10 13 -3 333q0 45 47 45z" glyph-name="uni043D" horiz-adv-x="522" unicode="н"/>
<glyph d="M170 622q-16 -111 -15 -271q2 -200 38 -241q31 -34 70 -41q36 -8 62 16q58 51 49 355q-7 242 -35 288q-29 47 -65 46q-20 0 -53 -38q-42 -48 -51 -114zM97 66q-50 68 -52 267q-1 184 14 304q9 79 55 137t112 76q70 19 120 -5q31 -16 69 -60q61 -72 62 -310 q0 -238 -2 -273q-5 -97 -54 -159q-47 -61 -129 -61q-67 0 -96 9q-58 17 -99 75z" glyph-name="uni043E" horiz-adv-x="521" unicode="о"/>
<glyph d="M56 715q2 67 -1 137q4 25 52 25q52 -4 49 -21v-19q0 -3 9 7q18 23 112 25q137 0 197 -64q23 -25 41 -161q12 -90 9 -523q0 -12 2 -43q2 -33 2 -44q0 -23 -17 -36q-17 -17 -40 -14q-49 4 -51 62v335q1 56 -3 109q-4 59 -7 180q-1 64 -26 88q-33 33 -99 28 q-77 -11 -100 -39q-22 -30 -27 -170q-13 -139 9 -535q0 -19 -9 -35q-15 -25 -43 -25q-45 0 -55 45q-6 24 -3 161q1 63 1 365q-3 134 -2 162z" glyph-name="uni043F" unicode="п"/>
<glyph d="M335 136q42 79 37 294q-5 192 -31 256q-20 51 -37 70q-16 18 -45 18q-25 0 -66 -36q-6 -7 -14 -16q-11 -16 -11 -36q-11 -561 -2 -593q3 -14 14 -18q102 -34 155 61zM450 691q35 -99 28 -303q-7 -211 -54 -292q-70 -124 -188 -120q-30 1 -70 14q-30 6 -1 -187 q3 -168 3 -213q-5 -72 -66 -68q-39 3 -41 63q-1 9 -1 43q0 29 -2 45q-4 49 1 350q5 308 -1 595q0 8 1 85q-2 70 -1 128q0 27 46 32q20 1 39 -7q16 -5 11.5 -28t43.5 12q31 23 80 22q54 -1 89 -31q48 -41 83 -140z" glyph-name="uni0440" horiz-adv-x="529" unicode="р"/>
<glyph d="M358 109q51 24 80 -22q22 -35 -9 -59q-69 -49 -157 -46q-81 3 -136 51q-82 68 -80 271q2 215 8 331q8 189 131 225q126 39 200 -13q36 -26 24 -59q-22 -58 -77 -15q-24 20 -78 18q-21 -2 -47 -21q-29 -23 -43 -59q-20 -50 -16 -306q4 -277 53 -306q43 -28 86 -17 q8 1 61 27z" glyph-name="uni0441" horiz-adv-x="430" unicode="с"/>
<glyph d="M233 -14q-22 16 -25 496l2 197q-3 112 -6 116t-141 -2q-32 -3 -44 26q-5 16 -1 32q9 24 236 26q182 2 191 2q61 0 61 -36q0 -42 -43 -46q-21 -1 -117 0h-30q-12 -9 -7 -176q7 -642 -18 -637q-8 -6 -58 2z" glyph-name="uni0442" horiz-adv-x="520" unicode="т"/>
<glyph d="M133 605q-16 40 -34 76q-19 33 -28 57q-47 105 -45 122q12 59 77 37q33 -11 77 -131q82 -234 86 -233q5 3 13 33q25 92 40 136q2 7 41 138q15 59 69 59q67 0 54 -77q-3 -20 -26 -74q-26 -62 -39 -102q-15 -51 -53 -149q-38 -97 -44 -116q-11 -36 -32 -154 q-21 -123 -25 -137q-29 -108 -67 -108q-39 0 -50 24q-5 17 8 64q49 164 46 311q-1 56 -68 224z" glyph-name="uni0443" horiz-adv-x="517" unicode="у"/>
<glyph d="M571 782q-51 -7 -75 -28q-5 -7 -14 -17q-9 -12 -9 -30q-11 -551 -3 -591q4 -12 14 -16q26 -9 50 -9q69 0 108 70q42 76 36 290q-4 190 -30 253q-33 85 -77 78zM362 114q19 8 9 310q-4 132 -6 215v14q-1 53 -5 65q-2 9 -26 27q-47 39 -88 39h-3q-39 -2 -67 -75 q-21 -51 -16 -297q4 -267 52 -296q42 -26 74 -26q23 0 65 19zM755 715q35 -101 28 -307q-7 -211 -54 -294q-68 -120 -178 -120q-32 0 -68 11q-12 3 -13 -3q-4 -23 2 -304q2 -80 1 -87q-3 -71 -60 -71h-3q-30 1 -39 35q-4 16 -4 66q-1 37 -2 53q-2 21 2 146q5 145 4 172 q0 2 -16 -3q-53 -16 -76 -16h-5q-75 1 -132 49q-84 70 -82 262v24q2 193 8 308q8 184 128 223q86 27 139 -12q1 -1 7 -6q8 -6 16 -15.5t9 -6.5q1 32 2 36q9 28 48 28q43 0 43 -33v-9q0 -8 -1 -15q0 -1 3 0q1 2 3 4q6 6 36 30q15 14 83 16q55 0 91 -29q48 -40 80 -132z" glyph-name="uni0444" horiz-adv-x="848" unicode="ф"/>
<glyph d="M535 66q19 -36 -11 -62q-45 -40 -79 7q-45 65 -105 164q-13 23 -48 99q-14 23 -20 13t-55 -107q-57 -120 -94 -176q-34 -48 -73 -9q-28 28 -17 62q9 32 100 195q83 154 83 159q0 23 -11 42q-172 293 -161 362q9 46 67 26q39 -13 63 -61q12 -21 70 -165q29 -95 34 -91 q-1 3 32 94q61 149 72 168q24 47 62 61q60 23 67 -25q12 -73 -159 -366q-21 -34 -20 -45q0 -5 94 -162q107 -180 109 -183z" glyph-name="uni0445" horiz-adv-x="575" unicode="х"/>
<glyph d="M526 136q0 -4 1 -139q0 -123 -3 -129q-8 -23 -45 -28q-45 -14 -49 27q1 148 11 157q-44 -39 -137 -42q-136 0 -196 64q-23 25 -41 161q-12 90 -10 523q1 12 -1 44q-2 33 -2 44q0 20 16 35q19 17 38 14q49 5 54 -54q1 -269 1 -330q-2 -68 2 -122q4 -59 6 -180 q2 -64 26 -88q34 -33 101 -28q66 5 88 33q23 29 37 176q13 133 -8 535q-1 19 10 37q14 23 41 23q46 0 56 -44q5 -25 3 -162q-1 -63 -2 -364q4 -135 3 -163z" glyph-name="uni0446" horiz-adv-x="581" unicode="ц"/>
<glyph d="M456 498v-249q1 -231 -1 -238q-9 -23 -48 -28q-53 -9 -53 27q14 377 15 378q-35 -35 -134 -44q-104 0 -168 69q-35 45 -39 160q-2 14 -1 163q1 12 -1 43q-2 33 -2 44q0 20 15 36q20 17 41 14q49 -4 56 -50q-2 -73 -3.5 -150.5t0.5 -126.5q2 -65 23 -86q37 -36 72 -33 q67 5 89 33q31 27 36 176q1 8 -8 181q-1 19 9 35q14 25 42 25q46 0 56 -45q3 -14 1 -172q3 -134 3 -162z" glyph-name="uni0447" horiz-adv-x="511" unicode="ч"/>
<glyph d="M887 146q-3 -43 -49 -96q-57 -68 -164 -68q-137 7 -191 79q-4 6 -8 -1q-3 -4 -7 -10q-57 -68 -164 -68q-136 0 -196 64q-31 31 -41 162q-12 89 -10 522q1 12 -1 43q-2 33 -2 44q0 21 15 36q19 17 41 14q52 -1 53 -54q1 -31 0 -97q-2 -302 2 -355q4 -58 6 -180 q2 -64 26 -88q34 -33 101 -28q66 5 88 33q26 33 39 166q3 28 -4 283q-6 258 -6 262q2 24 13 43q18 33 54 20q38 -17 42 -149q1 -305 5 -359q4 -67 7 -182q2 -60 31 -89q34 -33 101 -28q66 5 88 33q23 29 37 176q14 139 -8 535q-1 19 10 37q14 23 41 23q46 0 56 -45 q5 -24 3 -161q-1 -63 -2 -365q2 -60 -6 -152z" glyph-name="uni0448" horiz-adv-x="951" unicode="ш"/>
<glyph d="M892 822q5 -25 3 -162q-1 -63 -2 -364q2 -60 -6 -153q0 -27 -2 -70q-5 -56 -4 -87q1 -16 4 -86q3 -54 2 -67q-3 -44 -46 -52q-54 -7 -54 47q0 127 -26 174q0 -9 -11 -12q-34 -11 -76 -11q-152 0 -200 81q-2 1 -8 -9q-2 -4 -4 -7q-51 -65 -158 -65q-136 0 -196 64 q-23 25 -41 161q-12 90 -10 523q1 12 -1 44q-2 33 -2 44q0 20 16 35q19 17 40 14q50 -4 51 -70q2 -253 4 -311q-4 -71 0 -125q4 -59 6 -180q2 -64 26 -88q34 -33 101 -28q66 5 88 33q26 33 39 166q3 28 -4 283q-6 258 -6 262q2 25 12 41q19 35 55 22q38 -17 42 -149 q1 -305 5 -358q4 -68 7 -183q2 -60 31 -89q34 -33 101 -28q66 5 88 33q23 29 37 176q14 140 -8 535q-1 19 10 37q14 23 41 23q46 0 56 -44z" glyph-name="uni0449" horiz-adv-x="951" unicode="щ"/>
<glyph d="M442 334q-10 122 -90 130q-50 6 -94 -21q-4 -2 1 -266q2 -110 8 -120q5 -7 40 3q55 12 87 54q61 79 48 220zM476 493q67 -64 70 -183q3 -157 -56 -227q-58 -68 -113 -87q-33 -13 -189 -13v0q-6 0 -20 23q-5 9 -8 112q-2 35 -4 605q-1 66 -5 68q-20 14 -61 11 q-66 -5 -66 30q0 47 78 47q126 0 147 -48q6 -14 3 -164q-3 -134 -2 -140q0 -4 8 0q30 10 41 14q105 22 177 -48z" glyph-name="uni044A" horiz-adv-x="573" unicode="ъ"/>
<glyph d="M471 508q-3 355 0 362q37 49 76 -5q21 -27 20 -77q-1 -19 5 -120q5 -99 1 -199l-5 -111v-317q-1 -39 -29 -53q-57 -28 -61 31q-5 67 -7 172q-1 48 -1 153q1 125 1 164zM335 316q-10 125 -89 139q-51 11 -90 -12q-5 -3 3 -265q1 -111 8 -122q3 -5 39 5q56 12 87 54 q54 69 42 201zM364 496q71 -59 74 -204q3 -148 -50 -210q-56 -66 -112 -86q-33 -12 -111 -13q-32 -2 -59 1q-25 0 -39 23q-5 9 -8 111q-1 36 -4 606v92q-1 27 0 48q6 27 49 27t44 -45q0 -7 -1 -27q-1 -19 0 -30q0 -9 1 -153q-4 -114 -12 -117q11 3 23 8q13 3 26 8 q110 20 179 -39z" glyph-name="uni044B" horiz-adv-x="606" unicode="ы"/>
<glyph d="M335 316q-11 124 -89 139q-51 10 -89 -13q-6 -2 2 -265q1 -110 7 -120q5 -7 40 3q56 12 87 54q54 69 42 202zM364 496q71 -62 74 -204q3 -149 -50 -211q-57 -66 -112 -85q-33 -13 -145 -13h-26q-31 3 -38 25q-5 7 -8 110q-1 35 -4 605v92q-1 31 0 48q6 27 49 27t44 -45 q0 -7 -1 -27q-1 -19 0 -30q0 -9 1 -153q0 -112 1 -114q-1 2 1 2q33 11 49 15q96 17 165 -42z" glyph-name="uni044C" horiz-adv-x="465" unicode="ь"/>
<glyph d="M283 429q-1 0 -42 7q-5 1 -46 2q-44 0 -66 9q-43 15 -22 51q18 29 53 29q5 0 30 -3q24 -3 41 -4q44 -3 51 6q19 23 9 102q-12 91 -58 146q-29 34 -65 23q-45 -24 -84 -31q-57 19 -37 54q15 28 64 50q63 26 111 17q59 -13 110 -80q68 -100 60 -284q-5 -94 -8 -288 q-2 -97 -30 -148q-57 -105 -156 -105q-45 0 -94 18q-57 21 -69 49q-17 46 39 54q35 3 81 -19q61 -30 107 30q37 67 24 308q0 6 -3 7z" glyph-name="uni044D" horiz-adv-x="451" unicode="э"/>
<glyph d="M517 446q0 -45 -8 -170q-5 -69 -31 -120q-27 -51 -69 -51h-6q-33 1 -55 45q-38 73 -53 207q-6 56 -3 202q6 268 94 268q51 0 71 -27q9 -13 35 -83q14 -38 19 -101q6 -79 6 -121v-49zM556 793q-6 13 -6 14q-24 60 -68 90q-37 25 -92 26h-8q-57 0 -95 -27q-35 -26 -57 -82 q-20 -48 -29 -134q-2 -13 -3 -91l-1 -37q0 -26 -4 -37q-10 -3 -27 -3q-7 0 -13 1q-2 20 0 39q4 57 0 170q-3 69 -2 96q2 69 -25 97q-12 13 -28 13q-20 0 -32 -19q-12 -21 -8 -200q2 -109 2 -170q0 -39 -2 -142q-2 -128 -1 -178q1 -106 4 -174q2 -45 40 -45q19 0 33 16 q16 18 17 48v78q-3 225 1 270q15 3 31 3q8 0 14 -1q2 -10 4 -43q1 -15 2 -24q16 -144 29 -181q26 -81 51 -109q47 -53 115 -56h8q51 0 96 34q27 20 52 65q28 53 43 136q9 47 17 151q4 148 -18 283q-7 45 -40 123z" glyph-name="uni044E" horiz-adv-x="676" unicode="ю"/>
<glyph d="M282 501q13 7 14 132q1 120 -10 161q-4 15 -17 15q-22 1 -52 -21q-81 -61 -58 -179q17 -82 67 -105q33 -15 56 -3zM44 66q4 12 105 182q92 152 89 158q-1 2 -21 9q-47 12 -66 26q-51 32 -74 65q-43 64 -36 165q8 103 101 168q84 58 172 52q72 -7 77 -48q1 -14 -2 -164 q-4 -178 -4 -248l6 -365q0 -71 -39 -81q-45 -13 -69 24q-6 10 15 196q10 167 6 164q-6 5 -70 -148q-66 -146 -81 -181q-24 -58 -56 -58q-52 0 -60 36q-3 15 7 48z" glyph-name="uni044F" horiz-adv-x="446" unicode="я"/>
<glyph d="M244 791q-21 -2 -47 -21q-29 -23 -43 -59q-13 -30 -16 -214q0 -3 13 -3q122 -3 155 39q33 41 29 121q-3 72 -25 103q-25 36 -66 34zM338 109q51 24 80 -22q22 -35 -9 -59q-69 -49 -157 -46q-80 3 -135 50q-83 69 -81 272q2 217 8 331q8 189 130 225q113 35 183 -15 q34 -25 64 -87q22 -50 14 -144q-9 -100 -49 -142q-38 -40 -125 -55q-74 -11 -110 -5q-15 3 -13 -7q3 -277 53 -306q43 -28 86 -17q9 1 61 27zM257 1107q80 -137 47 -160q-36 -25 -101 66q-14 18 -70 103q-30 49 -31 70q0 30 33 45q50 23 86 -42q5 -12 18 -41q11 -28 18 -41z " glyph-name="uni0450" horiz-adv-x="467" unicode="ѐ"/>
<glyph d="M244 791q-21 -2 -47 -21q-29 -23 -43 -59q-13 -30 -16 -214q0 -3 -6 -3q141 -3 174 39q33 41 29 121q-3 72 -25 103q-25 36 -66 34zM338 109q51 24 80 -22q22 -35 -9 -59q-69 -49 -157 -46q-80 3 -135 50q-83 69 -81 272q2 217 8 331q8 189 130 225q113 35 183 -15 q34 -25 64 -87q22 -50 14 -144q-9 -100 -49 -142q-38 -40 -125 -55q-74 -11 -113 -7q-9 2 -11 -6q4 -276 54 -305q43 -28 86 -17q9 1 61 27zM70 1032q0 56 77 61q27 0 54 -32q29 -32 9 -65q-28 -42 -69 -38q-38 4 -54 22q-17 19 -17 52zM455 1018q0 -55 -75 -60 q-26 -3 -56 32q-29 32 -9 64q29 43 71 38q36 -4 52 -22q17 -19 17 -52z" glyph-name="uni0451" horiz-adv-x="467" unicode="ё"/>
<glyph d="M125 -18q-37 -4 -55 24q-5 8 -8 113q0 13 3 111q3 108 2 163q-1 306 -4 342q-11 138 70 143q114 5 157 0q3 -1 24 -1q25 1 41 0q72 -5 73 -47q0 -36 -155 -36q-101 -1 -100 -13q-2 -238 -5 -326q-2 -41 2 -119q3 -67 -1 -99q-4 -39 -4 -210q0 -38 -40 -45zM235 1169 q15 31 22 44q37 68 89 44q33 -15 33 -47q-1 -22 -32 -75q-60 -90 -75 -110q-69 -94 -105 -70q-37 23 50 170q6 14 18 44z" glyph-name="uni0453" horiz-adv-x="422" unicode="ѓ"/>
<glyph d="M165 422q-3 -274 24 -308q46 -60 107 -30q46 22 81 19q56 -8 39 -54q-11 -28 -68 -49q-49 -18 -95 -18q-99 0 -156 105q-28 51 -30 148q-3 124 -3 185q-20 286 56 387q50 67 109 80q48 9 111 -17q49 -22 65 -49q18 -68 -59 -58q-30 23 -62 34q-37 11 -66 -23 q-46 -55 -57 -146q-11 -79 8 -102q7 -9 51 -6q17 1 41 4q25 3 30 3q35 0 54 -29q21 -36 -23 -51q-23 -9 -66 -9q-41 -1 -46 -2q-41 -7 -42 -7q-3 -1 -3 -7z" glyph-name="uni0454" horiz-adv-x="451" unicode="є"/>
<glyph d="M396 290q0 -112 -35 -189q-20 -42 -68 -78q-52 -38 -97 -40q-30 -2 -62 1q-31 2 -55 17q-31 16 -31 38q0 39 50 39q14 0 34 -12q6 -4 9 -4q79 -2 123 79q41 78 27 161q-11 70 -142 201q-70 70 -92 167q-24 111 54 189q25 26 70 38q39 12 64 6q68 -15 87 -53 q16 -26 -14 -44q-23 -14 -61 11q-23 14 -29 17q-19 4 -53 -32q-31 -32 -13 -115q7 -28 64 -122q12 -18 48 -54q43 -41 64 -70q58 -81 58 -151z" glyph-name="uni0455" horiz-adv-x="410" unicode="ѕ"/>
<glyph d="M84 492q-3 346 3 352q33 42 76 -5q23 -28 22 -77q-1 -18 5 -116q6 -96 1 -192q-5 -108 -5 -258q-1 -116 0 -156q2 -37 -33 -54q-57 -23 -60 32q-6 65 -8 166q-2 47 -1 149q1 121 0 159zM75 1013q13 16 51 16q39 0 55 -24q12 -19 12 -38q0 -59 -66 -58q-35 0 -56 22 q-17 17 -16 37q1 26 20 45z" glyph-name="uni0456" horiz-adv-x="250" unicode="і"/>
<glyph d="M24 1025q0 56 77 61q27 0 54 -32q29 -32 9 -65q-28 -42 -69 -38q-38 4 -54 22q-17 19 -17 52zM409 1011q0 -55 -75 -60q-26 -3 -56 32q-29 32 -9 64q29 43 71 38q36 -4 52 -22q17 -19 17 -52zM171 492q-3 346 3 352q33 42 76 -5q23 -28 22 -77q-1 -18 5 -116 q6 -96 1 -192q-5 -108 -5 -258q-1 -116 0 -156q2 -37 -33 -54q-57 -23 -60 32q-6 65 -8 166q-2 47 -1 149q1 121 0 159z" glyph-name="uni0457" horiz-adv-x="433" unicode="ї"/>
<glyph d="M132 1015q17 14 50 14q37 0 54 -23q14 -18 14 -38q0 -62 -67 -58q-34 0 -52 18q-20 20 -19 41q1 26 20 46zM238 846q1 -17 0 -55q-2 -47 -1 -91q28 -811 -6 -963q-24 -101 -104 -122q-72 -15 -125 26q-36 30 -53 57q-20 39 16 55q39 13 96 -49q33 -28 65 14q23 33 24 332 q0 81 -3 222q-3 116 -2 137q2 48 -4 224t-5 190q1 40 39 54q56 19 63 -31z" glyph-name="uni0458" horiz-adv-x="319" unicode="ј"/>
<glyph d="M353 15q-6 7 -35 68q-36 77 -68 135q-18 32 -39 76q-30 59 -31 61q-20 46 -22 33q-3 1 1 -56q-8 -171 -7 -216q0 -8 1 -38q1 -24 1 -38q-2 -58 -45 -58q-55 0 -55 73q0 140 1 154q0 38 4 108q4 65 4 76q0 4 -4 217q-3 201 -3 210q0 40 42 48q34 5 48 -9q13 -13 13 -143 q-11 -216 -16 -216q6 0 22 28q5 7 23 38q17 31 29 50q24 37 53 85q24 39 37 59q10 14 25 39q14 22 21 30q25 39 62 39q55 0 55 -38q-7 -28 -44 -77q-8 -8 -35 -48q-29 -41 -35 -50q-122 -154 -120 -200q2 -36 102 -192q104 -164 124 -232q12 -43 -44 -49q-34 -4 -65 33z M250 1167q14 32 21 45q39 71 91 45q34 -14 34 -48q-1 -22 -34 -75q-61 -93 -76 -112q-71 -99 -107 -72q-36 23 52 173q6 14 19 44z" glyph-name="uni045C" horiz-adv-x="494" unicode="ќ"/>
<glyph d="M158 815q0 -26 -2 -209l-5 -295q-3 -90 -2 -117q-3 21 3 38q13 38 23 69q8 23 40 124q32 100 43 128q16 40 41 111q23 69 31 87q4 8 12 32q10 25 16 37q24 55 60 55q40 0 44 -44q1 -15 0 -58q0 -43 11 -353l-4 -327q0 -76 -6 -89q-11 -22 -41 -22t-46 29q-3 5 0 272 q2 121 -1 209q1 69 1.5 81t-4.5 3q-3 -6 -15 -40q-16 -43 -56 -159q-7 -19 -45 -132q-28 -84 -43 -125q-49 -131 -97 -131q-43 0 -54 52q-1 12 -6 107q-2 23 0 81q3 75 3 87q3 455 3 469q0 46 4 59q9 28 43 28q48 0 49 -57zM300 1096q82 -132 46 -156q-36 -27 -100 63 q-14 18 -68 100q-29 48 -30 68q0 31 32 45q48 22 84 -42q6 -12 19 -40q10 -27 17 -38z" glyph-name="uni045D" horiz-adv-x="527" unicode="ѝ"/>
<glyph d="M133 605q-16 40 -34 76q-19 33 -28 57q-47 105 -45 122q12 59 77 37q33 -11 77 -131q82 -234 86 -233q5 3 13 33q25 92 40 136q2 7 41 138q15 59 69 59q67 0 54 -77q-3 -20 -26 -74q-26 -62 -39 -102q-15 -51 -53 -149q-38 -97 -44 -116q-11 -36 -32 -154 q-21 -123 -25 -137q-29 -108 -67 -108q-39 0 -50 24q-5 17 8 64q49 164 46 311q-1 56 -68 224zM447 1119q-2 -17 -78 -115q-38 -48 -106 -48q-65 0 -140 104q-14 21 -19 32q-23 42 -13 56q34 38 72 -3q38 -44 51 -63q31 -47 57 -46q18 1 54 60q43 72 78 69q49 -4 44 -46z " glyph-name="uni045E" horiz-adv-x="517" unicode="ў"/>
<glyph d="M138 1390q4 -30 32 -86q31 -54 22 -69q-26 -38 -84 12q-34 30 -51 64q-35 63 -39 124q-4 63 9 84q22 41 72 40q44 -1 60 -26q29 -40 3 -81q-26 -38 -24 -62z" glyph-name="uni0485" horiz-adv-x="213" unicode="҅"/>
<glyph d="M51 1452q-26 41 3 81q16 25 60 26q50 1 72 -40q13 -21 9 -84q-4 -61 -39 -124q-17 -34 -51 -64q-58 -50 -84 -12q-9 15 22 69q28 56 32 86q2 24 -24 62z" glyph-name="uni0486" horiz-adv-x="213" unicode="҆"/>
<glyph d="M119 1052q-19 87 -68 265q-27 108 -23 128q12 59 78 37q38 -14 91 -339q19 -190 25 -192q5 -1 35 153q64 285 71 325q9 53 50 60q55 -3 39 -99q-2 -17 -30 -135q-30 -127 -40 -178q-9 -48 -40 -172q-30 -102 -33 -137q-10 -37 -5 -350q1 -43 5 -217q4 -166 4 -170 q0 -49 -48 -49q-61 0 -61 53v34q-1 37 -2 67q-1 106 0 188q3 188 -1 423q-7 129 -47 305z" glyph-name="uni04AE" horiz-adv-x="494" unicode="Ү"/>
<glyph d="M183 208q-39 154 -41 164q-23 125 -84 314q-34 107 -27 140q12 60 78 37q21 -7 76 -215q10 -39 70 -334q24 -146 29 -151q6 2 16 110q4 29 14 115q8 64 11 83q52 270 67 325q19 72 60 72q66 0 54 -77q-12 -72 -84 -385q-14 -60 -40 -206q-29 -165 -31 -174 q-19 -92 -13 -341q2 -125 -58 -125q-51 0 -46 197q3 116 -11 268q-4 48 -40 183z" glyph-name="uni04AF" horiz-adv-x="539" unicode="ү"/>
<glyph d="M143 -18q-106 0 -107 39q-4 49 63 50q21 -1 48 0h-3q3 7 3 39q2 101 2 134q0 24 2 79l2 49q0 25 1 158q1 113 -3 205q-4 91 -6 205q-2 136 -2 140l2 203q1 42 0 66q14 67 -61 51q-33 -3 -44 24q-6 19 -2 35q8 25 152 26q18 0 59 1h46q62 0 62 -36q0 -43 -44 -46 q-21 -2 -36 0q-29 0 -28 3q-10 -12 -10 -180q0 -389 6 -467q4 -69 4 -597q-9 -81 4 -91q3 -2 49 -4q59 -4 58 -45q0 -41 -68 -41h-149z" glyph-name="uni04C0" horiz-adv-x="395" unicode="Ӏ"/>
<glyph d="M736 1287q-43 -121 -50 -206q-8 -91 -7 -317q0 -42 5 -146q8 -144 11 -205q7 -195 59 -276q19 -38 95 -88q33 -20 40 -32q13 -28 -46 -35q-56 -3 -110 30q-55 35 -88 102q-43 86 -57 360q-3 223 -10 255q4 -3 -32 -2q-36 0 -33 3q-4 -8 6 -507q0 -129 -1 -150 q-1 -32 -2 -35q-8 -30 -46 -30q-42 0 -48 56q0 7 1 62q1 86 1 170q0 20 2 69q2 44 1 69q5 292 4 292q0 1 -33 -1q-35 -1 -38 -4q-3 -5 -7 -247q-11 -277 -53 -360q-32 -67 -88 -103q-54 -32 -110 -29q-61 7 -45 35q4 11 39 32q76 49 95 88q52 80 60 276q2 61 10 205 q6 104 6 146q0 226 -7 317q-8 85 -51 206q-10 32 -32 62q-33 42 -64 40q-50 -1 -75 13q-29 18 -14 42q33 46 133 26q89 -20 132 -122q73 -171 73 -462q0 -108 1 -109q0 6 24 7q36 3 38 4q1 1 -6 251l2 180q0 31 -2 86q-2 50 -2 54q7 103 55 96q41 -4 46 -54q0 -2 -2 -46 q-6 -119 -6 -186q0 -378 -2 -377q2 -2 39 0t40 3q-3 -3 -3 91q0 290 72 462q43 102 133 122q101 20 131 -26q19 -24 -15 -42q-23 -14 -73 -13q-31 2 -63 -40q-23 -30 -33 -62zM639 1718q-2 -17 -78 -115q-38 -48 -106 -48q-65 0 -140 104q-14 21 -19 32q-23 42 -13 56 q34 38 72 -3q38 -44 51 -63q31 -47 57 -46q18 1 54 60q43 72 78 69q49 -4 44 -46z" glyph-name="uni04C1" horiz-adv-x="886" unicode="Ӂ"/>
<glyph d="M558 781q-33 -72 -39 -123q-7 -55 -6 -154q0 -8 13 -252q7 -116 48 -164q9 -15 58 -55q21 -19 14 -31q-8 -16 -49 -20q-45 -2 -74 22q-13 13 -46 61q-37 55 -48 236q-6 162 -8 166q-10 1 -25 0q-21 0 -26 -5q-2 -2 17 -326q0 -95 -1 -108q-1 -46 -50 -46q-39 0 -44 39 q-1 5 0 40q1 67 1 119q1 13 2 42q1 27 1 43q4 188 2 196q-4 3 -24 4q-18 0 -21 -4q-7 -3 -10 -160q-8 -183 -44 -236q-59 -86 -136 -83q-49 4 -49 25q0 11 25 28q50 33 63 53q42 48 48 164q13 244 13 252q1 99 -6 154q-4 42 -35 110q-20 49 -67 75q-25 14 -22 29q3 17 31 23 q39 7 78 -21q30 -23 62 -76q47 -83 47 -247l3 -21q3 -7 13 -6q22 -1 25 2q5 4 1 104l-2 112q0 19 -2 53q-1 30 -1 33q5 71 50 65q49 -4 47 -67q-3 -35 -3 -114q-6 -175 -1 -189q12 -7 38 -1q7 1 6 29q0 167 55 262q30 52 57 70q33 23 66 5q38 -20 0 -58q-39 -38 -45 -49z M517 1146q-2 -17 -78 -115q-38 -48 -106 -48q-65 0 -140 104q-14 21 -19 32q-23 42 -13 56q34 38 72 -3q38 -44 51 -63q31 -47 57 -46q18 1 54 60q43 72 78 69q49 -4 44 -46z" glyph-name="uni04C2" horiz-adv-x="664" unicode="ӂ"/>
<glyph d="M143 -18q-106 0 -107 39q-4 49 63 50q21 -1 48 0h-3q3 7 3 39q2 101 2 134q0 24 2 79l2 49q0 25 1 158q1 113 -3 205q-4 91 -6 205q-2 136 -2 140l2 203q1 42 0 66q14 67 -61 51q-33 -3 -44 24q-6 19 -2 35q8 25 152 26q18 0 59 1h46q62 0 62 -36q0 -43 -44 -46 q-21 -2 -36 0q-29 0 -28 3q-10 -12 -10 -180q0 -389 6 -467q4 -69 4 -597q-9 -81 4 -91q3 -2 49 -4q59 -4 58 -45q0 -41 -68 -41h-149z" glyph-name="uni04CF" horiz-adv-x="395" unicode="ӏ"/>
<glyph d="M410 1002q-45 337 -51 336q3 2 -26 -164q-3 -19 -24 -122q-22 -107 -35 -177q-13 -75 -30 -203q-14 -124 -19 -150q-9 -40 -7 -58q0 -4 12 -3q223 -7 223 2q3 199 -43 539zM602 44q0 -22 -8 -36q-17 -25 -49 -29q-74 -7 -68 39q27 170 -15 343q0 1 -83 15 q-92 17 -151 -11q-12 -6 -22 -58q-28 -129 -31 -202q-1 -18 -1 -42q1 -30 1 -34q-1 -49 -38 -49q-51 0 -72 35q-11 20 30 272q7 45 32 242q23 192 40 285q7 44 54 354q12 84 19 111q8 34 21 80q36 125 82 125q49 0 76 -76q39 -113 52 -194q4 -21 28 -153q18 -100 20 -126 q2 -22 12 -110q13 -114 21 -189q31 -296 50 -572v-20zM529 1747q-2 -17 -78 -115q-38 -48 -106 -48q-65 0 -140 104q-14 21 -19 32q-23 42 -13 56q34 38 72 -3q38 -44 51 -63q31 -47 57 -46q18 1 54 60q43 72 78 69q49 -4 44 -46z" glyph-name="uni04D0" horiz-adv-x="656" unicode="Ӑ"/>
<glyph d="M396 111q9 14 9 343q0 257 -42 301q-36 38 -86 37q-38 0 -69 -44q-35 -51 -44 -124q-11 -103 -2 -274q11 -201 47 -244q30 -38 104 -28q68 8 83 33zM501 65q22 -2 44 -23q11 -17 8 -29q-8 -30 -58 -31q-40 -1 -63 19q-16 17 -21 18q-2 0 -14 -7q-32 -17 -84 -22 q-131 -13 -186 64q-60 81 -66 250q-7 213 4 334q13 152 121 216q40 23 105 22q55 0 82 -19q16 -11 21 -21q4 -3 2 8q-1 3 -1 21q7 22 54 13q16 -2 40 -12q6 -103 7 -147q7 -183 6 -220q0 -21 -1 -135q-1 -109 -2 -156v-38t-1 -44q-1 -21 -1 -48v-9q0 -4 4 -4zM485 1127 q-2 -17 -78 -115q-38 -48 -106 -48q-65 0 -140 104q-14 21 -19 32q-23 42 -13 56q34 38 72 -3q38 -44 51 -63q31 -47 57 -46q18 1 54 60q43 72 78 69q49 -4 44 -46z" glyph-name="uni04D1" horiz-adv-x="579" unicode="ӑ"/>
<glyph d="M410 1002q-45 337 -51 336q3 2 -26 -164q-3 -19 -24 -122q-22 -107 -35 -177q-13 -75 -30 -203q-14 -124 -19 -150q-9 -40 -7 -58q0 -4 12 -3q223 -7 223 2q3 199 -43 539zM602 44q0 -22 -8 -36q-17 -25 -49 -29q-74 -7 -68 39q27 170 -15 343q0 1 -83 15 q-92 17 -151 -11q-12 -6 -22 -58q-28 -129 -31 -202q-1 -18 -1 -42q1 -30 1 -34q-1 -49 -38 -49q-51 0 -72 35q-11 20 30 272q7 45 32 242q23 192 40 285q7 44 54 354q12 84 19 111q8 34 21 80q36 125 82 125q49 0 76 -76q39 -113 52 -194q4 -21 28 -153q18 -100 20 -126 q2 -22 12 -110q13 -114 21 -189q31 -296 50 -572v-20zM152 1644q0 56 77 61q27 0 54 -32q29 -32 9 -65q-28 -42 -69 -38q-38 4 -54 22q-17 19 -17 52zM537 1630q0 -55 -75 -60q-26 -3 -56 32q-29 32 -9 64q29 43 71 38q36 -4 52 -22q17 -19 17 -52z" glyph-name="uni04D2" horiz-adv-x="656" unicode="Ӓ"/>
<glyph d="M396 111q9 14 9 343q0 257 -42 301q-36 38 -86 37q-38 0 -69 -44q-35 -51 -44 -124q-11 -103 -2 -274q11 -201 47 -244q30 -38 104 -28q68 8 83 33zM501 65q22 -2 44 -23q11 -17 8 -29q-8 -30 -58 -31q-40 -1 -63 19q-16 17 -21 18q-2 0 -14 -7q-32 -17 -84 -22 q-131 -13 -186 64q-60 81 -66 250q-7 213 4 334q13 152 121 216q40 23 105 22q55 0 82 -19q16 -11 21 -21q4 -3 2 8q-1 3 -1 21q7 22 54 13q16 -2 40 -12q6 -103 7 -147q7 -183 6 -220q0 -21 -1 -135q-1 -109 -2 -156v-38t-1 -44q-1 -21 -1 -48v-9q0 -4 4 -4zM97 1033 q0 56 77 61q27 0 54 -32q29 -32 9 -65q-28 -42 -69 -38q-38 4 -54 22q-17 19 -17 52zM482 1019q0 -55 -75 -60q-26 -3 -56 32q-29 32 -9 64q29 43 71 38q36 -4 52 -22q17 -19 17 -52z" glyph-name="uni04D3" horiz-adv-x="579" unicode="ӓ"/>
<glyph d="M299 66q161 12 161 -49q7 -45 -254 -33q-105 -3 -121 10q-7 11 -8 128q-1 24 1 152q2 145 2 193q-3 701 -17 877q-11 140 70 144q116 5 154 0h31q30 0 47 -2q82 -6 64 -50q-13 -31 -166 -27q-96 4 -95 -9l7 -297q0 -95 1 -190q2 -58 117 -44q34 -3 54 -43q27 -54 -33 -51 q-77 4 -93 1q-29 -5 -31 -5q-1 -1 -1 -7q-15 -539 -15 -583q1 -104 12 -114q7 -6 113 -1zM434 1735q-2 -17 -78 -115q-38 -48 -106 -48q-65 0 -140 104q-14 21 -19 32q-23 42 -13 56q34 38 72 -3q38 -44 51 -63q31 -47 57 -46q18 1 54 60q43 72 78 69q49 -4 44 -46z" glyph-name="uni04D6" horiz-adv-x="508" unicode="Ӗ"/>
<glyph d="M244 791q-21 -2 -47 -21q-29 -23 -43 -59q-13 -30 -16 -214q0 -3 -6 -3q141 -3 174 39q33 41 29 121q-3 72 -25 103q-25 36 -66 34zM338 109q51 24 80 -22q22 -35 -9 -59q-69 -49 -157 -46q-80 3 -135 50q-83 69 -81 272q2 217 8 331q8 189 130 225q113 35 183 -15 q34 -25 64 -87q22 -50 14 -144q-9 -100 -49 -142q-38 -40 -125 -55q-74 -11 -113 -7q-9 2 -11 -6q4 -276 54 -305q43 -28 86 -17q9 1 61 27zM439 1115q-2 -17 -78 -115q-38 -48 -106 -48q-65 0 -140 104q-14 21 -19 32q-23 42 -13 56q34 38 72 -3q38 -44 51 -63 q31 -47 57 -46q18 1 54 60q43 72 78 69q49 -4 44 -46z" glyph-name="uni04D7" horiz-adv-x="467" unicode="ӗ"/>
<glyph d="M746 1287q-43 -121 -50 -206q-8 -91 -7 -317q0 -42 5 -146q8 -144 11 -205q7 -195 59 -276q19 -38 95 -88q33 -20 40 -32q13 -28 -46 -35q-56 -3 -110 30q-55 35 -88 102q-43 86 -57 360q-3 223 -10 255q4 -3 -32 -2q-36 0 -33 3q-4 -8 6 -507q0 -129 -1 -150 q-1 -32 -2 -35q-8 -30 -46 -30q-42 0 -48 56q0 7 1 62q1 86 1 170q0 20 2 69q2 44 1 69q5 292 4 292q0 1 -33 -1q-35 -1 -38 -4q-3 -5 -7 -247q-11 -277 -53 -360q-32 -67 -88 -103q-54 -32 -110 -29q-61 7 -45 35q4 11 39 32q76 49 95 88q52 80 60 276q2 61 10 205 q6 104 6 146q0 226 -7 317q-8 85 -51 206q-10 32 -32 62q-33 42 -64 40q-50 -1 -75 13q-29 18 -14 42q33 46 133 26q89 -20 132 -122q73 -171 73 -462q0 -108 1 -109q0 6 24 7q36 3 38 4q1 1 -6 251l2 180q0 31 -2 86q-2 50 -2 54q7 103 55 96q41 -4 46 -54q0 -2 -2 -46 q-6 -119 -6 -186q0 -378 -2 -377q2 -2 39 0t40 3q-3 -3 -3 91q0 290 72 462q43 102 133 122q101 20 131 -26q19 -24 -15 -42q-23 -14 -73 -13q-31 2 -63 -40q-23 -30 -33 -62zM278 1641q0 56 77 61q27 0 54 -32q29 -32 9 -65q-28 -42 -69 -38q-38 4 -54 22q-17 19 -17 52z M663 1627q0 -55 -75 -60q-26 -3 -56 32q-29 32 -9 64q29 43 71 38q36 -4 52 -22q17 -19 17 -52z" glyph-name="uni04DC" horiz-adv-x="886" unicode="Ӝ"/>
<glyph d="M568 781q-33 -72 -39 -123q-7 -55 -6 -154q0 -8 13 -252q7 -116 48 -164q9 -15 58 -55q21 -19 14 -31q-8 -16 -49 -20q-51 -2 -80 22q-13 13 -46 61q-37 55 -48 236q-8 147 -8 148q-8 4 -20 6q-16 -2 -16 -6q-4 -2 8 -313q0 -95 -1 -108q-1 -46 -50 -46q-43 0 -48 39 q-1 5 0 40q1 67 1 119q1 13 2 42q1 27 1 43q4 176 2 182q-1 1 -19 1q-24 1 -30 -3q0 1 -2 -144q-8 -183 -44 -236q-59 -86 -134 -83q-44 0 -51 23q0 24 31 41q35 22 48 42q42 48 48 164q13 244 13 252q1 99 -6 154q-4 42 -35 110q-20 49 -75 79q-6 15 -5 25q3 17 31 23 q39 7 78 -21q30 -23 62 -76q47 -83 47 -247q-2 -25 1 -29q5 -1 16 -1q18 1 21 4q4 10 0 105l-2 112q0 19 -2 53q-1 30 -1 33q5 69 53 65q50 -4 48 -67q-3 -35 -3 -114q-17 -186 -10 -184q42 -10 43 -4t1 27q0 167 55 262q30 52 57 70q31 21 74 6q39 -21 1 -59 q-39 -38 -45 -49zM150 1046q0 56 77 61q27 0 54 -32q29 -32 9 -65q-28 -42 -69 -38q-38 4 -54 22q-17 19 -17 52zM535 1032q0 -55 -75 -60q-26 -3 -56 32q-29 32 -9 64q29 43 71 38q36 -4 52 -22q17 -19 17 -52z" glyph-name="uni04DD" horiz-adv-x="664" unicode="ӝ"/>
<glyph d="M179 827q0 27 10 40q59 71 95 185q42 127 11 257q-8 38 -28 62q-18 22 -36 21q-40 -2 -61 -53q-27 -67 -40 -75q-72 -41 -72 35q0 62 56 120q52 55 107 56q82 0 123 -49q34 -40 48 -161q15 -136 -17 -239q-14 -43 -61 -125q-40 -72 -40 -75q0 -1 26 -23q41 -34 56 -67 q36 -73 43 -190q6 -97 6 -188q1 -118 -29 -212q-22 -68 -72 -115q-53 -49 -112 -49q-77 0 -122 40q-49 43 -40 62q15 39 64 20q15 -8 46 -28q35 -20 50 -21q22 -1 58 52q46 64 51 138q18 241 -5 359q-22 122 -72 156q-78 54 -43 67zM40 1635q0 56 77 61q27 0 54 -32 q29 -32 9 -65q-28 -42 -69 -38q-38 4 -54 22q-17 19 -17 52zM425 1621q0 -55 -75 -60q-26 -3 -56 32q-29 32 -9 64q29 43 71 38q36 -4 52 -22q17 -19 17 -52z" glyph-name="uni04DE" horiz-adv-x="441" unicode="Ӟ"/>
<glyph d="M205 429q-29 17 -28 36q3 8 38 49q13 15 40 77q31 72 27 98q-1 2 -2 9q-8 37 -28 64q-20 26 -39 28q-40 7 -57 -31q-31 -66 -45 -73q-73 -39 -69 35q2 64 65 113q47 36 106 34q81 -2 127 -76q61 -98 10 -218q-15 -34 -40 -74q-23 -30 -14 -34q8 -10 21 -21q46 -35 60 -67 q53 -122 8 -248q-23 -66 -79 -108q-57 -42 -116 -40q-75 3 -119 45q-46 44 -38 63q20 39 65 18q13 -7 45 -30q33 -21 48 -22q26 -2 68 50q53 63 50 133q-6 122 -65 167q-8 6 -39 23zM24 1025q0 54 75 58q24 0 52 -30q27 -31 8 -63q-27 -40 -68 -36q-35 4 -51 21 q-16 18 -16 50zM391 1011q0 -52 -72 -57q-26 -3 -54 30q-28 31 -9 62q28 41 68 36q35 -1 51 -21q16 -18 16 -50z" glyph-name="uni04DF" horiz-adv-x="474" unicode="ӟ"/>
<glyph d="M360 1617q-85 -5 -118 -5q-110 0 -136 31q-21 29 -6 53q16 25 115 23q160 -4 227 -1q111 5 140 -22q62 -74 -123 -76q-14 0 -99 -3zM484 1109q-15 -79 -50 -255q-14 -72 -200 -738q-38 -134 -79 -134q-50 0 -64 62q-3 12 -7 96q-2 23 0 70q3 61 3 76q0 20 -1 84 q-1 57 0 80q5 165 5 205q-3 679 -3 736q0 85 58 85q51 0 51 -57q1 -26 -1 -209l-6 -295l-11 -598q3 9 4 13q2 8 26 103q24 93 43 161q16 61 45 162q26 92 33 118q9 33 62 257q53 223 55 231q34 118 83 117q58 0 58 -99q0 -43 2 -357v-249l3 -680q0 -73 -9 -89 q-14 -25 -51 -22q-34 4 -51 31q-3 6 0 272q2 133 2 291v532z" glyph-name="uni04E2" horiz-adv-x="687" unicode="Ӣ"/>
<glyph d="M281 968q-69 -4 -96 -4q-93 0 -115 27q-18 26 -6 46q16 23 98 21q131 -3 185 -1q93 4 119 -19q56 -65 -104 -67q-12 0 -81 -3zM158 815q0 -26 -2 -209l-5 -295q0 -54 -3 -68q-2 -28 4 -11q13 38 23 69q8 23 40 124q32 100 43 128q16 40 41 111q23 69 31 87q4 8 12 32 q10 25 16 37q24 55 60 55q40 0 44 -44q1 -15 0 -58q0 -43 11 -353l-4 -327q0 -76 -6 -89q-11 -22 -41 -22t-46 29q-3 5 0 272q2 121 -1 209q1 69 2 79t-2 14q-1 -1 -10 -25q-24 -67 -64 -183q-7 -19 -45 -132q-28 -84 -43 -125q-49 -131 -97 -131q-43 0 -54 52q-1 12 -6 107 q-2 23 0 81q3 75 3 87q3 455 3 469q0 46 4 59q9 28 43 28q48 0 49 -57z" glyph-name="uni04E3" horiz-adv-x="557" unicode="ӣ"/>
<glyph d="M476 1100q-16 -79 -50 -246q-14 -72 -200 -738q-38 -134 -79 -134q-50 0 -64 62q-3 12 -7 96q-2 23 0 70q3 61 3 76q0 20 -1 84q-1 57 0 80q5 165 5 205q-3 679 -3 736q0 85 58 85q51 0 51 -57q1 -26 -1 -209l-6 -295l-11 -599q3 11 4 14q2 8 26 103q24 93 43 161 q16 61 45 162q26 92 33 118q9 33 62 257q53 223 55 231q34 118 83 117q58 0 58 -99q0 -43 2 -357v-249l3 -680q0 -73 -9 -89q-14 -25 -51 -22q-34 4 -51 31q-3 6 0 272q2 133 2 291v523zM131 1647q0 56 77 61q27 0 54 -32q29 -32 9 -65q-28 -42 -69 -38q-38 4 -54 22 q-17 19 -17 52zM516 1633q0 -55 -75 -60q-26 -3 -56 32q-29 32 -9 64q29 43 71 38q36 -4 52 -22q17 -19 17 -52z" glyph-name="uni04E4" horiz-adv-x="659" unicode="Ӥ"/>
<glyph d="M370 568q-34 -90 -69 -191q-7 -19 -45 -132q-28 -84 -43 -125q-49 -131 -97 -131q-43 0 -54 52q-1 12 -6 107q-2 23 0 81q3 75 3 87q3 455 3 469q0 46 4 59q9 28 43 28q48 0 49 -57q0 -26 -2 -209l-8 -287q-10 -99 -6 -110q3 2 7 21q11 40 26 72q8 22 40 123 q32 100 43 128q16 40 41 111q23 69 31 87q4 8 12 32q10 25 16 37q24 55 60 55q40 0 44 -44q1 -15 0 -58q0 -43 11 -353l-4 -327q0 -76 -6 -89q-11 -22 -41 -22t-46 29q-3 5 0 272q2 121 -3 213q-1 39 -3 72zM72 1024q0 56 77 61q27 0 54 -32q29 -32 9 -65q-28 -42 -69 -38 q-38 4 -54 22q-17 19 -17 52zM457 1010q0 -55 -75 -60q-26 -3 -56 32q-29 32 -9 64q29 43 71 38q36 -4 52 -22q17 -19 17 -52z" glyph-name="uni04E5" horiz-adv-x="527" unicode="ӥ"/>
<glyph d="M155 896q-6 -244 2 -347q13 -164 30 -250q30 -145 36 -163q24 -64 66 -66q53 -1 95 110q44 114 52 238q13 216 13 292q0 25 1 81q1 72 -6 208q-6 110 -25 181q-32 122 -44 147q-42 73 -88 75q-118 4 -132 -506zM533 360q-20 -135 -54 -218q-29 -71 -60 -103 q-58 -59 -132 -57q-86 3 -142 88q-27 42 -58 174q-16 68 -32 298q-11 177 -9 250q7 255 11 303q13 141 36 217q27 87 67 127q48 49 129 47q72 -1 118 -43q48 -45 76 -139q48 -166 54 -222q25 -224 19 -471q-17 -208 -23 -251zM91 1637q0 56 77 61q27 0 54 -32q29 -32 9 -65 q-28 -42 -69 -38q-38 4 -54 22q-17 19 -17 52zM476 1623q0 -55 -75 -60q-26 -3 -56 32q-29 32 -9 64q29 43 71 38q36 -4 52 -22q17 -19 17 -52z" glyph-name="uni04E6" horiz-adv-x="626" unicode="Ӧ"/>
<glyph d="M170 622q-16 -111 -15 -271q2 -200 38 -241q31 -34 70 -41q36 -8 62 16q58 51 49 355q-7 242 -35 288q-29 47 -65 46q-20 0 -53 -38q-42 -48 -51 -114zM97 66q-50 68 -52 267q-1 184 14 304q9 79 55 137t112 76q70 19 120 -5q31 -16 69 -60q61 -72 62 -310 q0 -238 -2 -273q-5 -97 -54 -159q-47 -61 -129 -61q-67 0 -96 9q-58 17 -99 75zM73 1020q0 56 77 61q27 0 54 -32q29 -32 9 -65q-28 -42 -69 -38q-38 4 -54 22q-17 19 -17 52zM458 1006q0 -55 -75 -60q-26 -3 -56 32q-29 32 -9 64q29 43 71 38q36 -4 52 -22q17 -19 17 -52z " glyph-name="uni04E7" horiz-adv-x="521" unicode="ӧ"/>
<glyph d="M337 723q0 13 -36 19q-6 1 -48 2q-44 0 -66 9q-43 15 -21 51q20 29 56 30q4 0 27 -3q21 -2 38 -3q38 -1 47 12q25 32 6 262q-9 111 -16 140q-13 59 -60 114q-23 39 -67 20q-48 -19 -69 -83q-131 -9 -61 112q21 31 67 52q146 62 230 -69q71 -111 74 -225q0 -26 -2 -745 q3 -87 -1 -128q-3 -109 -53 -200q-57 -108 -170 -108q-45 0 -94 18q-57 21 -69 49q-17 46 39 54q35 3 81 -19q61 -30 107 30q63 80 62 187q-1 59 -1 422zM50 1645q0 56 77 61q27 0 54 -32q29 -32 9 -65q-28 -42 -69 -38q-38 4 -54 22q-17 19 -17 52zM435 1631q0 -55 -75 -60 q-26 -3 -56 32q-29 32 -9 64q29 43 71 38q36 -4 52 -22q17 -19 17 -52z" glyph-name="uni04EC" horiz-adv-x="478" unicode="Ӭ"/>
<glyph d="M273 429q-1 0 -42 7q-5 1 -46 2q-44 0 -66 9q-43 15 -22 51q18 29 53 29q5 0 30 -3q24 -3 41 -4q44 -3 51 6q19 23 9 102q-12 91 -58 146q-29 34 -65 23q-45 -24 -84 -31q-57 19 -37 54q15 28 64 50q63 26 111 17q59 -13 110 -80q68 -100 60 -284q-5 -94 -8 -288 q-2 -97 -30 -148q-57 -105 -156 -105q-45 0 -94 18q-57 21 -69 49q-17 46 39 54q35 3 81 -19q61 -30 107 30q37 67 24 308q0 6 -3 7zM18 1041q0 56 77 61q27 0 54 -32q29 -32 9 -65q-28 -42 -69 -38q-38 4 -54 22q-17 19 -17 52zM403 1027q0 -55 -75 -60q-26 -3 -56 32 q-29 32 -9 64q29 43 71 38q36 -4 52 -22q17 -19 17 -52z" glyph-name="uni04ED" horiz-adv-x="451" unicode="ӭ"/>
<glyph d="M158 944q0 22 -86 362q-27 109 -23 128q12 59 77 37q39 -12 91 -336q27 -193 36 -205q4 -1 28 178q54 287 56 313q5 55 53 55q61 0 46 -96q-3 -17 -30 -134q-30 -126 -40 -177q-9 -48 -40 -170q-29 -112 -33 -137q-8 -53 -4 -347q0 -42 5 -215q4 -166 4 -170 q0 -48 -48 -48q-61 0 -61 53v33q-1 37 -2 67q-1 105 0 186q3 183 -1 420q-1 72 -28 203zM259 1571q-72 -4 -100 -4q-95 0 -118 28q-20 26 -5 48t100 20q135 -3 192 -1q95 4 121 -19q58 -67 -107 -69q-12 0 -83 -3z" glyph-name="uni04EE" horiz-adv-x="512" unicode="Ӯ"/>
<glyph d="M150 605q-16 40 -34 76q-19 33 -28 57q-47 105 -45 122q12 59 77 37q33 -11 77 -132q62 -177 82 -218q6 -22 17 19q29 85 40 136q2 7 41 138q15 59 69 59q67 0 54 -77q-3 -20 -26 -74q-26 -62 -39 -102q-15 -51 -53 -149q-38 -97 -44 -116q-11 -36 -32 -154 q-21 -123 -25 -137q-29 -108 -67 -108q-39 0 -50 24q-5 17 8 64q49 164 46 311q-1 56 -68 224zM279 1000q-80 -4 -110 -4q-103 0 -127 29q-20 27 -7 51q18 24 109 22q149 -4 211 -1q103 5 132 -21q59 -71 -116 -72q-13 0 -92 -4z" glyph-name="uni04EF" horiz-adv-x="552" unicode="ӯ"/>
<glyph d="M137 944q0 22 -86 362q-27 109 -23 128q12 59 77 37q39 -12 87 -341q20 -130 41 -152q1 -3 22 136q67 276 67 304q7 54 46 58q62 0 47 -96q-3 -17 -30 -134q-30 -126 -40 -177q-9 -48 -40 -170q-29 -112 -33 -137q-8 -53 -43 -296q0 -42 -24 -234q-24 -196 -26 -208 q-20 -41 -58 -40q-45 -8 -49 38q0 18 5 43q5 52 17 108q12 73 26 198q22 138 45 370q-1 72 -28 203zM26 1643q0 56 77 61q27 0 54 -32q29 -32 9 -65q-28 -42 -69 -38q-38 4 -54 22q-17 19 -17 52zM411 1629q0 -55 -75 -60q-26 -3 -56 32q-29 32 -9 64q29 43 71 38 q36 -4 52 -22q17 -19 17 -52z" glyph-name="uni04F0" horiz-adv-x="491" unicode="Ӱ"/>
<glyph d="M133 605q-16 40 -34 76q-19 33 -28 57q-47 105 -45 122q12 59 77 37q33 -11 77 -131q82 -234 86 -233q5 3 13 33q25 92 40 136q2 7 41 138q15 59 69 59q67 0 54 -77q-3 -20 -26 -74q-26 -62 -39 -102q-15 -51 -53 -149q-38 -97 -44 -116q-11 -36 -32 -154 q-21 -123 -25 -137q-29 -108 -67 -108q-39 0 -50 24q-5 17 8 64q49 164 46 311q-1 56 -68 224zM68 1064q0 56 77 61q27 0 54 -32q29 -32 9 -65q-28 -42 -69 -38q-38 4 -54 22q-17 19 -17 52zM453 1050q0 -55 -75 -60q-26 -3 -56 32q-29 32 -9 64q29 43 71 38q36 -4 52 -22 q17 -19 17 -52z" glyph-name="uni04F1" horiz-adv-x="517" unicode="ӱ"/>
<glyph d="M137 944q0 22 -86 362q-27 109 -23 128q12 59 77 37q39 -12 87 -341q20 -130 41 -152q1 -3 22 136q67 276 67 304q7 54 46 58q62 0 47 -96q-3 -17 -30 -134q-30 -126 -40 -177q-9 -48 -40 -170q-29 -112 -33 -137q-8 -53 -43 -296q0 -42 -24 -234q-24 -196 -26 -208 q-20 -41 -58 -40q-45 -8 -49 38q0 18 5 43q5 52 17 108q12 73 26 198q22 138 45 370q-1 72 -28 203zM119 1747q13 29 20 41q35 66 87 42q31 -14 31 -45q0 -21 -31 -70q-54 -85 -69 -104q-68 -92 -103 -65q-33 21 47 160q7 13 18 41zM286 1747q13 29 20 41q35 66 87 42 q31 -14 31 -45q0 -21 -31 -70q-54 -85 -69 -104q-68 -92 -103 -65q-33 21 47 160q7 13 18 41z" glyph-name="uni04F2" horiz-adv-x="491" unicode="Ӳ"/>
<glyph d="M133 605q-16 40 -34 76q-19 33 -28 57q-47 105 -45 122q12 59 77 37q33 -11 77 -132q62 -177 81 -220q6 -13 14 23q28 84 44 134q2 7 41 138q15 59 69 59q67 0 54 -77q-3 -20 -26 -74q-26 -62 -39 -102q-15 -51 -53 -149q-38 -97 -44 -116q-11 -36 -32 -154 q-21 -123 -25 -137q-29 -108 -67 -108q-39 0 -50 24q-5 17 8 64q49 164 46 311q-1 56 -68 224zM173 1186q13 26 18 38q34 62 84 40q30 -13 30 -44q0 -19 -29 -65q-51 -79 -64 -96q-63 -86 -97 -62q-34 21 42 151q5 12 16 38zM328 1186l19 38q33 62 83 40q30 -13 30 -44 q0 -19 -29 -65q-51 -79 -64 -96q-63 -86 -97 -62q-34 21 42 151q5 12 16 38z" glyph-name="uni04F3" horiz-adv-x="517" unicode="ӳ"/>
<glyph d="M446 159q1 -93 0 -115q2 -65 -40 -65q-42 -20 -58 18q-2 6 -5 32q-2 20 -2 68q2 105 2 134q0 23 2 78q2 49 2 77q-1 23 -1 187q1 158 0 184q-1 12 -1 39v40q-5 19 -55 -9q-22 -11 -46 -10q-120 0 -171 53q-33 22 -50 143q-10 70 -8 344q0 10 -1 38q-2 28 -2 37 q0 19 15 33q16 13 34 13q61 -4 60 -39q2 -26 4 -94q-1 -153 2 -199q3 -51 5 -145q2 -55 22 -74q28 -28 84 -23q56 4 73 26q23 30 29 99q-5 263 -3 258q-1 132 -1 138q-2 40 29 51q32 19 62 -8q16 -16 14 -169q-1 -54 -2 -207q3 -117 2 -140q0 -8 1 -47v-48q1 -22 4 -698z M29 1615q0 56 77 61q27 0 54 -32q29 -32 9 -65q-28 -42 -69 -38q-38 4 -54 22q-17 19 -17 52zM414 1601q0 -55 -75 -60q-26 -3 -56 32q-29 32 -9 64q29 43 71 38q36 -4 52 -22q17 -19 17 -52z" glyph-name="uni04F4" horiz-adv-x="524" unicode="Ӵ"/>
<glyph d="M456 498v-249q1 -231 -1 -238q-9 -23 -48 -28q-53 -9 -53 27q14 377 15 378q-35 -35 -134 -44q-104 0 -168 69q-35 45 -39 160q-2 14 -1 163q1 12 -1 43q-2 33 -2 44q0 20 15 36q20 17 41 14q49 -4 56 -50q-2 -73 -3.5 -150.5t0.5 -126.5q2 -65 23 -86q37 -36 72 -33 q67 5 89 33q31 27 36 176q1 8 -8 181q-1 19 9 35q14 25 42 25q46 0 56 -45q3 -14 1 -172q3 -134 3 -162zM48 1025q0 56 77 61q27 0 54 -32q29 -32 9 -65q-28 -42 -69 -38q-38 4 -54 22q-17 19 -17 52zM433 1011q0 -55 -75 -60q-26 -3 -56 32q-29 32 -9 64q29 43 71 38 q36 -4 52 -22q17 -19 17 -52z" glyph-name="uni04F5" horiz-adv-x="511" unicode="ӵ"/>
<glyph d="M521 13q-5 8 -7 33q-3 21 -2 69q2 96 2 133q0 23 2 77q0 54 1 78q-1 60 1 129q1 112 -2 203q-4 90 -6 203q-2 135 -2 139l2 201q0 82 1 122q1 45 4 55q23 69 80 17q13 -13 13 -62q0 -8 -2 -73q-2 -66 -2 -114q0 -386 5 -464q2 -33 4 -592q-1 -66 1 -113q2 -66 -48 -66 q-35 0 -45 25zM397 340q2 279 -108 380q-33 31 -71 39q-21 5 -26 2q-3 -2 -4 -33q0 -11 2 -33q1 -21 1 -29q-11 -407 -12 -486q1 -112 9 -124q3 -5 40 5q57 12 89 55q80 104 80 224zM405 724q113 -152 96 -379q-12 -173 -88 -260q-57 -69 -114 -89q-33 -13 -191 -13v2 q-8 1 -21 22q-5 8 -8 113q-1 14 2 145q3 142 3 196q0 58 -5 458q-4 404 -4 416q0 13 -1 52v49q0 45 43 55q52 13 66 -37q1 -3 1 -72q1 -15 1 -287q-1 -234 3 -246q-6 0 52 -6q90 -17 165 -119zM142 1633q0 56 77 61q27 0 54 -32q29 -32 9 -65q-28 -42 -69 -38q-38 4 -54 22 q-17 19 -17 52zM527 1619q0 -55 -75 -60q-26 -3 -56 32q-29 32 -9 64q29 43 71 38q36 -4 52 -22q17 -19 17 -52z" glyph-name="uni04F8" horiz-adv-x="690" unicode="Ӹ"/>
<glyph d="M471 508q-3 355 0 362q37 49 76 -5q21 -27 20 -77q-1 -19 5 -120q5 -99 1 -199l-5 -111v-317q-1 -39 -29 -53q-57 -28 -61 31q-5 67 -7 172q-1 48 -1 153q1 125 1 164zM335 316q-10 125 -89 139q-51 11 -90 -12q-5 -3 3 -265q1 -111 8 -122q3 -5 39 5q56 12 87 54 q54 69 42 201zM364 496q71 -59 74 -204q3 -148 -50 -210q-56 -66 -112 -86q-33 -12 -111 -13q-32 -2 -59 1q-25 0 -39 23q-5 9 -8 111q-1 36 -4 606v92q-1 27 0 48q6 27 49 27t44 -45q0 -7 -1 -27q-1 -19 0 -30q0 -9 1 -153q-4 -114 -12 -117q11 3 23 8q13 3 26 8 q110 20 179 -39zM108 1032q0 56 77 61q27 0 54 -32q29 -32 9 -65q-28 -42 -69 -38q-38 4 -54 22q-17 19 -17 52zM493 1018q0 -55 -75 -60q-26 -3 -56 32q-29 32 -9 64q29 43 71 38q36 -4 52 -22q17 -19 17 -52z" glyph-name="uni04F9" horiz-adv-x="606" unicode="ӹ"/>
<glyph d="M581 871q417 593 425 598q88 56 63 -42q-14 -53 -72 -132q-21 -30 -138 -203q-112 -168 -236 -333q-135 -183 -320 -443q-44 -60 -121 -171q-58 -80 -71 -98q-42 -59 -81 -65q-75 -11 -25 65q77 117 198 291q56 81 183 258q149 209 195 275z" glyph-name="fraction" horiz-adv-x="1055" unicode="⁄"/>
<glyph d="M322 825q0 -25 -1 -142q-8 -36 -47 -36q-52 0 -53 41q8 234 -2 244q-17 5 -89 0q-75 0 -88 32q-8 23 74 499q12 62 54 58q55 -1 51 -52q-1 -14 -15 -62q-15 -50 -19 -78q-8 -57 -50 -297q-2 -14 0 -24q2 -3 48 0l41 2l8 178q1 62 51 54q36 -8 45 -37q1 -6 -2 -106 q-3 -86 -5 -85q4 -3 39 0q75 8 75 -36q0 -41 -69 -41q-12 0 -37 2q-13 2 -15 1q8 0 6 -115z" glyph-name="uni2074" horiz-adv-x="471" unicode="⁴"/>
<glyph d="M378 1695q-2 -17 -78 -115q-38 -48 -106 -48q-65 0 -140 104q-14 21 -19 32q-23 42 -13 56q34 38 72 -3q38 -44 51 -63q31 -47 57 -46q18 1 54 60q43 72 78 69q49 -4 44 -46z" glyph-name="cyrillicbreve" horiz-adv-x="395"/>
</font>
</defs>
</svg>
